<svg width="156" height="202" viewBox="0 0 156 202" fill="none" xmlns="http://www.w3.org/2000/svg">
<path d="M121.044 0H34.8134C15.587 0 0 18.209 0 40.671V160.806C0 183.268 15.587 201.477 34.8134 201.477H121.044C140.271 201.477 155.857 183.268 155.857 160.806V40.671C155.857 18.209 140.271 0 121.044 0Z" fill="#8DCB6B"/>
<path d="M51.7809 20.0977L54.159 35.0897L61.1215 20.0977H63.2212L54.9299 37.5425H52.6804L49.6812 20.0977H51.7809ZM66.1087 21.5995C65.7944 21.5995 65.5297 21.4827 65.3156 21.249C65.1163 20.9987 65.0161 20.6901 65.0161 20.323C65.0161 19.8224 65.1732 19.3969 65.4875 19.0465C65.8018 18.6795 66.1656 18.496 66.5801 18.496C66.9091 18.496 67.1728 18.6128 67.3731 18.8464C67.5735 19.0799 67.6726 19.3887 67.6726 19.7723C67.6726 20.2729 67.5155 20.7068 67.2012 21.0739C66.887 21.4242 66.5231 21.5995 66.1087 21.5995ZM66.7298 23.827L64.6523 37.5425H62.7023L64.7799 23.827H66.7298ZM72.1094 37.7677C70.8818 37.7677 69.8747 37.4257 69.089 36.7416C68.3033 36.0575 67.9099 35.1397 67.9099 33.9884C67.9099 33.7715 67.9173 33.613 67.9321 33.5129H69.8388C69.7808 34.2304 69.9601 34.8144 70.3745 35.2649C70.8027 35.7154 71.4165 35.9406 72.2169 35.9406C73.0163 35.9406 73.6586 35.7655 74.1447 35.415C74.6446 35.0479 74.8945 34.5391 74.8945 33.8883C74.8945 33.3377 74.6952 32.9039 74.2945 32.5869C73.8948 32.2698 73.281 31.9278 72.4521 31.5606C71.7234 31.2437 71.1244 30.9433 70.653 30.6597C70.1816 30.3761 69.7808 29.984 69.4528 29.4834C69.1248 28.9661 68.9603 28.3154 68.9603 27.5311C68.9603 26.7636 69.1459 26.0795 69.5171 25.4788C69.9031 24.8781 70.4315 24.4194 71.1022 24.1023C71.7877 23.7686 72.566 23.6017 73.4382 23.6017C74.6372 23.6017 75.6233 23.9521 76.3942 24.6529C77.1651 25.3537 77.5511 26.2714 77.5511 27.406C77.5511 27.6229 77.5437 27.7897 77.53 27.9066H75.6655L75.6876 27.6062C75.6876 26.9388 75.4661 26.4132 75.0232 26.0294C74.595 25.629 74.0235 25.4288 73.3095 25.4288C72.6092 25.4288 72.0303 25.6123 71.5736 25.9794C71.1307 26.3464 70.9092 26.8386 70.9092 27.456C70.9092 28.04 71.117 28.4989 71.5314 28.8327C71.9448 29.1663 72.5881 29.5334 73.4592 29.9339C74.188 30.2676 74.7733 30.5762 75.2162 30.8599C75.6592 31.1269 76.0367 31.5023 76.351 31.9861C76.6652 32.4701 76.8224 33.0791 76.8224 33.8133C76.8224 34.6142 76.6157 35.315 76.2012 35.9156C75.8015 36.5162 75.2447 36.9751 74.5307 37.2921C73.8168 37.6092 73.0089 37.7677 72.1094 37.7677ZM79.4673 30.6347C79.6814 29.2331 80.1106 28.0067 80.7529 26.9554C81.4099 25.8876 82.203 25.0617 83.131 24.4777C84.0738 23.8937 85.0736 23.6017 86.1303 23.6017C87.1585 23.6017 88.0085 23.8603 88.6792 24.3776C89.351 24.8948 89.8151 25.5456 90.0724 26.3298L90.4573 23.827H92.4283L90.3508 37.5425H88.3797L88.7868 34.9896C88.2722 35.7904 87.5941 36.4579 86.7514 36.9918C85.9088 37.5091 84.9808 37.7677 83.9662 37.7677C83.053 37.7677 82.2451 37.5425 81.5459 37.0919C80.8457 36.6247 80.3025 35.9657 79.9176 35.1147C79.5316 34.2637 79.3387 33.2793 79.3387 32.1614C79.3387 31.6608 79.3819 31.1519 79.4673 30.6347ZM89.4291 30.6597C89.4871 30.3093 89.5155 29.9339 89.5155 29.5334C89.5155 28.3154 89.2013 27.356 88.5727 26.6551C87.9589 25.9377 87.1733 25.5789 86.2157 25.5789C85.488 25.5789 84.7878 25.7792 84.116 26.1797C83.46 26.58 82.8948 27.1641 82.4244 27.9316C81.953 28.6991 81.6387 29.6002 81.4816 30.6347C81.4246 30.985 81.3951 31.3688 81.3951 31.786C81.3951 33.0206 81.7031 33.9968 82.3169 34.7142C82.9306 35.415 83.7173 35.7654 84.6739 35.7654C85.4015 35.7654 86.0944 35.5652 86.7514 35.1648C87.4232 34.7476 87.9938 34.1553 88.4652 33.3878C88.9513 32.6036 89.273 31.6942 89.4291 30.6597ZM83.9451 22.3503C84.1592 21.4993 84.4883 20.8485 84.9302 20.3981C85.3878 19.9476 85.9025 19.7224 86.473 19.7224C86.744 19.7224 86.9655 19.7723 87.1374 19.8725C87.3083 19.9726 87.516 20.1311 87.7586 20.348C87.9294 20.5149 88.0876 20.6484 88.23 20.7485C88.3871 20.8319 88.559 20.8736 88.7436 20.8736C88.9872 20.8736 89.2013 20.7818 89.3869 20.5983C89.5873 20.4148 89.737 20.1478 89.8361 19.7974H90.972C90.7579 20.6317 90.4225 21.274 89.9648 21.7246C89.5082 22.1751 88.9935 22.4003 88.423 22.4003C88.1519 22.4003 87.9157 22.3503 87.7153 22.2502C87.5297 22.1334 87.323 21.9665 87.0942 21.7496C86.8949 21.5827 86.7303 21.4576 86.6017 21.3742C86.4878 21.2908 86.337 21.249 86.1514 21.249C85.9088 21.249 85.6947 21.3409 85.5091 21.5244C85.3235 21.7079 85.1812 21.9832 85.081 22.3503H83.9451ZM98.8087 37.7677C97.8237 37.7677 96.9516 37.5341 96.1954 37.0669C95.4519 36.5831 94.874 35.9156 94.4595 35.0646C94.045 34.197 93.8384 33.1959 93.8384 32.0612C93.8384 30.5095 94.1452 29.0913 94.7601 27.8064C95.3738 26.505 96.2165 25.4788 97.288 24.7279C98.3731 23.9771 99.5796 23.6017 100.908 23.6017C101.893 23.6017 102.765 23.8437 103.522 24.3275C104.294 24.7948 104.885 25.4621 105.3 26.3298C105.729 27.1808 105.943 28.1818 105.943 29.3331C105.943 30.8849 105.629 32.3032 105 33.588C104.372 34.8727 103.514 35.8906 102.429 36.6414C101.344 37.3923 100.138 37.7677 98.8087 37.7677ZM99.0449 35.8405C99.973 35.8405 100.808 35.5485 101.551 34.9646C102.293 34.3638 102.872 33.5797 103.287 32.6119C103.715 31.6275 103.929 30.5762 103.929 29.4583C103.929 28.1902 103.615 27.2225 102.986 26.5551C102.357 25.871 101.573 25.5289 100.63 25.5289C99.7009 25.5289 98.873 25.8293 98.1443 26.4299C97.4166 27.0139 96.8513 27.7982 96.4517 28.7826C96.052 29.767 95.8526 30.8266 95.8526 31.9611C95.8526 33.1959 96.1522 34.1553 96.7522 34.8394C97.3523 35.5069 98.1158 35.8405 99.0449 35.8405Z" fill="white"/>
<path d="M30.4108 65.6367H27.1552L26.5551 67.5763H25.5269L28.2256 58.9041H29.3509L32.0391 67.5763H31.0108L30.4108 65.6367ZM30.1323 64.7107L28.7835 60.3057L27.4336 64.7107H30.1323ZM34.1904 58.316V67.5763H33.216V58.316H34.1904ZM35.4876 64.135C35.4876 63.426 35.6089 62.8086 35.8514 62.2829C36.0951 61.749 36.4304 61.336 36.8586 61.0441C37.2941 60.752 37.7909 60.606 38.3477 60.606C39.069 60.606 39.6617 60.8105 40.1257 61.2192C40.5972 61.628 40.9082 62.1954 41.058 62.9212H40.0076C39.9085 62.5039 39.7113 62.1744 39.4191 61.9325C39.1334 61.6906 38.7759 61.5696 38.3477 61.5696C37.7909 61.5696 37.3405 61.7949 36.9978 62.2453C36.6551 62.6878 36.4842 63.3173 36.4842 64.135C36.4842 64.961 36.6551 65.5992 36.9978 66.0496C37.3405 66.5001 37.7909 66.7255 38.3477 66.7255C38.7759 66.7255 39.1334 66.6085 39.4191 66.3751C39.7049 66.1417 39.9011 65.8076 40.0076 65.3739H41.058C40.9009 66.0748 40.5866 66.6378 40.1152 67.0633C39.6438 67.4807 39.0543 67.6891 38.3477 67.6891C37.7909 67.6891 37.2941 67.5432 36.8586 67.251C36.4304 66.9589 36.0951 66.5458 35.8514 66.0121C35.6089 65.4784 35.4876 64.8527 35.4876 64.135ZM41.9945 64.1225C41.9945 63.4217 42.1158 62.8086 42.3583 62.2829C42.6009 61.749 42.9331 61.336 43.3549 61.0441C43.7831 60.752 44.2587 60.606 44.7797 60.606C45.2933 60.606 45.7394 60.7354 46.119 60.994C46.4976 61.2526 46.7792 61.5779 46.9648 61.97V60.7186H47.9498V67.5763H46.9648V66.3C46.7718 66.7004 46.4829 67.0339 46.0969 67.3011C45.7183 67.5595 45.2764 67.6891 44.7692 67.6891C44.2482 67.6891 43.7768 67.5388 43.3549 67.2385C42.9331 66.9382 42.6009 66.5171 42.3583 65.9746C42.1158 65.4321 41.9945 64.8151 41.9945 64.1225ZM46.9648 64.135C46.9648 63.6176 46.8752 63.167 46.697 62.7835C46.5187 62.3997 46.2751 62.1077 45.9682 61.9075C45.6687 61.699 45.3365 61.5946 44.9727 61.5946C44.6078 61.5946 44.2756 61.6948 43.9761 61.8949C43.6766 62.0952 43.4372 62.3872 43.259 62.771C43.0797 63.1546 42.9911 63.605 42.9911 64.1225C42.9911 64.6481 43.0797 65.1067 43.259 65.4991C43.4372 65.8826 43.6766 66.1792 43.9761 66.3875C44.2756 66.5878 44.6078 66.6879 44.9727 66.6879C45.3365 66.6879 45.6687 66.5878 45.9682 66.3875C46.2751 66.1792 46.5187 65.8826 46.697 65.4991C46.8752 65.1067 46.9648 64.6524 46.9648 64.135ZM52.4582 60.5935C53.1722 60.5935 53.7501 60.848 54.1931 61.3568C54.636 61.8574 54.8575 62.5832 54.8575 63.5344V67.5763H53.8936V63.697C53.8936 63.0131 53.747 62.4915 53.4538 62.1327C53.1606 61.7657 52.7609 61.5822 52.2547 61.5822C51.7401 61.5822 51.3298 61.7699 51.0229 62.1453C50.7224 62.5207 50.5726 63.0669 50.5726 63.7846V67.5763H49.5982V60.7186H50.5726V61.6948C50.7656 61.3444 51.0261 61.0732 51.3541 60.8814C51.6894 60.6895 52.0575 60.5935 52.4582 60.5935ZM58.9451 66.7255C59.3733 66.7255 59.7308 66.6085 60.0166 66.3751C60.3024 66.1417 60.4985 65.8076 60.605 65.3739H61.6554C61.513 66.0247 61.2304 66.5584 60.8086 66.9757C60.3952 67.3844 59.8731 67.6183 59.2446 67.6765V68.3023C59.6664 68.2941 60.0018 68.3979 60.2517 68.615C60.5017 68.8322 60.6272 69.1407 60.6272 69.5411C60.6272 69.9334 60.5059 70.2463 60.2623 70.4797C60.0197 70.7131 59.7055 70.8301 59.3195 70.8301H58.0877V70.0917H59.1275C59.3627 70.0917 59.5346 70.0498 59.6411 69.9666C59.7561 69.8834 59.813 69.7413 59.813 69.5411C59.813 69.349 59.7561 69.2114 59.6411 69.1281C59.5346 69.0449 59.3627 69.003 59.1275 69.003H58.5918V67.664C58.0982 67.6059 57.6637 67.4262 57.2841 67.1259C56.9065 66.8174 56.6102 66.4082 56.3951 65.8995C56.1884 65.3821 56.085 64.7939 56.085 64.135C56.085 63.426 56.2063 62.8086 56.4489 62.2829C56.6925 61.749 57.0278 61.336 57.456 61.0441C57.8916 60.752 58.3883 60.606 58.9451 60.606C59.6664 60.606 60.2591 60.8105 60.7231 61.2192C61.1946 61.628 61.5046 62.1954 61.6554 62.9212H60.605C60.5059 62.5039 60.3087 62.1744 60.0166 61.9325C59.7308 61.6906 59.3733 61.5696 58.9451 61.5696C58.3883 61.5696 57.9379 61.7949 57.5952 62.2453C57.2525 62.6878 57.0806 63.3173 57.0806 64.135C57.0806 64.961 57.2525 65.5992 57.5952 66.0496C57.9379 66.5001 58.3883 66.7255 58.9451 66.7255ZM62.5919 64.1225C62.5919 63.4217 62.7132 62.8086 62.9557 62.2829C63.1983 61.749 63.5305 61.336 63.9523 61.0441C64.3805 60.752 64.8561 60.606 65.3771 60.606C65.8907 60.606 66.3368 60.7354 66.7154 60.994C67.0951 61.2526 67.3766 61.5779 67.5623 61.97V60.7186H68.5472V67.5763H67.5623V66.3C67.3693 66.7004 67.0803 67.0339 66.6943 67.3011C66.3157 67.5595 65.8738 67.6891 65.3666 67.6891C64.8445 67.6891 64.3742 67.5388 63.9523 67.2385C63.5305 66.9382 63.1983 66.5171 62.9557 65.9746C62.7132 65.4321 62.5919 64.8151 62.5919 64.1225ZM67.5623 64.135C67.5623 63.6176 67.4726 63.167 67.2944 62.7835C67.1161 62.3997 66.8725 62.1077 66.5656 61.9075C66.2661 61.699 65.9339 61.5946 65.5701 61.5946C65.2052 61.5946 64.873 61.6948 64.5735 61.8949C64.274 62.0952 64.0346 62.3872 63.8553 62.771C63.6771 63.1546 63.5885 63.605 63.5885 64.1225C63.5885 64.6481 63.6771 65.1067 63.8553 65.4991C64.0346 65.8826 64.274 66.1792 64.5735 66.3875C64.873 66.5878 65.2052 66.6879 65.5701 66.6879C65.9339 66.6879 66.2661 66.5878 66.5656 66.3875C66.8725 66.1792 67.1161 65.8826 67.2944 65.4991C67.4726 65.1067 67.5623 64.6524 67.5623 64.135ZM130.967 67.6891C130.417 67.6891 129.918 67.5432 129.467 67.251C129.024 66.9589 128.675 66.5458 128.418 66.0121C128.168 65.4696 128.043 64.844 128.043 64.135C128.043 63.4342 128.171 62.8167 128.429 62.2829C128.692 61.7406 129.05 61.3277 129.5 61.0441C129.949 60.752 130.453 60.606 131.01 60.606C131.567 60.606 132.07 60.752 132.52 61.0441C132.971 61.3277 133.324 61.7365 133.581 62.2704C133.845 62.8041 133.977 63.426 133.977 64.135C133.977 64.844 133.842 65.4696 133.57 66.0121C133.306 66.5458 132.945 66.9589 132.489 67.251C132.031 67.5432 131.524 67.6891 130.967 67.6891ZM130.967 66.6879C131.317 66.6879 131.646 66.5922 131.953 66.4001C132.26 66.208 132.506 65.9202 132.692 65.5366C132.884 65.153 132.981 64.6857 132.981 64.135C132.981 63.5843 132.888 63.117 132.703 62.7335C132.516 62.3497 132.274 62.066 131.974 61.8825C131.675 61.6906 131.349 61.5946 131 61.5946C130.642 61.5946 130.314 61.6906 130.014 61.8825C129.72 62.066 129.485 62.3497 129.307 62.7335C129.129 63.117 129.039 63.5843 129.039 64.135C129.039 64.6938 129.125 65.1655 129.296 65.5491C129.475 65.9326 129.71 66.2205 130.003 66.4126C130.296 66.5959 130.618 66.6879 130.967 66.6879ZM26.9728 80.6036C27.1436 80.2114 27.3872 79.9072 27.7015 79.6901C28.0221 79.473 28.4123 79.3648 28.8689 79.3648V80.5411H28.6116C27.519 80.5411 26.9728 81.2337 26.9728 82.6184V86.3476H25.9983V79.4898H26.9728V80.6036ZM35.3495 82.656C35.3495 82.8731 35.3389 83.102 35.3178 83.3442H30.6259C30.6617 84.02 30.8579 84.5499 31.2154 84.9336C31.5793 85.309 32.019 85.4967 32.5326 85.4967C32.9544 85.4967 33.3035 85.384 33.5819 85.1588C33.8677 84.9254 34.0681 84.6163 34.182 84.2327H35.2324C35.0753 84.8916 34.761 85.4297 34.2896 85.8471C33.8182 86.2556 33.2329 86.4603 32.5326 86.4603C31.9758 86.4603 31.4759 86.3144 31.033 86.0222C30.5974 85.7301 30.2547 85.3171 30.0047 84.7833C29.7548 84.2409 29.6293 83.6152 29.6293 82.9062C29.6293 82.1973 29.7516 81.5753 29.9942 81.0416C30.2367 80.5079 30.5763 80.0987 31.0119 79.8153C31.4548 79.5231 31.961 79.3772 32.5326 79.3772C33.0894 79.3772 33.583 79.5192 34.0112 79.8027C34.4393 80.0862 34.7673 80.4785 34.9962 80.979C35.2324 81.4715 35.3495 82.0302 35.3495 82.656ZM34.3434 82.4182C34.3434 81.9845 34.2611 81.6129 34.0966 81.3044C33.9321 80.9871 33.7074 80.7495 33.4216 80.5912C33.1432 80.424 32.8321 80.3408 32.4894 80.3408C31.9969 80.3408 31.5761 80.5241 31.226 80.8915C30.8832 81.2587 30.686 81.7674 30.6364 82.4182H34.3434ZM36.2722 82.9062C36.2722 82.1973 36.3935 81.5797 36.6361 81.0541C36.8797 80.5204 37.215 80.1074 37.6432 79.8153C38.0798 79.5231 38.5755 79.3772 39.1323 79.3772C39.8537 79.3772 40.4463 79.5819 40.9104 79.9904C41.3818 80.399 41.6929 80.9666 41.8426 81.6924H40.7922C40.6931 81.275 40.4959 80.9459 40.2038 80.7038C39.918 80.4616 39.5605 80.3408 39.1323 80.3408C38.5755 80.3408 38.1252 80.5661 37.7824 81.0165C37.4397 81.459 37.2688 82.0885 37.2688 82.9062C37.2688 83.7322 37.4397 84.3704 37.7824 84.8208C38.1252 85.2714 38.5755 85.4967 39.1323 85.4967C39.5605 85.4967 39.918 85.3796 40.2038 85.1463C40.4896 84.9129 40.6857 84.5787 40.7922 84.1451H41.8426C41.6855 84.8459 41.3712 85.409 40.8998 85.8345C40.4284 86.2519 39.8389 86.4603 39.1323 86.4603C38.5755 86.4603 38.0798 86.3144 37.6432 86.0222C37.215 85.7301 36.8797 85.3171 36.6361 84.7833C36.3935 84.2496 36.2722 83.6239 36.2722 82.9062ZM45.7035 86.4603C45.153 86.4603 44.6542 86.3144 44.2039 86.0222C43.7609 85.7301 43.4108 85.3171 43.1546 84.7833C42.9036 84.2409 42.7791 83.6152 42.7791 82.9062C42.7791 82.2055 42.9078 81.5879 43.1651 81.0541C43.4287 80.5117 43.7863 80.0987 44.2355 79.8153C44.6858 79.5231 45.1889 79.3772 45.7468 79.3772C46.3036 79.3772 46.8066 79.5231 47.257 79.8153C47.7062 80.0987 48.0606 80.5079 48.3168 81.0416C48.5815 81.5753 48.7134 82.1973 48.7134 82.9062C48.7134 83.6152 48.5773 84.2409 48.3063 84.7833C48.0416 85.3171 47.6809 85.7301 47.2243 86.0222C46.7676 86.3144 46.2603 86.4603 45.7035 86.4603ZM45.7035 85.4591C46.0536 85.4591 46.3816 85.3634 46.6885 85.1712C46.9954 84.9791 47.2422 84.6914 47.4278 84.3078C47.6208 83.9243 47.7178 83.4569 47.7178 82.9062C47.7178 82.3556 47.6239 81.8882 47.4383 81.5047C47.2527 81.1211 47.0102 80.837 46.7107 80.6537C46.4101 80.4616 46.0853 80.3658 45.7352 80.3658C45.3787 80.3658 45.0497 80.4616 44.7502 80.6537C44.457 80.837 44.2218 81.1211 44.0436 81.5047C43.8643 81.8882 43.7757 82.3556 43.7757 82.9062C43.7757 83.465 43.8611 83.9367 44.032 84.3203C44.2113 84.7039 44.4464 84.9917 44.7396 85.1838C45.0317 85.3671 45.3534 85.4591 45.7035 85.4591ZM52.8548 79.3648C53.5687 79.3648 54.1477 79.6194 54.5906 80.1281C55.0325 80.6287 55.255 81.3545 55.255 82.3056V86.3476H54.2911V82.4683C54.2911 81.7843 54.1435 81.2625 53.8514 80.9039C53.5582 80.5367 53.1585 80.3534 52.6512 80.3534C52.1376 80.3534 51.7264 80.5411 51.4195 80.9165C51.12 81.2919 50.9702 81.8381 50.9702 82.5558V86.3476H49.9947V79.4898H50.9702V80.466C51.1632 80.1156 51.4226 79.8447 51.7517 79.6525C52.087 79.4604 52.4551 79.3648 52.8548 79.3648ZM59.7603 79.3648C60.2032 79.3648 60.6029 79.4774 60.9604 79.7026C61.3169 79.9197 61.5953 80.2489 61.7957 80.6912C62.0024 81.1336 62.1068 81.6717 62.1068 82.3056V86.3476H61.1429V82.4683C61.1429 81.7843 60.9952 81.2625 60.7031 80.9039C60.4099 80.5367 60.0102 80.3534 59.504 80.3534C58.9894 80.3534 58.5781 80.5411 58.2712 80.9165C57.9717 81.2919 57.8219 81.8381 57.8219 82.5558V86.3476H56.8475V77.0872H57.8219V80.466C58.0149 80.1156 58.2786 79.8447 58.6139 79.6525C58.9577 79.4604 59.3395 79.3648 59.7603 79.3648ZM69.0545 82.656C69.0545 82.8731 69.0439 83.102 69.0229 83.3442H64.3309C64.3657 84.02 64.563 84.5499 64.9205 84.9336C65.2843 85.309 65.723 85.4967 66.2377 85.4967C66.6584 85.4967 67.0086 85.384 67.287 85.1588C67.5728 84.9254 67.7721 84.6163 67.8871 84.2327H68.9374C68.7792 84.8916 68.466 85.4297 67.9946 85.8471C67.5232 86.2556 66.9369 86.4603 66.2377 86.4603C65.6808 86.4603 65.1799 86.3144 64.738 86.0222C64.3014 85.7301 63.9587 85.3171 63.7098 84.7833C63.4598 84.2409 63.3344 83.6152 63.3344 82.9062C63.3344 82.1973 63.4556 81.5753 63.6992 81.0416C63.9418 80.5079 64.2803 80.0987 64.7169 79.8153C65.1588 79.5231 65.6661 79.3772 66.2377 79.3772C66.7945 79.3772 67.287 79.5192 67.7162 79.8027C68.1444 80.0862 68.4724 80.4785 68.7012 80.979C68.9374 81.4715 69.0545 82.0302 69.0545 82.656ZM68.0474 82.4182C68.0474 81.9845 67.9651 81.6129 67.8016 81.3044C67.6371 80.9871 67.4125 80.7495 67.1267 80.5912C66.8483 80.424 66.5371 80.3408 66.1944 80.3408C65.7019 80.3408 65.2801 80.5241 64.931 80.8915C64.5882 81.2587 64.391 81.7674 64.3415 82.4182H68.0474ZM69.9773 82.9062C69.9773 82.1973 70.0985 81.5797 70.3411 81.0541C70.5837 80.5204 70.9201 80.1074 71.3483 79.8153C71.7838 79.5231 72.2805 79.3772 72.8373 79.3772C73.5587 79.3772 74.1514 79.5819 74.6154 79.9904C75.0868 80.399 75.3969 80.9666 75.5477 81.6924H74.4973C74.3971 81.275 74.2009 80.9459 73.9088 80.7038C73.623 80.4616 73.2655 80.3408 72.8373 80.3408C72.2805 80.3408 71.8302 80.5661 71.4875 81.0165C71.1447 81.459 70.9728 82.0885 70.9728 82.9062C70.9728 83.7322 71.1447 84.3704 71.4875 84.8208C71.8302 85.2714 72.2805 85.4967 72.8373 85.4967C73.2655 85.4967 73.623 85.3796 73.9088 85.1463C74.1936 84.9129 74.3908 84.5787 74.4973 84.1451H75.5477C75.3905 84.8459 75.0763 85.409 74.6049 85.8345C74.1334 86.2519 73.5439 86.4603 72.8373 86.4603C72.2805 86.4603 71.7838 86.3144 71.3483 86.0222C70.9201 85.7301 70.5837 85.3171 70.3411 84.7833C70.0985 84.2496 69.9773 83.6239 69.9773 82.9062ZM77.351 78.3761C77.1654 78.3761 77.0083 78.301 76.8796 78.1508C76.751 78.0007 76.6866 77.8174 76.6866 77.6002C76.6866 77.3831 76.751 77.1998 76.8796 77.0496C77.0083 76.8995 77.1654 76.8244 77.351 76.8244C77.5303 76.8244 77.6801 76.8995 77.8014 77.0496C77.93 77.1998 77.9933 77.3831 77.9933 77.6002C77.9933 77.8174 77.93 78.0007 77.8014 78.1508C77.6801 78.301 77.5303 78.3761 77.351 78.3761ZM77.8224 79.4898V86.3476H76.848V79.4898H77.8224ZM86.5429 79.3648C87.0006 79.3648 87.4077 79.4774 87.7642 79.7026C88.1217 79.9197 88.4033 80.2489 88.61 80.6912C88.8177 81.1336 88.9211 81.6717 88.9211 82.3056V86.3476H87.9572V82.4683C87.9572 81.7843 87.8106 81.2625 87.5174 80.9039C87.2327 80.5367 86.8424 80.3534 86.3499 80.3534C85.8437 80.3534 85.4398 80.5455 85.1393 80.929C84.8398 81.3044 84.69 81.8507 84.69 82.5683V86.3476H83.7261V82.4683C83.7261 81.7843 83.5795 81.2625 83.2863 80.9039C83.0016 80.5367 82.6114 80.3534 82.1189 80.3534C81.6127 80.3534 81.2088 80.5455 80.9082 80.929C80.6087 81.3044 80.4589 81.8507 80.4589 82.5683V86.3476H79.4834V79.4898H80.4589V80.4784C80.6519 80.12 80.9082 79.8447 81.2299 79.6525C81.5589 79.4604 81.9196 79.3648 82.3119 79.3648C82.8044 79.3648 83.241 79.4942 83.6185 79.7526C83.9971 80.0111 84.2798 80.3909 84.4654 80.8915C84.6288 80.4078 84.9009 80.0324 85.2785 79.7652C85.6581 79.498 86.0789 79.3648 86.5429 79.3648ZM95.8762 82.656C95.8762 82.8731 95.8656 83.102 95.8445 83.3442H91.1526C91.1874 84.02 91.3846 84.5499 91.7411 84.9336C92.1059 85.309 92.5447 85.4967 93.0593 85.4967C93.4801 85.4967 93.8302 85.384 94.1087 85.1588C94.3945 84.9254 94.5938 84.6163 94.7087 84.2327H95.7581C95.6009 84.8916 95.2866 85.4297 94.8152 85.8471C94.3449 86.2556 93.7585 86.4603 93.0593 86.4603C92.5025 86.4603 92.0015 86.3144 91.5597 86.0222C91.1231 85.7301 90.7803 85.3171 90.5315 84.7833C90.2805 84.2409 90.156 83.6152 90.156 82.9062C90.156 82.1973 90.2773 81.5753 90.5198 81.0416C90.7624 80.5079 91.102 80.0987 91.5375 79.8153C91.9805 79.5231 92.4877 79.3772 93.0593 79.3772C93.6161 79.3772 94.1086 79.5192 94.5368 79.8027C94.966 80.0862 95.294 80.4785 95.5229 80.979C95.7581 81.4715 95.8762 82.0302 95.8762 82.656ZM94.869 82.4182C94.869 81.9845 94.7867 81.6129 94.6233 81.3044C94.4588 80.9871 94.2331 80.7495 93.9484 80.5912C93.6699 80.424 93.3588 80.3408 93.0161 80.3408C92.5236 80.3408 92.1017 80.5241 91.7516 80.8915C91.4089 81.2587 91.2127 81.7674 91.1632 82.4182H94.869ZM100.023 79.3648C100.737 79.3648 101.315 79.6194 101.758 80.1281C102.201 80.6287 102.422 81.3545 102.422 82.3056V86.3476H101.458V82.4683C101.458 81.7843 101.312 81.2625 101.019 80.9039C100.726 80.5367 100.327 80.3534 99.8193 80.3534C99.3047 80.3534 98.8944 80.5411 98.5875 80.9165C98.287 81.2919 98.1372 81.8381 98.1372 82.5558V86.3476H97.1628V79.4898H98.1372V80.466C98.3302 80.1156 98.5907 79.8447 98.9197 79.6525C99.2551 79.4604 99.6232 79.3648 100.023 79.3648ZM105.203 80.4284V84.4705C105.203 84.804 105.264 85.0418 105.386 85.1838C105.507 85.3171 105.718 85.3841 106.017 85.3841H106.735V86.3476H105.857C105.315 86.3476 104.908 86.2018 104.636 85.9096C104.365 85.6174 104.229 85.1381 104.229 84.4705V80.4284H103.468V79.4898H104.229V77.7629H105.203V79.4898H106.735V80.4284H105.203ZM110.476 86.4603C109.927 86.4603 109.427 86.3144 108.976 86.0222C108.535 85.7301 108.184 85.3171 107.927 84.7833C107.677 84.2409 107.552 83.6152 107.552 82.9062C107.552 82.2055 107.68 81.5879 107.938 81.0541C108.202 80.5117 108.559 80.0987 109.009 79.8153C109.458 79.5231 109.962 79.3772 110.519 79.3772C111.076 79.3772 111.58 79.5231 112.029 79.8153C112.48 80.0987 112.833 80.5079 113.09 81.0416C113.355 81.5753 113.487 82.1973 113.487 82.9062C113.487 83.6152 113.351 84.2409 113.08 84.7833C112.815 85.3171 112.454 85.7301 111.998 86.0222C111.541 86.3144 111.034 86.4603 110.476 86.4603ZM110.476 85.4591C110.827 85.4591 111.155 85.3634 111.462 85.1712C111.769 84.9791 112.016 84.6914 112.201 84.3078C112.394 83.9243 112.49 83.4569 112.49 82.9062C112.49 82.3556 112.398 81.8882 112.212 81.5047C112.026 81.1211 111.784 80.837 111.483 80.6537C111.184 80.4616 110.859 80.3658 110.509 80.3658C110.152 80.3658 109.823 80.4616 109.523 80.6537C109.231 80.837 108.995 81.1211 108.816 81.5047C108.638 81.8882 108.548 82.3556 108.548 82.9062C108.548 83.465 108.634 83.9367 108.806 84.3203C108.984 84.7039 109.22 84.9917 109.512 85.1838C109.805 85.3671 110.127 85.4591 110.476 85.4591ZM28.8584 98.136C29.5723 98.136 30.1503 98.3906 30.5932 98.8993C31.0361 99.3999 31.2576 100.126 31.2576 101.077V105.119H30.2937V101.239C30.2937 100.556 30.1471 100.034 29.8539 99.6752C29.5607 99.3078 29.1621 99.1246 28.6548 99.1246C28.1402 99.1246 27.73 99.3123 27.4231 99.6877C27.1225 100.063 26.9728 100.609 26.9728 101.327V105.119H25.9983V98.261H26.9728V99.2372C27.1658 98.8868 27.4262 98.6158 27.7542 98.4237C28.0906 98.2316 28.4576 98.136 28.8584 98.136ZM32.4852 101.665C32.4852 100.964 32.6075 100.351 32.8501 99.8254C33.0926 99.2916 33.4248 98.8786 33.8456 98.5864C34.2748 98.2943 34.7494 98.1484 35.2704 98.1484C35.785 98.1484 36.2311 98.278 36.6097 98.5364C36.9883 98.7948 37.2699 99.1201 37.4555 99.5125V98.261H38.4415V105.119H37.4555V103.842C37.2635 104.243 36.9735 104.576 36.5886 104.844C36.21 105.102 35.7671 105.231 35.2598 105.231C34.7388 105.231 34.2674 105.081 33.8456 104.781C33.4248 104.481 33.0926 104.059 32.8501 103.517C32.6075 102.975 32.4852 102.358 32.4852 101.665ZM37.4555 101.677C37.4555 101.16 37.3669 100.709 37.1876 100.326C37.0094 99.9424 36.7668 99.6501 36.4599 99.45C36.1594 99.2416 35.8272 99.1371 35.4633 99.1371C35.0995 99.1371 34.7673 99.2372 34.4667 99.4374C34.1672 99.6377 33.9279 99.9299 33.7496 100.313C33.5714 100.697 33.4818 101.147 33.4818 101.665C33.4818 102.19 33.5714 102.649 33.7496 103.041C33.9279 103.425 34.1672 103.722 34.4667 103.93C34.7673 104.13 35.0995 104.23 35.4633 104.23C35.8272 104.23 36.1594 104.13 36.4599 103.93C36.7668 103.722 37.0094 103.425 37.1876 103.041C37.3669 102.649 37.4555 102.195 37.4555 101.677ZM39.725 101.677C39.725 100.969 39.8452 100.351 40.0888 99.8254C40.3314 99.2916 40.6678 98.8786 41.096 98.5864C41.5315 98.2943 42.0272 98.1484 42.5851 98.1484C43.3054 98.1484 43.898 98.3531 44.3631 98.7616C44.8345 99.1702 45.1446 99.7377 45.2943 100.464H44.245C44.1448 100.046 43.9487 99.7171 43.6555 99.475C43.3697 99.2328 43.0132 99.112 42.5851 99.112C42.0272 99.112 41.5779 99.3372 41.2352 99.7878C40.8924 100.23 40.7205 100.86 40.7205 101.677C40.7205 102.503 40.8924 103.142 41.2352 103.592C41.5779 104.043 42.0272 104.268 42.5851 104.268C43.0132 104.268 43.3697 104.151 43.6555 103.917C43.9413 103.684 44.1374 103.35 44.245 102.916H45.2943C45.1372 103.617 44.824 104.18 44.3526 104.606C43.8812 105.023 43.2916 105.231 42.5851 105.231C42.0272 105.231 41.5315 105.086 41.096 104.793C40.6678 104.501 40.3314 104.088 40.0888 103.555C39.8452 103.021 39.725 102.395 39.725 101.677ZM47.0988 97.1473C46.9132 97.1473 46.756 97.0722 46.6274 96.922C46.4987 96.7719 46.4344 96.5886 46.4344 96.3715C46.4344 96.1544 46.4987 95.971 46.6274 95.8208C46.756 95.6707 46.9132 95.5956 47.0988 95.5956C47.277 95.5956 47.4267 95.6707 47.5491 95.8208C47.6767 95.971 47.741 96.1544 47.741 96.3715C47.741 96.5886 47.6767 96.7719 47.5491 96.922C47.4267 97.0722 47.277 97.1473 47.0988 97.1473ZM47.5702 98.261V105.119H46.5957V98.261H47.5702ZM51.7917 105.231C51.2412 105.231 50.7414 105.086 50.2921 104.793C49.8492 104.501 49.499 104.088 49.2417 103.555C48.9918 103.012 48.8673 102.386 48.8673 101.677C48.8673 100.977 48.996 100.359 49.2533 99.8254C49.517 99.2829 49.8745 98.8699 50.3237 98.5864C50.774 98.2943 51.2771 98.1484 51.8339 98.1484C52.3918 98.1484 52.8948 98.2943 53.3452 98.5864C53.7944 98.8699 54.1477 99.2791 54.405 99.8128C54.6697 100.347 54.8016 100.969 54.8016 101.677C54.8016 102.386 54.6666 103.012 54.3945 103.555C54.1308 104.088 53.7691 104.501 53.3125 104.793C52.8558 105.086 52.3486 105.231 51.7917 105.231ZM51.7917 104.23C52.1408 104.23 52.4698 104.135 52.7767 103.943C53.0836 103.75 53.3304 103.463 53.516 103.079C53.709 102.695 53.805 102.228 53.805 101.677C53.805 101.127 53.7132 100.659 53.5265 100.276C53.3409 99.8923 53.0984 99.6083 52.7989 99.4249C52.4983 99.2328 52.1735 99.1371 51.8234 99.1371C51.4669 99.1371 51.1379 99.2328 50.8384 99.4249C50.5452 99.6083 50.31 99.8923 50.1307 100.276C49.9525 100.659 49.8639 101.127 49.8639 101.677C49.8639 102.236 49.9493 102.708 50.1202 103.092C50.2984 103.475 50.5347 103.763 50.8278 103.955C51.12 104.138 51.4416 104.23 51.7917 104.23ZM58.943 98.136C59.657 98.136 60.2359 98.3906 60.6789 98.8993C61.1218 99.3999 61.3433 100.126 61.3433 101.077V105.119H60.3783V101.239C60.3783 100.556 60.2327 100.034 59.9396 99.6752C59.6464 99.3078 59.2467 99.1246 58.7394 99.1246C58.2258 99.1246 57.8146 99.3123 57.5077 99.6877C57.2082 100.063 57.0584 100.609 57.0584 101.327V105.119H56.0829V98.261H57.0584V99.2372C57.2504 98.8868 57.5119 98.6158 57.8399 98.4237C58.1763 98.2316 58.5433 98.136 58.943 98.136ZM62.5708 101.665C62.5708 100.964 62.6921 100.351 62.9347 99.8254C63.1772 99.2916 63.5094 98.8786 63.9312 98.5864C64.3594 98.2943 64.835 98.1484 65.356 98.1484C65.8707 98.1484 66.3167 98.278 66.6953 98.5364C67.0739 98.7948 67.3555 99.1201 67.5411 99.5125V98.261H68.5272V105.119H67.5411V103.842C67.3481 104.243 67.0592 104.576 66.6732 104.844C66.2946 105.102 65.8527 105.231 65.3455 105.231C64.8245 105.231 64.3531 105.081 63.9312 104.781C63.5094 104.481 63.1772 104.059 62.9347 103.517C62.6921 102.975 62.5708 102.358 62.5708 101.665ZM67.5411 101.677C67.5411 101.16 67.4515 100.709 67.2733 100.326C67.095 99.9424 66.8514 99.6501 66.5445 99.45C66.245 99.2416 65.9128 99.1371 65.549 99.1371C65.1841 99.1371 64.853 99.2372 64.5524 99.4374C64.2529 99.6377 64.0135 99.9299 63.8353 100.313C63.657 100.697 63.5674 101.147 63.5674 101.665C63.5674 102.19 63.657 102.649 63.8353 103.041C64.0135 103.425 64.2529 103.722 64.5524 103.93C64.853 104.13 65.1841 104.23 65.549 104.23C65.9128 104.23 66.245 104.13 66.5445 103.93C66.8514 103.722 67.095 103.425 67.2733 103.041C67.4515 102.649 67.5411 102.195 67.5411 101.677ZM71.1489 95.8584V105.119H70.1734V95.8584H71.1489ZM82.584 101.427C82.584 101.644 82.5734 101.873 82.5523 102.115H77.8604C77.8963 102.791 78.0924 103.321 78.4499 103.705C78.8138 104.08 79.2525 104.268 79.7671 104.268C80.189 104.268 80.5381 104.155 80.8165 103.93C81.1033 103.697 81.3026 103.387 81.4165 103.004H82.4669C82.3098 103.663 81.9955 104.201 81.5241 104.618C81.0527 105.027 80.4674 105.231 79.7671 105.231C79.2103 105.231 78.7104 105.086 78.2675 104.793C77.832 104.501 77.4892 104.088 77.2393 103.555C76.9893 103.012 76.8638 102.386 76.8638 101.677C76.8638 100.969 76.9861 100.347 77.2287 99.8128C77.4713 99.2791 77.8108 98.8699 78.2464 98.5864C78.6893 98.2943 79.1966 98.1484 79.7671 98.1484C80.324 98.1484 80.8164 98.2905 81.2457 98.5739C81.6738 98.8574 82.0029 99.2497 82.2307 99.7503C82.4669 100.243 82.584 100.801 82.584 101.427ZM81.5779 101.189C81.5779 100.756 81.4956 100.384 81.3311 100.076C81.1677 99.7584 80.942 99.5206 80.6562 99.3623C80.3777 99.1952 80.0666 99.112 79.7239 99.112C79.2314 99.112 78.8106 99.2954 78.4605 99.6627C78.1177 100.03 77.9216 100.539 77.871 101.189H81.5779ZM93.6457 101.427C93.6457 101.644 93.6351 101.873 93.614 102.115H88.9221C88.9569 102.791 89.1541 103.321 89.5116 103.705C89.8755 104.08 90.3142 104.268 90.8288 104.268C91.2496 104.268 91.5997 104.155 91.8782 103.93C92.164 103.697 92.3633 103.387 92.4782 103.004H93.5286C93.3704 103.663 93.0572 104.201 92.5858 104.618C92.1144 105.027 91.528 105.231 90.8288 105.231C90.272 105.231 89.7711 105.086 89.3292 104.793C88.8936 104.501 88.5498 104.088 88.301 103.555C88.051 103.012 87.9255 102.386 87.9255 101.677C87.9255 100.969 88.0468 100.347 88.2904 99.8128C88.533 99.2791 88.8715 98.8699 89.3081 98.5864C89.75 98.2943 90.2572 98.1484 90.8288 98.1484C91.3857 98.1484 91.8782 98.2905 92.3074 98.5739C92.7356 98.8574 93.0635 99.2497 93.2924 99.7503C93.5286 100.243 93.6457 100.801 93.6457 101.427ZM92.6396 101.189C92.6396 100.756 92.5563 100.384 92.3928 100.076C92.2283 99.7584 92.0037 99.5206 91.7179 99.3623C91.4395 99.1952 91.1284 99.112 90.7856 99.112C90.2931 99.112 89.8713 99.2954 89.5222 99.6627C89.1795 100.03 88.9822 100.539 88.9327 101.189H92.6396ZM97.9959 105.119L96.6038 102.566L95.2645 105.119H94.2468L96.143 101.715L94.2468 98.261H95.3499L96.743 100.801L98.0708 98.261H99.0885L97.2039 101.652L99.099 105.119H97.9959ZM101.033 99.5251C101.226 99.1327 101.512 98.8073 101.889 98.5489C102.275 98.2817 102.723 98.1484 103.229 98.1484C103.751 98.1484 104.222 98.2943 104.643 98.5864C105.071 98.8786 105.407 99.2916 105.65 99.8254C105.893 100.351 106.014 100.964 106.014 101.665C106.014 102.358 105.893 102.975 105.65 103.517C105.407 104.059 105.071 104.481 104.643 104.781C104.222 105.081 103.751 105.231 103.229 105.231C102.729 105.231 102.286 105.102 101.9 104.844C101.523 104.576 101.234 104.247 101.033 103.855V108.372H100.058V98.261H101.033V99.5251ZM105.017 101.665C105.017 101.147 104.929 100.697 104.75 100.313C104.571 99.9299 104.329 99.6377 104.022 99.4374C103.721 99.2372 103.389 99.1371 103.025 99.1371C102.669 99.1371 102.337 99.2416 102.029 99.45C101.729 99.6501 101.487 99.9461 101.301 100.338C101.123 100.722 101.033 101.169 101.033 101.677C101.033 102.195 101.123 102.649 101.301 103.041C101.487 103.425 101.729 103.722 102.029 103.93C102.337 104.13 102.669 104.23 103.025 104.23C103.389 104.23 103.721 104.13 104.022 103.93C104.329 103.722 104.571 103.425 104.75 103.041C104.929 102.649 105.017 102.19 105.017 101.665ZM106.933 101.665C106.933 100.964 107.055 100.351 107.297 99.8254C107.54 99.2916 107.872 98.8786 108.293 98.5864C108.722 98.2943 109.197 98.1484 109.718 98.1484C110.232 98.1484 110.679 98.278 111.057 98.5364C111.436 98.7948 111.717 99.1201 111.903 99.5125V98.261H112.889V105.119H111.903V103.842C111.71 104.243 111.421 104.576 111.036 104.844C110.657 105.102 110.215 105.231 109.707 105.231C109.186 105.231 108.715 105.081 108.293 104.781C107.872 104.481 107.54 104.059 107.297 103.517C107.055 102.975 106.933 102.358 106.933 101.665ZM111.903 101.677C111.903 101.16 111.814 100.709 111.635 100.326C111.457 99.9424 111.214 99.6501 110.907 99.45C110.607 99.2416 110.275 99.1371 109.911 99.1371C109.547 99.1371 109.215 99.2372 108.914 99.4374C108.615 99.6377 108.375 99.9299 108.197 100.313C108.019 100.697 107.929 101.147 107.929 101.665C107.929 102.19 108.019 102.649 108.197 103.041C108.375 103.425 108.615 103.722 108.914 103.93C109.215 104.13 109.547 104.23 109.911 104.23C110.275 104.23 110.607 104.13 110.907 103.93C111.214 103.722 111.457 103.425 111.635 103.041C111.814 102.649 111.903 102.195 111.903 101.677ZM117.396 98.136C118.11 98.136 118.688 98.3906 119.131 98.8993C119.574 99.3999 119.796 100.126 119.796 101.077V105.119H118.832V101.239C118.832 100.556 118.685 100.034 118.393 99.6752C118.1 99.3078 117.699 99.1246 117.193 99.1246C116.678 99.1246 116.268 99.3123 115.961 99.6877C115.66 100.063 115.511 100.609 115.511 101.327V105.119H114.536V98.261H115.511V99.2372C115.704 98.8868 115.964 98.6158 116.293 98.4237C116.629 98.2316 116.997 98.136 117.396 98.136ZM121.024 101.665C121.024 100.964 121.145 100.351 121.388 99.8254C121.631 99.2916 121.963 98.8786 122.385 98.5864C122.813 98.2943 123.292 98.1484 123.82 98.1484C124.277 98.1484 124.702 98.2736 125.094 98.5239C125.487 98.766 125.787 99.087 125.995 99.4875V95.8584H126.979V105.119H125.995V103.83C125.802 104.238 125.516 104.576 125.137 104.844C124.759 105.102 124.316 105.231 123.809 105.231C123.287 105.231 122.813 105.081 122.385 104.781C121.963 104.481 121.631 104.059 121.388 103.517C121.145 102.975 121.024 102.358 121.024 101.665ZM125.995 101.677C125.995 101.16 125.905 100.709 125.727 100.326C125.547 99.9424 125.305 99.6501 124.998 99.45C124.698 99.2416 124.366 99.1371 124.001 99.1371C123.637 99.1371 123.305 99.2372 123.006 99.4374C122.705 99.6377 122.466 99.9299 122.288 100.313C122.109 100.697 122.02 101.147 122.02 101.665C122.02 102.19 122.109 102.649 122.288 103.041C122.466 103.425 122.705 103.722 123.006 103.93C123.305 104.13 123.637 104.23 124.001 104.23C124.366 104.23 124.698 104.13 124.998 103.93C125.305 103.722 125.547 103.425 125.727 103.041C125.905 102.649 125.995 102.195 125.995 101.677ZM129.13 97.1473C128.945 97.1473 128.787 97.0722 128.658 96.922C128.53 96.7719 128.465 96.5886 128.465 96.3715C128.465 96.1544 128.53 95.971 128.658 95.8208C128.787 95.6707 128.945 95.5956 129.13 95.5956C129.309 95.5956 129.459 95.6707 129.58 95.8208C129.709 95.971 129.773 96.1544 129.773 96.3715C129.773 96.5886 129.709 96.7719 129.58 96.922C129.459 97.0722 129.309 97.1473 129.13 97.1473ZM129.601 98.261V105.119H128.627V98.261H129.601ZM132.238 99.3749C132.409 98.9825 132.651 98.6784 132.966 98.4613C133.287 98.2442 133.676 98.136 134.134 98.136V99.3123H133.877C132.784 99.3123 132.238 100.005 132.238 101.39V105.119H131.263V98.261H132.238V99.3749ZM28.8584 116.907C29.5723 116.907 30.1503 117.162 30.5932 117.671C31.0361 118.172 31.2576 118.897 31.2576 119.848V123.89H30.2937V120.011C30.2937 119.327 30.1471 118.805 29.8539 118.446C29.5607 118.079 29.1621 117.896 28.6548 117.896C28.1402 117.896 27.73 118.083 27.4231 118.459C27.1225 118.834 26.9728 119.38 26.9728 120.098V123.89H25.9983V117.032H26.9728V118.009C27.1658 117.658 27.4262 117.387 27.7542 117.195C28.0906 117.002 28.4576 116.907 28.8584 116.907ZM35.4096 124.003C34.8601 124.003 34.3602 123.857 33.9099 123.565C33.467 123.272 33.1179 122.859 32.8606 122.326C32.6107 121.783 32.4852 121.158 32.4852 120.449C32.4852 119.748 32.6138 119.13 32.8711 118.597C33.1348 118.054 33.4923 117.641 33.9426 117.357C34.3919 117.066 34.896 116.92 35.4528 116.92C36.0096 116.92 36.5137 117.066 36.963 117.357C37.4133 117.641 37.7666 118.051 38.0239 118.584C38.2876 119.118 38.4205 119.74 38.4205 120.449C38.4205 121.158 38.2844 121.783 38.0134 122.326C37.7487 122.859 37.388 123.272 36.9314 123.565C36.4737 123.857 35.9675 124.003 35.4096 124.003ZM35.4096 123.002C35.7597 123.002 36.0887 122.906 36.3956 122.714C36.7025 122.521 36.9482 122.234 37.1349 121.85C37.3268 121.466 37.4238 120.999 37.4238 120.449C37.4238 119.898 37.331 119.431 37.1454 119.047C36.9598 118.663 36.7173 118.38 36.4167 118.196C36.1172 118.004 35.7913 117.908 35.4423 117.908C35.0847 117.908 34.7568 118.004 34.4562 118.196C34.1641 118.38 33.9279 118.663 33.7496 119.047C33.5714 119.431 33.4818 119.898 33.4818 120.449C33.4818 121.007 33.5672 121.479 33.7391 121.862C33.9173 122.247 34.1525 122.534 34.4457 122.726C34.7388 122.909 35.0605 123.002 35.4096 123.002ZM41.8869 122.839L43.7082 117.032H44.747L42.4438 123.89H41.3079L39.0057 117.032H40.0551L41.8869 122.839ZM45.3418 120.436C45.3418 119.735 45.4631 119.122 45.7056 118.597C45.9493 118.063 46.2804 117.65 46.7022 117.357C47.1304 117.066 47.606 116.92 48.127 116.92C48.6416 116.92 49.0877 117.049 49.4663 117.308C49.8449 117.565 50.1265 117.891 50.3121 118.283V117.032H51.2982V123.89H50.3121V122.614C50.1191 123.014 49.8302 123.348 49.4442 123.615C49.0656 123.873 48.6237 124.003 48.1165 124.003C47.5955 124.003 47.1241 123.852 46.7022 123.553C46.2804 123.252 45.9493 122.831 45.7056 122.288C45.4631 121.746 45.3418 121.128 45.3418 120.436ZM50.3121 120.449C50.3121 119.931 50.2225 119.481 50.0443 119.098C49.866 118.713 49.6224 118.421 49.3155 118.221C49.016 118.013 48.6838 117.908 48.32 117.908C47.9561 117.908 47.624 118.009 47.3234 118.209C47.0239 118.409 46.7845 118.701 46.6063 119.085C46.428 119.468 46.3384 119.918 46.3384 120.436C46.3384 120.962 46.428 121.42 46.6063 121.812C46.7845 122.196 47.0239 122.493 47.3234 122.701C47.624 122.901 47.9561 123.002 48.32 123.002C48.6838 123.002 49.016 122.901 49.3155 122.701C49.6224 122.493 49.866 122.196 50.0443 121.812C50.2225 121.42 50.3121 120.967 50.3121 120.449ZM55.023 124.003C54.5738 124.003 54.1699 123.916 53.8124 123.74C53.4559 123.556 53.1733 123.306 52.9666 122.99C52.7599 122.664 52.6449 122.293 52.6238 121.876H53.631C53.6594 122.217 53.7944 122.497 54.038 122.714C54.2869 122.931 54.6128 123.039 55.0125 123.039C55.3837 123.039 55.6769 122.943 55.891 122.751C56.105 122.559 56.2126 122.318 56.2126 122.025C56.2126 121.725 56.0977 121.504 55.8699 121.362C55.641 121.212 55.2877 121.066 54.8089 120.924C54.3734 120.791 54.0159 120.657 53.7375 120.523C53.4664 120.382 53.2302 120.177 53.0309 119.911C52.8379 119.635 52.7419 119.276 52.7419 118.834C52.7419 118.484 52.8305 118.162 53.0098 117.871C53.188 117.579 53.4411 117.349 53.7702 117.182C54.0981 117.007 54.4736 116.92 54.8944 116.92C55.544 116.92 56.0692 117.112 56.4699 117.495C56.8686 117.879 57.0837 118.404 57.1122 119.072H56.1378C56.1156 118.713 55.9901 118.426 55.7623 118.209C55.5408 117.992 55.2403 117.883 54.8627 117.883C54.5126 117.883 54.2342 117.971 54.0275 118.146C53.8197 118.321 53.7164 118.551 53.7164 118.834C53.7164 119.059 53.7765 119.247 53.8988 119.397C54.0275 119.54 54.1836 119.656 54.3702 119.748C54.5632 119.831 54.8269 119.928 55.1622 120.036C55.5841 120.17 55.9268 120.303 56.1905 120.436C56.4552 120.561 56.6798 120.753 56.8654 121.012C57.0584 121.27 57.1586 121.608 57.166 122.025C57.166 122.4 57.0763 122.739 56.8981 123.039C56.7188 123.339 56.4657 123.577 56.1378 123.753C55.8161 123.919 55.4438 124.003 55.023 124.003ZM76.9967 117.971H75.7649V123.89H74.7905V117.971H74.0301V117.032H74.7905V116.544C74.7905 115.777 74.9582 115.218 75.2935 114.868C75.6363 114.509 76.1825 114.329 76.9324 114.329V115.28C76.5042 115.28 76.2005 115.381 76.0222 115.581C75.8514 115.773 75.7649 116.093 75.7649 116.544V117.032H76.9967V117.971ZM78.6366 115.918C78.451 115.918 78.2939 115.843 78.1663 115.693C78.0376 115.543 77.9732 115.359 77.9732 115.142C77.9732 114.925 78.0376 114.742 78.1663 114.592C78.2939 114.442 78.451 114.367 78.6366 114.367C78.8159 114.367 78.9656 114.442 79.0869 114.592C79.2156 114.742 79.2799 114.925 79.2799 115.142C79.2799 115.359 79.2156 115.543 79.0869 115.693C78.9656 115.843 78.8159 115.918 78.6366 115.918ZM79.108 117.032V123.89H78.1336V117.032H79.108ZM81.7445 114.63V123.89H80.7701V114.63H81.7445ZM83.9096 115.918C83.724 115.918 83.5669 115.843 83.4382 115.693C83.3095 115.543 83.2452 115.359 83.2452 115.142C83.2452 114.925 83.3095 114.742 83.4382 114.592C83.5669 114.442 83.724 114.367 83.9096 114.367C84.0878 114.367 84.2376 114.442 84.3589 114.592C84.4875 114.742 84.5519 114.925 84.5519 115.142C84.5519 115.359 84.4875 115.543 84.3589 115.693C84.2376 115.843 84.0878 115.918 83.9096 115.918ZM84.381 117.032V123.89H83.4055V117.032H84.381ZM85.6771 120.436C85.6771 119.735 85.7994 119.122 86.042 118.597C86.2846 118.063 86.6168 117.65 87.0375 117.357C87.4668 117.066 87.9414 116.92 88.4623 116.92C88.977 116.92 89.4231 117.049 89.8017 117.308C90.1803 117.565 90.4629 117.891 90.6474 118.283V117.032H91.6335V123.89H90.6474V122.614C90.4545 123.014 90.1655 123.348 89.7806 123.615C89.402 123.873 88.959 124.003 88.4518 124.003C87.9308 124.003 87.4594 123.852 87.0375 123.553C86.6168 123.252 86.2846 122.831 86.042 122.288C85.7994 121.746 85.6771 121.128 85.6771 120.436ZM90.6474 120.449C90.6474 119.931 90.5589 119.481 90.3796 119.098C90.2014 118.713 89.9588 118.421 89.6519 118.221C89.3513 118.013 89.0191 117.908 88.6553 117.908C88.2915 117.908 87.9593 118.009 87.6587 118.209C87.3592 118.409 87.1209 118.701 86.9416 119.085C86.7633 119.468 86.6737 119.918 86.6737 120.436C86.6737 120.962 86.7633 121.42 86.9416 121.812C87.1209 122.196 87.3592 122.493 87.6587 122.701C87.9593 122.901 88.2915 123.002 88.6553 123.002C89.0191 123.002 89.3513 122.901 89.6519 122.701C89.9588 122.493 90.2014 122.196 90.3796 121.812C90.5589 121.42 90.6474 120.967 90.6474 120.449ZM93.7838 115.918C93.5982 115.918 93.4411 115.843 93.3124 115.693C93.1848 115.543 93.1205 115.359 93.1205 115.142C93.1205 114.925 93.1848 114.742 93.3124 114.592C93.4411 114.442 93.5982 114.367 93.7838 114.367C93.9621 114.367 94.1129 114.442 94.2341 114.592C94.3628 114.742 94.4272 114.925 94.4272 115.142C94.4272 115.359 94.3628 115.543 94.2341 115.693C94.1129 115.843 93.9621 115.918 93.7838 115.918ZM94.2552 117.032V123.89H93.2808V117.032H94.2552ZM97.9949 124.003C97.5456 124.003 97.1417 123.916 96.7842 123.74C96.4277 123.556 96.1451 123.306 95.9384 122.99C95.7306 122.664 95.6167 122.293 95.5957 121.876H96.6028C96.6313 122.217 96.7673 122.497 97.0098 122.714C97.2598 122.931 97.5846 123.039 97.9843 123.039C98.3555 123.039 98.6487 122.943 98.8628 122.751C99.0769 122.559 99.1844 122.318 99.1844 122.025C99.1844 121.725 99.0695 121.504 98.8417 121.362C98.6128 121.212 98.2596 121.066 97.7808 120.924C97.3452 120.791 96.9877 120.657 96.7093 120.523C96.4383 120.382 96.202 120.177 96.0027 119.911C95.8097 119.635 95.7138 119.276 95.7138 118.834C95.7138 118.484 95.8024 118.162 95.9816 117.871C96.1599 117.579 96.4129 117.349 96.742 117.182C97.07 117.007 97.4454 116.92 97.8662 116.92C98.5158 116.92 99.041 117.112 99.4407 117.495C99.8415 117.879 100.056 118.404 100.084 119.072H99.1085C99.0874 118.713 98.963 118.426 98.7341 118.209C98.5127 117.992 98.2132 117.883 97.8346 117.883C97.4844 117.883 97.206 117.971 96.9993 118.146C96.7916 118.321 96.6882 118.551 96.6882 118.834C96.6882 119.059 96.7483 119.247 96.8707 119.397C96.9993 119.54 97.1554 119.656 97.342 119.748C97.534 119.831 97.7987 119.928 98.1341 120.036C98.5559 120.17 98.8987 120.303 99.1623 120.436C99.427 120.561 99.6516 120.753 99.8372 121.012C100.03 121.27 100.13 121.608 100.138 122.025C100.138 122.4 100.048 122.739 99.8699 123.039C99.6917 123.339 99.4376 123.577 99.1085 123.753C98.7879 123.919 98.4167 124.003 97.9949 124.003ZM122.936 120.199C122.936 120.416 122.926 120.644 122.903 120.886H118.212C118.247 121.563 118.445 122.093 118.801 122.476C119.165 122.852 119.605 123.039 120.118 123.039C120.54 123.039 120.89 122.926 121.169 122.701C121.454 122.468 121.654 122.158 121.769 121.775H122.818C122.661 122.434 122.347 122.973 121.875 123.39C121.404 123.798 120.819 124.003 120.118 124.003C119.561 124.003 119.062 123.857 118.619 123.565C118.184 123.272 117.84 122.859 117.59 122.326C117.342 121.783 117.216 121.158 117.216 120.449C117.216 119.74 117.337 119.118 117.58 118.584C117.823 118.051 118.162 117.641 118.598 117.357C119.04 117.066 119.548 116.92 120.118 116.92C120.676 116.92 121.169 117.061 121.597 117.345C122.025 117.629 122.354 118.021 122.583 118.521C122.818 119.014 122.936 119.572 122.936 120.199ZM121.929 119.96C121.929 119.527 121.847 119.155 121.682 118.847C121.519 118.53 121.294 118.291 121.007 118.133C120.729 117.967 120.419 117.883 120.076 117.883C119.584 117.883 119.162 118.066 118.812 118.434C118.469 118.801 118.273 119.31 118.223 119.96H121.929ZM131.282 116.907C131.739 116.907 132.146 117.019 132.504 117.245C132.86 117.463 133.143 117.792 133.349 118.234C133.556 118.676 133.66 119.214 133.66 119.848V123.89H132.697V120.011C132.697 119.327 132.549 118.805 132.257 118.446C131.971 118.079 131.582 117.896 131.089 117.896C130.582 117.896 130.179 118.088 129.879 118.471C129.579 118.847 129.429 119.393 129.429 120.111V123.89H128.464V120.011C128.464 119.327 128.318 118.805 128.026 118.446C127.74 118.079 127.351 117.896 126.858 117.896C126.351 117.896 125.947 118.088 125.648 118.471C125.348 118.847 125.198 119.393 125.198 120.111V123.89H124.223V117.032H125.198V118.021C125.39 117.663 125.648 117.387 125.969 117.195C126.297 117.002 126.658 116.907 127.051 116.907C127.544 116.907 127.979 117.036 128.358 117.295C128.735 117.553 129.018 117.933 129.204 118.434C129.368 117.95 129.639 117.575 130.018 117.308C130.396 117.041 130.818 116.907 131.282 116.907ZM27.1868 136.742V140.784C27.1868 141.117 27.2469 141.356 27.3693 141.497C27.4906 141.631 27.7015 141.697 28.001 141.697H28.7192V142.662H27.8407C27.2976 142.662 26.8905 142.516 26.6195 142.223C26.3474 141.931 26.2124 141.452 26.2124 140.784V136.742H25.452V135.804H26.2124V134.076H27.1868V135.804H28.7192V136.742H27.1868ZM35.2556 138.97C35.2556 139.187 35.245 139.415 35.2239 139.657H30.532C30.5679 140.334 30.7641 140.864 31.1205 141.247C31.4854 141.623 31.9241 141.81 32.4388 141.81C32.8595 141.81 33.2097 141.697 33.4881 141.472C33.7739 141.239 33.9743 140.93 34.0881 140.546H35.1375C34.9814 141.205 34.6661 141.744 34.1947 142.161C33.7243 142.569 33.138 142.774 32.4388 142.774C31.8819 142.774 31.382 142.628 30.9391 142.336C30.5036 142.043 30.1608 141.631 29.9109 141.097C29.6599 140.554 29.5354 139.929 29.5354 139.22C29.5354 138.511 29.6567 137.889 29.8993 137.355C30.1429 136.822 30.4814 136.412 30.917 136.128C31.3599 135.837 31.8672 135.691 32.4388 135.691C32.9956 135.691 33.4881 135.833 33.9163 136.116C34.3455 136.4 34.6735 136.792 34.9023 137.293C35.1375 137.785 35.2556 138.344 35.2556 138.97ZM34.2484 138.731C34.2484 138.298 34.1673 137.926 34.0027 137.618C33.8382 137.301 33.6125 137.064 33.3278 136.905C33.0494 136.738 32.7383 136.654 32.3955 136.654C31.903 136.654 31.4812 136.837 31.1321 137.205C30.7883 137.572 30.5921 138.081 30.5426 138.731H34.2484ZM37.5177 136.918C37.6886 136.525 37.9311 136.221 38.2454 136.004C38.567 135.787 38.9562 135.678 39.4139 135.678V136.854H39.1566C38.064 136.854 37.5177 137.548 37.5177 138.932V142.662H36.5422V135.804H37.5177V136.918ZM41.5125 136.918C41.6844 136.525 41.9281 136.221 42.2413 136.004C42.5629 135.787 42.9521 135.678 43.4087 135.678V136.854H43.1514C42.0588 136.854 41.5125 137.548 41.5125 138.932V142.662H40.5381V135.804H41.5125V136.918ZM45.0381 134.69C44.8525 134.69 44.6953 134.614 44.5667 134.464C44.438 134.315 44.3737 134.131 44.3737 133.913C44.3737 133.696 44.438 133.513 44.5667 133.363C44.6953 133.213 44.8525 133.138 45.0381 133.138C45.2163 133.138 45.3661 133.213 45.4873 133.363C45.616 133.513 45.6803 133.696 45.6803 133.913C45.6803 134.131 45.616 134.315 45.4873 134.464C45.3661 134.614 45.2163 134.69 45.0381 134.69ZM45.5095 135.804V142.662H44.534V135.804H45.5095ZM48.359 136.742V140.784C48.359 141.117 48.4202 141.356 48.5415 141.497C48.6627 141.631 48.8737 141.697 49.1732 141.697H49.8913V142.662H49.0129C48.4708 142.662 48.0637 142.516 47.7916 142.223C47.5206 141.931 47.3846 141.452 47.3846 140.784V136.742H46.6242V135.804H47.3846V134.076H48.359V135.804H49.8913V136.742H48.359ZM53.632 142.774C53.0826 142.774 52.5827 142.628 52.1324 142.336C51.6905 142.043 51.3404 141.631 51.083 141.097C50.8331 140.554 50.7076 139.929 50.7076 139.22C50.7076 138.519 50.8363 137.901 51.0936 137.368C51.3583 136.825 51.7148 136.412 52.1651 136.128C52.6143 135.837 53.1184 135.691 53.6753 135.691C54.2321 135.691 54.7362 135.837 55.1854 136.128C55.6358 136.412 55.989 136.822 56.2464 137.355C56.5111 137.889 56.6429 138.511 56.6429 139.22C56.6429 139.929 56.5068 140.554 56.2358 141.097C55.9711 141.631 55.6105 142.043 55.1538 142.336C54.6961 142.628 54.1899 142.774 53.632 142.774ZM53.632 141.773C53.9821 141.773 54.3112 141.677 54.6181 141.485C54.9249 141.292 55.1717 141.005 55.3573 140.622C55.5493 140.238 55.6463 139.771 55.6463 139.22C55.6463 138.669 55.5535 138.202 55.3679 137.818C55.1823 137.434 54.9397 137.151 54.6392 136.967C54.3397 136.775 54.0148 136.679 53.6647 136.679C53.3083 136.679 52.9792 136.775 52.6787 136.967C52.3865 137.151 52.1513 137.434 51.9721 137.818C51.7938 138.202 51.7042 138.669 51.7042 139.22C51.7042 139.778 51.7896 140.25 51.9615 140.634C52.1398 141.018 52.376 141.305 52.6681 141.497C52.9613 141.68 53.2829 141.773 53.632 141.773ZM58.8987 136.918C59.0706 136.525 59.3131 136.221 59.6274 136.004C59.9491 135.787 60.3382 135.678 60.7949 135.678V136.854H60.5375C59.445 136.854 58.8987 137.548 58.8987 138.932V142.662H57.9242V135.804H58.8987V136.918ZM62.4232 134.69C62.2386 134.69 62.0804 134.614 61.9528 134.464C61.8242 134.315 61.7598 134.131 61.7598 133.913C61.7598 133.696 61.8242 133.513 61.9528 133.363C62.0804 133.213 62.2386 133.138 62.4232 133.138C62.6024 133.138 62.7522 133.213 62.8735 133.363C63.0021 133.513 63.0665 133.696 63.0665 133.913C63.0665 134.131 63.0021 134.315 62.8735 134.464C62.7522 134.614 62.6024 134.69 62.4232 134.69ZM62.8946 135.804V142.662H61.9201V135.804H62.8946ZM67.1162 142.774C66.5667 142.774 66.0668 142.628 65.6165 142.336C65.1746 142.043 64.8245 141.631 64.5672 141.097C64.3172 140.554 64.1917 139.929 64.1917 139.22C64.1917 138.519 64.3204 137.901 64.5777 137.368C64.8424 136.825 65.1989 136.412 65.6492 136.128C66.0984 135.837 66.6025 135.691 67.1594 135.691C67.7162 135.691 68.2193 135.837 68.6696 136.128C69.1199 136.412 69.4732 136.822 69.7305 137.355C69.9952 137.889 70.127 138.511 70.127 139.22C70.127 139.929 69.991 140.554 69.72 141.097C69.4552 141.631 69.0946 142.043 68.6379 142.336C68.1802 142.628 67.673 142.774 67.1162 142.774ZM67.1162 141.773C67.4663 141.773 67.7953 141.677 68.1022 141.485C68.4091 141.292 68.6559 141.005 68.8415 140.622C69.0334 140.238 69.1304 139.771 69.1304 139.22C69.1304 138.669 69.0376 138.202 68.852 137.818C68.6664 137.434 68.4238 137.151 68.1233 136.967C67.8238 136.775 67.499 136.679 67.1488 136.679C66.7924 136.679 66.4633 136.775 66.1628 136.967C65.8706 137.151 65.6355 137.434 65.4562 137.818C65.278 138.202 65.1883 138.669 65.1883 139.22C65.1883 139.778 65.2737 140.25 65.4456 140.634C65.6239 141.018 65.8601 141.305 66.1522 141.497C66.4454 141.68 66.7671 141.773 67.1162 141.773ZM73.4859 142.774C73.0367 142.774 72.6328 142.687 72.2763 142.511C71.9188 142.328 71.6372 142.077 71.4295 141.761C71.2228 141.435 71.1078 141.064 71.0867 140.647H72.0939C72.1223 140.988 72.2584 141.268 72.5009 141.485C72.7509 141.702 73.0757 141.81 73.4754 141.81C73.8466 141.81 74.1398 141.714 74.3539 141.522C74.5679 141.331 74.6755 141.089 74.6755 140.796C74.6755 140.496 74.5616 140.276 74.3328 140.133C74.1039 139.983 73.7507 139.837 73.2719 139.696C72.8363 139.562 72.4798 139.428 72.2004 139.295C71.9293 139.153 71.6942 138.949 71.4938 138.682C71.3008 138.407 71.2048 138.048 71.2048 137.605C71.2048 137.255 71.2945 136.935 71.4727 136.642C71.6509 136.35 71.9051 136.121 72.2331 135.953C72.561 135.778 72.9365 135.691 73.3573 135.691C74.0069 135.691 74.5321 135.883 74.9328 136.266C75.3325 136.65 75.5466 137.176 75.5751 137.844H74.6006C74.5785 137.485 74.4541 137.197 74.2252 136.98C74.0037 136.763 73.7042 136.654 73.3256 136.654C72.9755 136.654 72.6971 136.742 72.4904 136.918C72.2826 137.093 72.1793 137.323 72.1793 137.605C72.1793 137.831 72.2405 138.019 72.3617 138.168C72.4904 138.311 72.6465 138.427 72.8331 138.519C73.0261 138.603 73.2898 138.699 73.6251 138.807C74.047 138.941 74.3897 139.074 74.6534 139.207C74.9181 139.333 75.1427 139.524 75.3283 139.783C75.5213 140.042 75.6215 140.379 75.6289 140.796C75.6289 141.173 75.5392 141.51 75.361 141.81C75.1828 142.111 74.9286 142.349 74.6006 142.524C74.279 142.691 73.9078 142.774 73.4859 142.774ZM26.5013 153.461C26.3157 153.461 26.1586 153.386 26.0299 153.236C25.9013 153.086 25.8369 152.903 25.8369 152.686C25.8369 152.469 25.9013 152.284 26.0299 152.135C26.1586 151.985 26.3157 151.909 26.5013 151.909C26.6796 151.909 26.8293 151.985 26.9517 152.135C27.0803 152.284 27.1436 152.469 27.1436 152.686C27.1436 152.903 27.0803 153.086 26.9517 153.236C26.8293 153.386 26.6796 153.461 26.5013 153.461ZM26.9728 154.575V161.433H25.9983V154.575H26.9728ZM31.4938 154.45C32.2078 154.45 32.7868 154.704 33.2297 155.213C33.6726 155.714 33.8941 156.44 33.8941 157.391V161.433H32.9291V157.553C32.9291 156.869 32.7836 156.347 32.4904 155.988C32.1972 155.622 31.7976 155.438 31.2903 155.438C30.7767 155.438 30.3654 155.625 30.0585 156.001C29.759 156.376 29.6093 156.924 29.6093 157.64V161.433H28.6338V154.575H29.6093V155.551C29.8012 155.2 30.0627 154.929 30.3907 154.738C30.7271 154.546 31.0941 154.45 31.4938 154.45ZM36.6751 155.514V159.556C36.6751 159.888 36.7352 160.127 36.8575 160.268C36.9788 160.402 37.1887 160.468 37.4892 160.468H38.2064V161.433H37.3279C36.7858 161.433 36.3787 161.287 36.1077 160.994C35.8356 160.702 35.7006 160.223 35.7006 159.556V155.514H34.9392V154.575H35.7006V152.847H36.6751V154.575H38.2064V155.514H36.6751ZM44.7438 157.741C44.7438 157.958 44.7333 158.187 44.7111 158.429H40.0203C40.0561 159.105 40.2512 159.635 40.6087 160.018C40.9736 160.394 41.4123 160.581 41.9259 160.581C42.3478 160.581 42.6979 160.468 42.9763 160.243C43.2621 160.01 43.4625 159.701 43.5764 159.317H44.6257C44.4686 159.976 44.1543 160.515 43.6829 160.932C43.2115 161.34 42.6262 161.545 41.9259 161.545C41.3691 161.545 40.8692 161.399 40.4263 161.107C39.9918 160.814 39.6491 160.402 39.3981 159.868C39.1481 159.325 39.0237 158.7 39.0237 157.991C39.0237 157.282 39.145 156.66 39.3875 156.126C39.6301 155.593 39.9697 155.183 40.4052 154.9C40.8481 154.608 41.3554 154.462 41.9259 154.462C42.4838 154.462 42.9763 154.604 43.4045 154.887C43.8327 155.171 44.1617 155.563 44.3905 156.064C44.6257 156.556 44.7438 157.115 44.7438 157.741ZM43.7367 157.502C43.7367 157.069 43.6544 156.697 43.4899 156.389C43.3264 156.072 43.1008 155.835 42.816 155.676C42.5366 155.509 42.2265 155.425 41.8838 155.425C41.3913 155.425 40.9694 155.609 40.6193 155.976C40.2765 156.343 40.0804 156.852 40.0308 157.502H43.7367ZM47.0049 155.689C47.1768 155.296 47.4194 154.992 47.7336 154.775C48.0542 154.558 48.4444 154.45 48.9011 154.45V155.625H48.6438C47.5512 155.625 47.0049 156.319 47.0049 157.704V161.433H46.0305V154.575H47.0049V155.689ZM52.8864 154.45C53.6004 154.45 54.1794 154.704 54.6212 155.213C55.0642 155.714 55.2856 156.44 55.2856 157.391V161.433H54.3217V157.553C54.3217 156.869 54.1751 156.347 53.883 155.988C53.5898 155.622 53.1901 155.438 52.6829 155.438C52.1682 155.438 51.758 155.625 51.4511 156.001C51.1505 156.376 51.0008 156.924 51.0008 157.64V161.433H50.0263V154.575H51.0008V155.551C51.1938 155.2 51.4543 154.929 51.7833 154.738C52.1187 154.546 52.4867 154.45 52.8864 154.45ZM56.5142 157.979C56.5142 157.277 56.6355 156.665 56.8781 156.139C57.1217 155.605 57.4528 155.192 57.8747 154.9C58.3028 154.608 58.7774 154.462 59.2994 154.462C59.813 154.462 60.2602 154.592 60.6377 154.85C61.0163 155.109 61.299 155.433 61.4846 155.826V154.575H62.4696V161.433H61.4846V160.156C61.2916 160.557 61.0026 160.89 60.6167 161.157C60.238 161.416 59.7951 161.545 59.2878 161.545C58.7669 161.545 58.2955 161.394 57.8747 161.095C57.4528 160.794 57.1217 160.373 56.8781 159.831C56.6355 159.288 56.5142 158.672 56.5142 157.979ZM61.4846 157.991C61.4846 157.473 61.3949 157.023 61.2167 156.64C61.0385 156.256 60.7959 155.964 60.488 155.763C60.1885 155.555 59.8563 155.45 59.4914 155.45C59.1275 155.45 58.7953 155.551 58.4958 155.751C58.1953 155.951 57.9569 156.244 57.7776 156.627C57.5994 157.011 57.5098 157.461 57.5098 157.979C57.5098 158.504 57.5994 158.963 57.7776 159.355C57.9569 159.739 58.1953 160.035 58.4958 160.243C58.7953 160.443 59.1275 160.544 59.4914 160.544C59.8563 160.544 60.1885 160.443 60.488 160.243C60.7959 160.035 61.0385 159.739 61.2167 159.355C61.3949 158.963 61.4846 158.509 61.4846 157.991ZM63.753 157.991C63.753 157.282 63.8743 156.665 64.1169 156.139C64.3594 155.605 64.6958 155.192 65.124 154.9C65.5596 154.608 66.0563 154.462 66.6131 154.462C67.3344 154.462 67.9271 154.667 68.3911 155.075C68.8626 155.484 69.1737 156.052 69.3234 156.778H68.273C68.1728 156.359 67.9767 156.03 67.6846 155.788C67.3988 155.546 67.0413 155.425 66.6131 155.425C66.0563 155.425 65.6059 155.651 65.2632 156.102C64.9205 156.544 64.7496 157.173 64.7496 157.991C64.7496 158.818 64.9205 159.455 65.2632 159.905C65.6059 160.356 66.0563 160.581 66.6131 160.581C67.0413 160.581 67.3988 160.465 67.6846 160.231C67.9693 159.998 68.1665 159.663 68.273 159.23H69.3234C69.1663 159.931 68.852 160.494 68.3806 160.92C67.9092 161.337 67.3197 161.545 66.6131 161.545C66.0563 161.545 65.5596 161.399 65.124 161.107C64.6958 160.814 64.3594 160.402 64.1169 159.868C63.8743 159.334 63.753 158.709 63.753 157.991ZM71.1268 153.461C70.9412 153.461 70.784 153.386 70.6554 153.236C70.5267 153.086 70.4624 152.903 70.4624 152.686C70.4624 152.469 70.5267 152.284 70.6554 152.135C70.784 151.985 70.9412 151.909 71.1268 151.909C71.3061 151.909 71.4558 151.985 71.5771 152.135C71.7058 152.284 71.7701 152.469 71.7701 152.686C71.7701 152.903 71.7058 153.086 71.5771 153.236C71.4558 153.386 71.3061 153.461 71.1268 153.461ZM71.5982 154.575V161.433H70.6237V154.575H71.5982ZM75.8198 161.545C75.2703 161.545 74.7704 161.399 74.3201 161.107C73.8782 160.814 73.5271 160.402 73.2708 159.868C73.0209 159.325 72.8953 158.7 72.8953 157.991C72.8953 157.29 73.024 156.673 73.2813 156.139C73.546 155.596 73.9025 155.183 74.3528 154.9C74.8021 154.608 75.3062 154.462 75.863 154.462C76.4198 154.462 76.9229 154.608 77.3732 154.9C77.8224 155.183 78.1768 155.593 78.4331 156.126C78.6978 156.66 78.8296 157.282 78.8296 157.991C78.8296 158.7 78.6946 159.325 78.4225 159.868C78.1589 160.402 77.7982 160.814 77.3405 161.107C76.8838 161.399 76.3766 161.545 75.8198 161.545ZM75.8198 160.544C76.1699 160.544 76.4989 160.448 76.8058 160.256C77.1127 160.064 77.3595 159.776 77.544 159.393C77.737 159.009 77.8341 158.542 77.8341 157.991C77.8341 157.44 77.7412 156.973 77.5556 156.59C77.37 156.206 77.1264 155.922 76.8269 155.739C76.5263 155.546 76.2026 155.45 75.8525 155.45C75.495 155.45 75.1659 155.546 74.8664 155.739C74.5743 155.922 74.338 156.206 74.1598 156.59C73.9816 156.973 73.8919 157.44 73.8919 157.991C73.8919 158.55 73.9774 159.022 74.1493 159.405C74.3275 159.789 74.5637 160.077 74.8559 160.268C75.149 160.453 75.4696 160.544 75.8198 160.544ZM82.9721 154.45C83.686 154.45 84.264 154.704 84.7069 155.213C85.1498 155.714 85.3713 156.44 85.3713 157.391V161.433H84.4074V157.553C84.4074 156.869 84.2608 156.347 83.9676 155.988C83.6744 155.622 83.2758 155.438 82.7685 155.438C82.2539 155.438 81.8436 155.625 81.5367 156.001C81.2362 156.376 81.0864 156.924 81.0864 157.64V161.433H80.112V154.575H81.0864V155.551C81.2794 155.2 81.5399 154.929 81.8679 154.738C82.2043 154.546 82.5713 154.45 82.9721 154.45ZM86.5988 157.979C86.5988 157.277 86.7212 156.665 86.9637 156.139C87.2063 155.605 87.5385 155.192 87.9593 154.9C88.3885 154.608 88.8631 154.462 89.384 154.462C89.8987 154.462 90.3448 154.592 90.7234 154.85C91.102 155.109 91.3836 155.433 91.5692 155.826V154.575H92.5552V161.433H91.5692V160.156C91.3762 160.557 91.0872 160.89 90.7023 161.157C90.3237 161.416 89.8807 161.545 89.3735 161.545C88.8525 161.545 88.3811 161.394 87.9593 161.095C87.5385 160.794 87.2063 160.373 86.9637 159.831C86.7212 159.288 86.5988 158.672 86.5988 157.979ZM91.5692 157.991C91.5692 157.473 91.4806 157.023 91.3013 156.64C91.1231 156.256 90.8805 155.964 90.5736 155.763C90.2731 155.555 89.9409 155.45 89.577 155.45C89.2132 155.45 88.881 155.551 88.5804 155.751C88.2809 155.951 88.0415 156.244 87.8633 156.627C87.6851 157.011 87.5954 157.461 87.5954 157.979C87.5954 158.504 87.6851 158.963 87.8633 159.355C88.0415 159.739 88.2809 160.035 88.5804 160.243C88.881 160.443 89.2132 160.544 89.577 160.544C89.9409 160.544 90.2731 160.443 90.5736 160.243C90.8805 160.035 91.1231 159.739 91.3013 159.355C91.4806 158.963 91.5692 158.509 91.5692 157.991ZM94.7055 153.461C94.5199 153.461 94.3628 153.386 94.2341 153.236C94.1065 153.086 94.0422 152.903 94.0422 152.686C94.0422 152.469 94.1065 152.284 94.2341 152.135C94.3628 151.985 94.5199 151.909 94.7055 151.909C94.8838 151.909 95.0346 151.985 95.1559 152.135C95.2845 152.284 95.3489 152.469 95.3489 152.686C95.3489 152.903 95.2845 153.086 95.1559 153.236C95.0346 153.386 94.8838 153.461 94.7055 153.461ZM95.177 154.575V161.433H94.2025V154.575H95.177ZM98.9166 161.545C98.4673 161.545 98.0634 161.458 97.7059 161.282C97.3494 161.099 97.0668 160.848 96.8601 160.532C96.6523 160.206 96.5385 159.835 96.5174 159.418H97.5245C97.553 159.761 97.688 160.039 97.9316 160.256C98.1805 160.473 98.5063 160.581 98.906 160.581C99.2772 160.581 99.5704 160.485 99.7845 160.294C99.9986 160.102 100.106 159.86 100.106 159.568C100.106 159.268 99.9912 159.047 99.7634 158.905C99.5346 158.754 99.1813 158.608 98.7025 158.467C98.2669 158.334 97.9094 158.199 97.631 158.067C97.36 157.924 97.1237 157.721 96.9244 157.453C96.7314 157.178 96.6355 156.82 96.6355 156.376C96.6355 156.027 96.7241 155.706 96.9033 155.413C97.0816 155.121 97.3347 154.892 97.6637 154.725C97.9917 154.55 98.3671 154.462 98.7879 154.462C99.4375 154.462 99.9627 154.654 100.362 155.038C100.762 155.421 100.976 155.947 101.006 156.615H100.031C100.009 156.256 99.8836 155.968 99.6558 155.751C99.4344 155.534 99.1338 155.425 98.7563 155.425C98.4061 155.425 98.1277 155.514 97.921 155.689C97.7133 155.864 97.6099 156.094 97.6099 156.376C97.6099 156.602 97.67 156.79 97.7924 156.939C97.921 157.082 98.0771 157.198 98.2638 157.29C98.4557 157.374 98.7204 157.47 99.0558 157.578C99.4766 157.712 99.8193 157.845 100.084 157.979C100.349 158.104 100.573 158.296 100.759 158.554C100.952 158.813 101.052 159.151 101.06 159.568C101.06 159.944 100.97 160.281 100.792 160.581C100.612 160.882 100.359 161.12 100.031 161.295C99.7096 161.462 99.3374 161.545 98.9166 161.545ZM102.746 161.507C102.56 161.507 102.403 161.433 102.274 161.282C102.146 161.132 102.081 160.949 102.081 160.732C102.081 160.515 102.146 160.332 102.274 160.181C102.403 160.031 102.56 159.956 102.746 159.956C102.924 159.956 103.074 160.031 103.195 160.181C103.324 160.332 103.388 160.515 103.388 160.732C103.388 160.949 103.324 161.132 103.195 161.282C103.074 161.433 102.924 161.507 102.746 161.507Z" fill="white"/>
</svg>
