<svg width="156" height="202" viewBox="0 0 156 202" fill="none" xmlns="http://www.w3.org/2000/svg">
<path d="M121.044 0H34.8134C15.5859 0 0 18.209 0 40.671V160.806C0 183.268 15.5859 201.477 34.8134 201.477H121.044C140.271 201.477 155.857 183.268 155.857 160.806V40.671C155.857 18.209 140.271 0 121.044 0Z" fill="#8DCB6B"/>
<path d="M41.6048 20.0976L43.983 35.0896L50.9454 20.0976H53.0451L44.7539 37.5423H42.5044L39.5051 20.0976H41.6048ZM52.8258 30.6345C53.0399 29.233 53.4681 28.0066 54.1114 26.9554C54.7684 25.8875 55.5614 25.0616 56.4895 24.4775C57.4323 23.8936 58.4321 23.6016 59.4888 23.6016C60.517 23.6016 61.367 23.8602 62.0377 24.3775C62.7095 24.8948 63.1736 25.5455 63.4309 26.3297L63.8158 23.8268H65.7868L63.7093 37.5423H61.7382L62.1453 34.9895C61.6307 35.7904 60.9525 36.4579 60.1099 36.9918C59.2673 37.509 58.3393 37.7676 57.3247 37.7676C56.4114 37.7676 55.6036 37.5423 54.9034 37.0918C54.2042 36.6246 53.6611 35.9655 53.2761 35.1146C52.8901 34.2637 52.6971 33.2792 52.6971 32.1612C52.6971 31.6607 52.7404 31.1518 52.8258 30.6345ZM62.7876 30.6595C62.8456 30.3092 62.873 29.9337 62.873 29.5333C62.873 28.3152 62.5598 27.3558 61.9312 26.6551C61.3175 25.9375 60.5318 25.5789 59.5742 25.5789C58.8455 25.5789 58.1463 25.7791 57.4745 26.1795C56.8185 26.58 56.2532 27.1639 55.7818 27.9314C55.3104 28.6991 54.9972 29.6 54.839 30.6345C54.7831 30.9849 54.7536 31.3687 54.7536 31.7858C54.7536 33.0206 55.0616 33.9966 55.6753 34.7142C56.2891 35.415 57.0748 35.7654 58.0313 35.7654C58.7601 35.7654 59.4529 35.5651 60.1099 35.1646C60.7817 34.7475 61.3522 34.1553 61.8236 33.3876C62.3098 32.6035 62.6304 31.694 62.7876 30.6595ZM71.7601 19.0214L68.9538 37.5423H67.0039L69.8101 19.0214H71.7601ZM77.4391 37.7676C76.4531 37.7676 75.583 37.5341 74.8248 37.0669C74.0834 36.5829 73.5044 35.9156 73.09 35.0646C72.6755 34.1969 72.4688 33.1957 72.4688 32.0612C72.4688 30.5094 72.7757 29.0911 73.3895 27.8064C74.0043 26.5049 74.8469 25.4787 75.9173 24.7279C77.0036 23.977 78.21 23.6016 79.5388 23.6016C80.5238 23.6016 81.3949 23.8435 82.1521 24.3274C82.923 24.7946 83.5168 25.4621 83.9302 26.3297C84.3584 27.1806 84.5735 28.1818 84.5735 29.3331C84.5735 30.8849 84.2592 32.3031 83.6307 33.5879C83.0022 34.8727 82.1448 35.8905 81.0596 36.6414C79.9744 37.3922 78.7669 37.7676 77.4391 37.7676ZM77.6743 35.8405C78.6034 35.8405 79.4387 35.5484 80.1811 34.9644C80.9235 34.3638 81.5025 33.5796 81.917 32.6118C82.3451 31.6273 82.5592 30.5762 82.5592 29.4582C82.5592 28.1901 82.2449 27.2224 81.6164 26.5549C80.9879 25.8708 80.2022 25.5288 79.2604 25.5288C78.3313 25.5288 77.5035 25.8291 76.7747 26.4298C76.046 27.0137 75.4829 27.798 75.0821 28.7824C74.6824 29.7669 74.482 30.8264 74.482 31.9611C74.482 33.1957 74.7826 34.1553 75.3826 34.8393C75.9817 35.5067 76.7462 35.8405 77.6743 35.8405ZM89.6219 26.4298C90.0933 25.5288 90.686 24.8279 91.3999 24.3274C92.1139 23.8268 92.9281 23.5766 93.8424 23.5766L93.4775 25.9293H92.9639C91.9494 25.9293 91.0994 26.2463 90.4139 26.8803C89.7432 27.5143 89.2929 28.5823 89.064 30.0839L87.9292 37.5423H85.9793L88.0579 23.8268H90.0068L89.6219 26.4298ZM101.149 23.6016C102.134 23.6016 102.984 23.8268 103.698 24.2774C104.426 24.7111 104.977 25.3285 105.347 26.1294C105.733 26.9137 105.926 27.8146 105.926 28.8325C105.926 29.1829 105.89 29.6084 105.818 30.109C105.761 30.5427 105.669 30.9933 105.54 31.4605H96.1572C96.1288 31.7942 96.114 32.0362 96.114 32.1863C96.114 33.3376 96.4072 34.2386 96.9925 34.8893C97.5926 35.5234 98.3709 35.8405 99.3274 35.8405C100.17 35.8405 100.906 35.6151 101.535 35.1646C102.177 34.6974 102.663 34.0802 102.991 33.3125H105.091C104.576 34.6307 103.784 35.7069 102.713 36.5412C101.656 37.3588 100.427 37.7676 99.0279 37.7676C97.5567 37.7676 96.3713 37.2754 95.4718 36.291C94.5859 35.2898 94.1429 33.9299 94.1429 32.2113C94.1429 31.7275 94.1862 31.2102 94.2716 30.6595C94.4857 29.2413 94.9213 27.9983 95.5783 26.9304C96.2353 25.8624 97.0421 25.0449 97.9996 24.4775C98.9699 23.8936 100.02 23.6016 101.149 23.6016ZM103.847 29.8087C103.891 29.4749 103.912 29.1662 103.912 28.8826C103.912 27.8146 103.62 26.9888 103.034 26.4047C102.463 25.8208 101.713 25.5288 100.785 25.5288C99.784 25.5288 98.8781 25.9125 98.064 26.6801C97.2498 27.431 96.6993 28.4738 96.4135 29.8087H103.847ZM111.392 37.7676C110.163 37.7676 109.156 37.4255 108.371 36.7414C107.585 36.0573 107.193 35.1397 107.193 33.9884C107.193 33.7714 107.2 33.613 107.214 33.5128H109.12C109.063 34.2303 109.242 34.8142 109.656 35.2648C110.085 35.7153 110.699 35.9405 111.499 35.9405C112.299 35.9405 112.94 35.7654 113.427 35.415C113.925 35.0478 114.177 34.5389 114.177 33.8882C114.177 33.3376 113.979 32.9038 113.577 32.5867C113.175 32.2697 112.565 31.9277 111.735 31.5606C111.006 31.2435 110.406 30.9432 109.935 30.6595C109.463 30.3759 109.063 29.9838 108.735 29.4832C108.406 28.9659 108.243 28.3152 108.243 27.531C108.243 26.7635 108.428 26.0794 108.8 25.4787C109.185 24.878 109.713 24.4192 110.385 24.1021C111.07 23.7685 111.849 23.6016 112.721 23.6016C113.92 23.6016 114.906 23.952 115.677 24.6528C116.448 25.3536 116.834 26.2713 116.834 27.4059C116.834 27.6229 116.828 27.7896 116.813 27.9064H114.948L114.97 27.6061C114.97 26.9387 114.751 26.4131 114.306 26.0293C113.878 25.6288 113.304 25.4287 112.592 25.4287C111.892 25.4287 111.313 25.6122 110.856 25.9792C110.413 26.3464 110.192 26.8386 110.192 27.456C110.192 28.0399 110.399 28.4988 110.813 28.8325C111.227 29.1662 111.87 29.5333 112.742 29.9337C113.471 30.2674 114.054 30.5762 114.499 30.8598C114.943 31.1267 115.318 31.5022 115.635 31.9861C115.95 32.4699 116.105 33.079 116.105 33.8131C116.105 34.614 115.896 35.3148 115.484 35.9156C115.082 36.5162 114.525 36.975 113.813 37.2921C113.1 37.6091 112.292 37.7676 111.392 37.7676Z" fill="white"/>
<path d="M58.8677 67.5762L57.0896 64.0097H55.9106V67.5762H54.9361V58.8538H57.3459C57.9112 58.8538 58.3857 58.9665 58.7707 59.1918C59.164 59.417 59.4562 59.7215 59.6492 60.1053C59.8421 60.4891 59.9381 60.927 59.9381 61.4193C59.9381 62.0199 59.7884 62.5497 59.4888 63.0085C59.1957 63.4673 58.7527 63.7719 58.16 63.9221L60.0351 67.5762H58.8677ZM55.9106 63.0961H57.3459C57.8753 63.0961 58.2708 62.946 58.5355 62.6457C58.8002 62.337 58.932 61.9281 58.932 61.4193C58.932 60.902 58.8002 60.5015 58.5355 60.2179C58.2782 59.9343 57.8816 59.7924 57.3459 59.7924H55.9106V63.0961ZM66.8088 63.8846C66.8088 64.1017 66.7983 64.3307 66.7772 64.5729H62.0853C62.1211 65.2486 62.3173 65.7786 62.6737 66.1621C63.0386 66.5375 63.4773 66.7253 63.992 66.7253C64.4138 66.7253 64.7629 66.6126 65.0413 66.3873C65.3271 66.154 65.5275 65.8449 65.6414 65.4613H66.6907C66.5346 66.1201 66.2204 66.6583 65.749 67.0756C65.2776 67.4842 64.6922 67.6888 63.992 67.6888C63.4352 67.6888 62.9353 67.543 62.4923 67.2509C62.0568 66.9587 61.714 66.5456 61.4641 66.0119C61.2142 65.4694 61.0887 64.8438 61.0887 64.1348C61.0887 63.4259 61.211 62.804 61.4536 62.2703C61.6961 61.7363 62.0357 61.3275 62.4713 61.0438C62.9142 60.7518 63.4204 60.6059 63.992 60.6059C64.5488 60.6059 65.0413 60.7476 65.4705 61.0313C65.8987 61.3149 66.2277 61.7071 66.4555 62.2076C66.6907 62.7001 66.8088 63.2589 66.8088 63.8846ZM65.8017 63.6468C65.8017 63.2132 65.7205 62.8415 65.556 62.5331C65.3914 62.216 65.1668 61.9782 64.881 61.8197C64.6026 61.6528 64.2915 61.5695 63.9488 61.5695C63.4563 61.5695 63.0355 61.753 62.6854 62.12C62.3426 62.4871 62.1464 62.9961 62.0958 63.6468H65.8017ZM70.1741 67.6888C69.7237 67.6888 69.3209 67.6013 68.9634 67.426C68.6069 67.2427 68.3243 66.9924 68.1176 66.6752C67.9098 66.3498 67.7959 65.9788 67.7748 65.5615H68.782C68.8105 65.9037 68.9455 66.1828 69.1891 66.3999C69.438 66.617 69.7638 66.7253 70.1635 66.7253C70.5347 66.7253 70.8279 66.6295 71.042 66.4374C71.2561 66.2453 71.3637 66.0038 71.3637 65.7116C71.3637 65.4113 71.2487 65.1904 71.0209 65.0483C70.7921 64.8982 70.4377 64.7524 69.96 64.6104C69.5244 64.4771 69.1669 64.3432 68.8885 64.2099C68.6175 64.0679 68.3813 63.8639 68.1819 63.5967C67.9889 63.3214 67.893 62.9628 67.893 62.5205C67.893 62.1701 67.9815 61.849 68.1608 61.5569C68.3391 61.265 68.5922 61.0355 68.9212 60.8686C69.2492 60.6935 69.6246 60.6059 70.0454 60.6059C70.695 60.6059 71.2202 60.7977 71.6199 61.1815C72.0196 61.5653 72.2337 62.0908 72.2632 62.7583H71.2877C71.2666 62.3995 71.1411 62.1117 70.9133 61.8948C70.6919 61.6779 70.3913 61.5695 70.0138 61.5695C69.6637 61.5695 69.3852 61.6571 69.1775 61.8322C68.9708 62.0074 68.8674 62.2369 68.8674 62.5205C68.8674 62.7457 68.9275 62.9334 69.0499 63.0836C69.1775 63.2257 69.3346 63.3421 69.5213 63.434C69.7132 63.5172 69.9779 63.6136 70.3133 63.7219C70.7341 63.8551 71.0768 63.9891 71.3415 64.1223C71.6062 64.2474 71.8308 64.4396 72.0165 64.6979C72.2094 64.9564 72.3086 65.2943 72.317 65.7116C72.317 66.087 72.2274 66.4249 72.0492 66.7253C71.8699 67.0256 71.6167 67.2634 71.2877 67.4386C70.9671 67.6056 70.5948 67.6888 70.1741 67.6888ZM74.6677 61.9824C74.8597 61.5903 75.1454 61.265 75.524 61.0062C75.91 60.7393 76.3561 60.6059 76.8634 60.6059C77.3844 60.6059 77.8558 60.7518 78.2776 61.0438C78.7058 61.3358 79.0411 61.7488 79.2837 62.2827C79.5263 62.8084 79.6486 63.4216 79.6486 64.1223C79.6486 64.815 79.5263 65.4319 79.2837 65.9744C79.0411 66.5169 78.7058 66.938 78.2776 67.2383C77.8558 67.5386 77.3844 67.6888 76.8634 67.6888C76.3625 67.6888 75.9206 67.5593 75.5346 67.301C75.156 67.0338 74.867 66.7046 74.6677 66.3123V70.8299H73.6922V60.7185H74.6677V61.9824ZM78.652 64.1223C78.652 63.6049 78.5624 63.1544 78.3841 62.7708C78.2059 62.3871 77.9623 62.095 77.6554 61.8948C77.3559 61.6946 77.0237 61.5944 76.6599 61.5944C76.3024 61.5944 75.9702 61.6988 75.6633 61.9073C75.3638 62.1076 75.1201 62.4037 74.9356 62.7958C74.7563 63.1794 74.6677 63.6261 74.6677 64.1348C74.6677 64.6522 74.7563 65.1066 74.9356 65.4988C75.1201 65.8825 75.3638 66.1791 75.6633 66.3873C75.9702 66.5876 76.3024 66.6878 76.6599 66.6878C77.0237 66.6878 77.3559 66.5876 77.6554 66.3873C77.9623 66.1791 78.2059 65.8825 78.3841 65.4988C78.5624 65.1066 78.652 64.648 78.652 64.1223ZM86.2873 63.8846C86.2873 64.1017 86.2768 64.3307 86.2546 64.5729H81.5627C81.5986 65.2486 81.7958 65.7786 82.1522 66.1621C82.5161 66.5375 82.9558 66.7253 83.4694 66.7253C83.8912 66.7253 84.2414 66.6126 84.5198 66.3873C84.8056 66.154 85.0049 65.8449 85.1199 65.4613H86.1692C86.0121 66.1201 85.6978 66.6583 85.2264 67.0756C84.755 67.4842 84.1697 67.6888 83.4694 67.6888C82.9126 67.6888 82.4127 67.543 81.9698 67.2509C81.5342 66.9587 81.1915 66.5456 80.9416 66.0119C80.6927 65.4694 80.5672 64.8438 80.5672 64.1348C80.5672 63.4259 80.6884 62.804 80.931 62.2703C81.1746 61.7363 81.5131 61.3275 81.9487 61.0438C82.3916 60.7518 82.8989 60.6059 83.4694 60.6059C84.0262 60.6059 84.5198 60.7476 84.948 61.0313C85.3761 61.3149 85.7052 61.7071 85.933 62.2076C86.1692 62.7001 86.2873 63.2589 86.2873 63.8846ZM85.2802 63.6468C85.2802 63.2132 85.1979 62.8415 85.0334 62.5331C84.8699 62.216 84.6453 61.9782 84.3585 61.8197C84.08 61.6528 83.77 61.5695 83.4272 61.5695C82.9337 61.5695 82.5129 61.753 82.1628 62.12C81.82 62.4871 81.6239 62.9961 81.5733 63.6468H85.2802ZM88.077 59.6047C87.8914 59.6047 87.7342 59.5296 87.6066 59.3795C87.4779 59.2293 87.4136 59.0458 87.4136 58.8288C87.4136 58.6119 87.4779 58.4284 87.6066 58.2782C87.7342 58.128 87.8914 58.0529 88.077 58.0529C88.2563 58.0529 88.406 58.128 88.5273 58.2782C88.656 58.4284 88.7203 58.6119 88.7203 58.8288C88.7203 59.0458 88.656 59.2293 88.5273 59.3795C88.406 59.5296 88.2563 59.6047 88.077 59.6047ZM88.5484 60.7185V67.5762H87.5739V60.7185H88.5484ZM91.399 61.6571V65.6991C91.399 66.0326 91.4601 66.2704 91.5814 66.4124C91.7027 66.5456 91.9136 66.6126 92.2131 66.6126H92.9313V67.5762H92.0528C91.5097 67.5762 91.1026 67.4304 90.8316 67.1382C90.5595 66.8461 90.4245 66.3668 90.4245 65.6991V61.6571H89.6642V60.7185H90.4245V58.9915H91.399V60.7185H92.9313V61.6571H91.399ZM96.672 67.6888C96.1225 67.6888 95.6226 67.543 95.1723 67.2509C94.7294 66.9587 94.3793 66.5456 94.123 66.0119C93.8731 65.4694 93.7475 64.8438 93.7475 64.1348C93.7475 63.434 93.8762 62.8164 94.1335 62.2827C94.3972 61.7404 94.7547 61.3275 95.205 61.0438C95.6543 60.7518 96.1584 60.6059 96.7152 60.6059C97.2721 60.6059 97.7751 60.7518 98.2254 61.0438C98.6757 61.3275 99.029 61.7363 99.2853 62.2703C99.55 62.804 99.6818 63.4259 99.6818 64.1348C99.6818 64.8438 99.5457 65.4694 99.2747 66.0119C99.01 66.5456 98.6504 66.9587 98.1927 67.2509C97.7361 67.543 97.2288 67.6888 96.672 67.6888ZM96.672 66.6878C97.0221 66.6878 97.3501 66.592 97.658 66.3999C97.9649 66.2078 98.2106 65.92 98.3963 65.5365C98.5892 65.1528 98.6863 64.6855 98.6863 64.1348C98.6863 63.5842 98.5924 63.1168 98.4078 62.7333C98.2212 62.3495 97.9786 62.0658 97.6791 61.8823C97.3786 61.6903 97.0537 61.5944 96.7047 61.5944C96.3472 61.5944 96.0192 61.6903 95.7186 61.8823C95.4254 62.0658 95.1902 62.3495 95.012 62.7333C94.8327 63.1168 94.7442 63.5842 94.7442 64.1348C94.7442 64.6936 94.8296 65.1654 95.0015 65.5489C95.1797 65.9324 95.4149 66.2203 95.7081 66.4124C96.0002 66.5957 96.3218 66.6878 96.672 66.6878ZM54.4204 81.98C54.4204 81.1291 54.585 80.3656 54.9129 79.6899C55.2409 79.0061 55.6881 78.4717 56.2523 78.0881C56.8239 77.7046 57.4556 77.5125 58.1485 77.5125C58.9616 77.5125 59.6723 77.7421 60.2798 78.2008C60.8862 78.6594 61.3291 79.3101 61.6075 80.1529H60.4401C60.2334 79.6274 59.9328 79.2225 59.5405 78.9391C59.1546 78.6556 58.6905 78.5136 58.1485 78.5136C57.6264 78.5136 57.1592 78.6556 56.7448 78.9391C56.3303 79.2225 56.0055 79.6274 55.7703 80.1529C55.5341 80.6704 55.416 81.2793 55.416 81.98C55.416 82.6726 55.5341 83.2814 55.7703 83.8071C56.0055 84.3245 56.3303 84.725 56.7448 85.0085C57.1592 85.2918 57.6264 85.4339 58.1485 85.4339C58.6905 85.4339 59.1546 85.2962 59.5405 85.0209C59.9328 84.7374 60.2334 84.3326 60.4401 83.8071H61.6075C61.3291 84.6411 60.8862 85.2881 60.2798 85.7467C59.6723 86.1973 58.9616 86.4226 58.1485 86.4226C57.4556 86.4226 56.8239 86.2349 56.2523 85.8593C55.6881 85.4758 55.2409 84.9458 54.9129 84.2701C54.585 83.5943 54.4204 82.8309 54.4204 81.98ZM68.2652 79.4897V86.3475H67.2897V85.3338C67.1052 85.6842 66.8436 85.9595 66.5083 86.1598C66.1792 86.3518 65.8154 86.4475 65.4157 86.4475C64.9591 86.4475 64.5478 86.3393 64.1839 86.1222C63.819 85.8969 63.5301 85.5634 63.316 85.1211C63.1093 84.6786 63.0049 84.1405 63.0049 83.5068V79.4897H63.9698V83.3566C63.9698 84.0323 64.1164 84.5536 64.4086 84.9208C64.7018 85.2794 65.1014 85.459 65.6087 85.459C66.1297 85.459 66.5399 85.2713 66.8405 84.8957C67.14 84.5203 67.2897 83.9741 67.2897 83.2564V79.4897H68.2652ZM70.4145 78.3759C70.2289 78.3759 70.0718 78.3008 69.9431 78.1507C69.8144 78.0005 69.7501 77.8172 69.7501 77.6C69.7501 77.3829 69.8144 77.1996 69.9431 77.0495C70.0718 76.8993 70.2289 76.8242 70.4145 76.8242C70.5927 76.8242 70.7425 76.8993 70.8638 77.0495C70.9924 77.1996 71.0568 77.3829 71.0568 77.6C71.0568 77.8172 70.9924 78.0005 70.8638 78.1507C70.7425 78.3008 70.5927 78.3759 70.4145 78.3759ZM70.8859 79.4897V86.3475H69.9104V79.4897H70.8859ZM72.1831 82.8936C72.1831 82.1928 72.3043 81.5796 72.5469 81.0539C72.7895 80.5202 73.1217 80.1073 73.5435 79.8151C73.9717 79.5228 74.4494 79.377 74.9788 79.377C75.4355 79.377 75.8605 79.5022 76.2528 79.7524C76.6461 79.9946 76.9457 80.3157 77.1534 80.716V77.087H78.1384V86.3475H77.1534V85.0585C76.9604 85.4671 76.6746 85.805 76.296 86.0721C75.9174 86.3305 75.4745 86.4601 74.9672 86.4601C74.4463 86.4601 73.9717 86.3099 73.5435 86.0095C73.1217 85.7092 72.7895 85.2881 72.5469 84.7456C72.3043 84.2032 72.1831 83.5861 72.1831 82.8936ZM77.1534 82.906C77.1534 82.3886 77.0638 81.9381 76.8855 81.5545C76.7073 81.1709 76.4637 80.8788 76.1568 80.6785C75.8573 80.4702 75.5251 80.3656 75.1602 80.3656C74.7964 80.3656 74.4642 80.4658 74.1647 80.6661C73.8641 80.8662 73.6247 81.1585 73.4465 81.542C73.2683 81.9256 73.1786 82.3761 73.1786 82.8936C73.1786 83.4191 73.2683 83.8778 73.4465 84.2701C73.6247 84.6537 73.8641 84.9502 74.1647 85.1586C74.4642 85.3588 74.7964 85.459 75.1602 85.459C75.5251 85.459 75.8573 85.3588 76.1568 85.1586C76.4637 84.9502 76.7073 84.6537 76.8855 84.2701C77.0638 83.8778 77.1534 83.4236 77.1534 82.906ZM79.4219 82.8936C79.4219 82.1928 79.5431 81.5796 79.7857 81.0539C80.0283 80.5202 80.3605 80.1073 80.7823 79.8151C81.2105 79.5228 81.685 79.377 82.2071 79.377C82.7206 79.377 83.1668 79.5066 83.5454 79.765C83.924 80.0234 84.2066 80.3488 84.3922 80.7411V79.4897H85.3772V86.3475H84.3922V85.071C84.1992 85.4715 83.9102 85.805 83.5242 86.0721C83.1456 86.3305 82.7027 86.4601 82.1965 86.4601C81.6745 86.4601 81.2031 86.3099 80.7823 86.0095C80.3605 85.7092 80.0283 85.2881 79.7857 84.7456C79.5431 84.2032 79.4219 83.5861 79.4219 82.8936ZM84.3922 82.906C84.3922 82.3886 84.3025 81.9381 84.1243 81.5545C83.945 81.1709 83.7025 80.8788 83.3956 80.6785C83.0961 80.4702 82.7639 80.3656 82.4001 80.3656C82.0352 80.3656 81.703 80.4658 81.4035 80.6661C81.104 80.8662 80.8646 81.1585 80.6853 81.542C80.507 81.9256 80.4185 82.3761 80.4185 82.8936C80.4185 83.4191 80.507 83.8778 80.6853 84.2701C80.8646 84.6537 81.104 84.9502 81.4035 85.1586C81.703 85.3588 82.0352 85.459 82.4001 85.459C82.7639 85.459 83.0961 85.3588 83.3956 85.1586C83.7025 84.9502 83.945 84.6537 84.1243 84.2701C84.3025 83.8778 84.3922 83.4236 84.3922 82.906ZM86.6606 82.8936C86.6606 82.1928 86.7819 81.5796 87.0245 81.0539C87.2681 80.5202 87.5992 80.1073 88.0211 79.8151C88.4492 79.5228 88.928 79.377 89.4564 79.377C89.913 79.377 90.338 79.5022 90.7303 79.7524C91.1237 79.9946 91.4243 80.3157 91.631 80.716V77.087H92.616V86.3475H91.631V85.0585C91.438 85.4671 91.1522 85.805 90.7736 86.0721C90.395 86.3305 89.9521 86.4601 89.4459 86.4601C88.9238 86.4601 88.4492 86.3099 88.0211 86.0095C87.5992 85.7092 87.2681 85.2881 87.0245 84.7456C86.7819 84.2032 86.6606 83.5861 86.6606 82.8936ZM91.631 82.906C91.631 82.3886 91.5413 81.9381 91.3631 81.5545C91.1849 81.1709 90.9423 80.8788 90.6344 80.6785C90.3349 80.4702 90.0027 80.3656 89.6378 80.3656C89.274 80.3656 88.9418 80.4658 88.6423 80.6661C88.3417 80.8662 88.1034 81.1585 87.9241 81.542C87.7458 81.9256 87.6562 82.3761 87.6562 82.8936C87.6562 83.4191 87.7458 83.8778 87.9241 84.2701C88.1034 84.6537 88.3417 84.9502 88.6423 85.1586C88.9418 85.3588 89.274 85.459 89.6378 85.459C90.0027 85.459 90.3349 85.3588 90.6344 85.1586C90.9423 84.9502 91.1849 84.6537 91.3631 84.2701C91.5413 83.8778 91.631 83.4236 91.631 82.906ZM96.8238 86.4601C96.2733 86.4601 95.7735 86.3142 95.3242 86.0221C94.8813 85.7299 94.5311 85.3169 94.2738 84.7831C94.0239 84.2407 93.8994 83.615 93.8994 82.906C93.8994 82.2053 94.0281 81.5877 94.2854 81.0539C94.5491 80.5115 94.9066 80.0984 95.3558 79.8151C95.8062 79.5228 96.3092 79.377 96.866 79.377C97.4239 79.377 97.9269 79.5228 98.3773 79.8151C98.8265 80.0984 99.1798 80.5078 99.4371 81.0415C99.7018 81.5752 99.8337 82.1972 99.8337 82.906C99.8337 83.615 99.6987 84.2407 99.4266 84.7831C99.1629 85.3169 98.8012 85.7299 98.3446 86.0221C97.8879 86.3142 97.3807 86.4601 96.8238 86.4601ZM96.8238 85.459C97.1729 85.459 97.5019 85.3632 97.8088 85.1711C98.1157 84.979 98.3625 84.6912 98.5481 84.3077C98.7411 83.9241 98.8371 83.4567 98.8371 82.906C98.8371 82.3555 98.7453 81.888 98.5587 81.5045C98.373 81.121 98.1305 80.8368 97.831 80.6535C97.5304 80.4614 97.2056 80.3656 96.8555 80.3656C96.499 80.3656 96.17 80.4614 95.8705 80.6535C95.5773 80.8368 95.3421 81.121 95.1628 81.5045C94.9846 81.888 94.896 82.3555 94.896 82.906C94.896 83.4648 94.9814 83.9366 95.1523 84.3201C95.3305 84.7037 95.5668 84.9915 95.8599 85.1836C96.1531 85.3669 96.4737 85.459 96.8238 85.459ZM43.0561 105.206C42.5636 105.206 42.1206 105.106 41.7272 104.906C41.3423 104.698 41.0386 104.413 40.8171 104.055C40.5957 103.688 40.4818 103.267 40.4744 102.791H41.5132C41.549 103.2 41.6914 103.546 41.9424 103.83C42.1987 104.105 42.5699 104.243 43.0561 104.243C43.5201 104.243 43.8839 104.109 44.1486 103.842C44.4197 103.567 44.5557 103.216 44.5557 102.791C44.5557 102.458 44.4766 102.186 44.3205 101.978C44.1623 101.769 43.9662 101.61 43.731 101.502C43.4948 101.394 43.1773 101.277 42.7776 101.152C42.2851 101.001 41.8886 100.851 41.5881 100.701C41.2959 100.551 41.0418 100.318 40.8277 100C40.621 99.675 40.5176 99.2414 40.5176 98.6989C40.5176 98.2233 40.621 97.8022 40.8277 97.435C41.0344 97.0677 41.3244 96.7842 41.6956 96.584C42.0742 96.3837 42.5055 96.2837 42.9917 96.2837C43.6909 96.2837 44.2625 96.4882 44.7054 96.8969C45.1558 97.3054 45.4089 97.8479 45.4658 98.5237H44.3954C44.3595 98.1902 44.2087 97.898 43.9451 97.6477C43.6804 97.3893 43.3313 97.2598 42.8957 97.2598C42.4887 97.2598 42.1565 97.3849 41.8991 97.6352C41.6418 97.8773 41.5132 98.219 41.5132 98.6614C41.5132 98.9786 41.5881 99.237 41.7389 99.4373C41.8949 99.6375 42.0848 99.792 42.3062 99.9003C42.534 100 42.8525 100.117 43.2596 100.251C43.7521 100.409 44.1486 100.568 44.4481 100.726C44.7487 100.876 45.006 101.114 45.2201 101.44C45.4342 101.757 45.5407 102.19 45.5407 102.741C45.5407 103.166 45.4447 103.567 45.2517 103.942C45.0587 104.318 44.7729 104.623 44.3954 104.856C44.0168 105.089 43.5707 105.206 43.0561 105.206ZM49.5355 105.231C48.9861 105.231 48.4862 105.086 48.0359 104.793C47.5929 104.501 47.2428 104.088 46.9865 103.554C46.7366 103.012 46.6111 102.386 46.6111 101.677C46.6111 100.976 46.7398 100.359 46.9971 99.8252C47.2607 99.2827 47.6182 98.8697 48.0686 98.5863C48.5178 98.2941 49.0219 98.1482 49.5788 98.1482C50.1356 98.1482 50.6386 98.2941 51.089 98.5863C51.5393 98.8697 51.8926 99.2789 52.1488 99.8126C52.4135 100.346 52.5453 100.968 52.5453 101.677C52.5453 102.386 52.4104 103.012 52.1383 103.554C51.8746 104.088 51.514 104.501 51.0563 104.793C50.5996 105.086 50.0924 105.231 49.5355 105.231ZM49.5355 104.23C49.8857 104.23 50.2147 104.134 50.5216 103.942C50.8285 103.75 51.0742 103.462 51.2598 103.079C51.4528 102.695 51.5498 102.228 51.5498 101.677C51.5498 101.127 51.457 100.659 51.2714 100.276C51.0847 99.8921 50.8422 99.6081 50.5427 99.4247C50.2421 99.2326 49.9173 99.1369 49.5682 99.1369C49.2107 99.1369 48.8827 99.2326 48.5822 99.4247C48.289 99.6081 48.0538 99.8921 47.8756 100.276C47.6974 100.659 47.6077 101.127 47.6077 101.677C47.6077 102.236 47.6931 102.708 47.865 103.091C48.0433 103.475 48.2784 103.763 48.5716 103.955C48.8648 104.138 49.1854 104.23 49.5355 104.23ZM54.8022 95.8582V105.119H53.8277V95.8582H54.8022ZM56.9673 97.1471C56.7806 97.1471 56.6245 97.072 56.4959 96.9219C56.3672 96.7717 56.3029 96.5884 56.3029 96.3713C56.3029 96.1541 56.3672 95.9708 56.4959 95.8206C56.6245 95.6705 56.7806 95.5954 56.9673 95.5954C57.1455 95.5954 57.2953 95.6705 57.4166 95.8206C57.5452 95.9708 57.6095 96.1541 57.6095 96.3713C57.6095 96.5884 57.5452 96.7717 57.4166 96.9219C57.2953 97.072 57.1455 97.1471 56.9673 97.1471ZM57.4387 98.2608V105.119H56.4632V98.2608H57.4387ZM58.7359 101.665C58.7359 100.964 58.8561 100.351 59.0997 99.8252C59.3423 99.2914 59.6744 98.8785 60.0963 98.5863C60.5245 98.2941 61.0022 98.1482 61.5316 98.1482C61.9883 98.1482 62.4132 98.2734 62.8056 98.5237C63.1989 98.7658 63.4984 99.0868 63.7062 99.4873V95.8582H64.6912V105.119H63.7062V103.83C63.5132 104.238 63.2274 104.576 62.8488 104.843C62.4702 105.102 62.0273 105.231 61.5211 105.231C60.999 105.231 60.5245 105.081 60.0963 104.781C59.6744 104.48 59.3423 104.059 59.0997 103.517C58.8561 102.974 58.7359 102.357 58.7359 101.665ZM63.7062 101.677C63.7062 101.16 63.6166 100.709 63.4383 100.326C63.259 99.9422 63.0165 99.6499 62.7096 99.4498C62.4101 99.2414 62.0779 99.1369 61.713 99.1369C61.3492 99.1369 61.017 99.237 60.7175 99.4373C60.4169 99.6375 60.1775 99.9297 59.9993 100.313C59.8211 100.697 59.7314 101.147 59.7314 101.665C59.7314 102.19 59.8211 102.649 59.9993 103.041C60.1775 103.425 60.4169 103.721 60.7175 103.93C61.017 104.13 61.3492 104.23 61.713 104.23C62.0779 104.23 62.4101 104.13 62.7096 103.93C63.0165 103.721 63.259 103.425 63.4383 103.041C63.6166 102.649 63.7062 102.195 63.7062 101.677ZM65.9736 101.665C65.9736 100.964 66.0959 100.351 66.3385 99.8252C66.581 99.2914 66.9132 98.8785 67.334 98.5863C67.7632 98.2941 68.2378 98.1482 68.7588 98.1482C69.2734 98.1482 69.7195 98.2778 70.0981 98.5362C70.4767 98.7947 70.7594 99.12 70.9439 99.5123V98.2608H71.93V105.119H70.9439V103.842C70.752 104.243 70.462 104.576 70.0771 104.843C69.6985 105.102 69.2555 105.231 68.7482 105.231C68.2273 105.231 67.7559 105.081 67.334 104.781C66.9132 104.48 66.581 104.059 66.3385 103.517C66.0959 102.974 65.9736 102.357 65.9736 101.665ZM70.9439 101.677C70.9439 101.16 70.8553 100.709 70.6761 100.326C70.4978 99.9422 70.2553 99.6499 69.9484 99.4498C69.6478 99.2414 69.3167 99.1369 68.9518 99.1369C68.5879 99.1369 68.2557 99.237 67.9562 99.4373C67.6557 99.6375 67.4173 99.9297 67.238 100.313C67.0598 100.697 66.9702 101.147 66.9702 101.665C66.9702 102.19 67.0598 102.649 67.238 103.041C67.4173 103.425 67.6557 103.721 67.9562 103.93C68.2557 104.13 68.5879 104.23 68.9518 104.23C69.3167 104.23 69.6478 104.13 69.9484 103.93C70.2553 103.721 70.4978 103.425 70.6761 103.041C70.8553 102.649 70.9439 102.195 70.9439 101.677ZM74.5517 99.3747C74.7236 98.9824 74.9662 98.6782 75.2804 98.4611C75.6021 98.244 75.9912 98.1358 76.4479 98.1358V99.3121H76.1906C75.098 99.3121 74.5517 100.005 74.5517 101.389V105.119H73.5773V98.2608H74.5517V99.3747ZM78.0773 97.1471C77.8906 97.1471 77.7345 97.072 77.6058 96.9219C77.4772 96.7717 77.4129 96.5884 77.4129 96.3713C77.4129 96.1541 77.4772 95.9708 77.6058 95.8206C77.7345 95.6705 77.8906 95.5954 78.0773 95.5954C78.2555 95.5954 78.4052 95.6705 78.5265 95.8206C78.6552 95.9708 78.7195 96.1541 78.7195 96.3713C78.7195 96.5884 78.6552 96.7717 78.5265 96.9219C78.4052 97.072 78.2555 97.1471 78.0773 97.1471ZM78.5487 98.2608V105.119H77.5732V98.2608H78.5487ZM85.566 101.427C85.566 101.644 85.5544 101.873 85.5333 102.115H80.8414C80.8772 102.791 81.0734 103.321 81.4309 103.705C81.7947 104.08 82.2345 104.268 82.7481 104.268C83.1689 104.268 83.52 104.155 83.7985 103.93C84.0832 103.696 84.2836 103.387 84.3975 103.004H85.4478C85.2907 103.663 84.9765 104.201 84.505 104.618C84.0336 105.027 83.4473 105.231 82.7481 105.231C82.1912 105.231 81.6914 105.086 81.2484 104.793C80.8129 104.501 80.4701 104.088 80.2202 103.554C79.9702 103.012 79.8458 102.386 79.8458 101.677C79.8458 100.968 79.966 100.346 80.2097 99.8126C80.4522 99.2789 80.7907 98.8697 81.2273 98.5863C81.6692 98.2941 82.1765 98.1482 82.7481 98.1482C83.3049 98.1482 83.7985 98.2904 84.2266 98.5737C84.6548 98.8572 84.9838 99.2496 85.2116 99.7501C85.4478 100.243 85.566 100.801 85.566 101.427ZM84.5588 101.189C84.5588 100.756 84.4766 100.384 84.312 100.075C84.1475 99.7583 83.9229 99.5205 83.6371 99.3622C83.3587 99.195 83.0486 99.1118 82.7059 99.1118C82.2123 99.1118 81.7916 99.2952 81.4414 99.6625C81.0987 100.03 80.9025 100.538 80.8519 101.189H84.5588ZM86.4877 101.665C86.4877 100.964 86.609 100.351 86.8515 99.8252C87.0951 99.2914 87.4263 98.8785 87.8481 98.5863C88.2763 98.2941 88.7551 98.1482 89.2834 98.1482C89.7401 98.1482 90.1661 98.2734 90.5584 98.5237C90.9508 98.7658 91.2513 99.0868 91.458 99.4873V95.8582H92.4441V105.119H91.458V103.83C91.265 104.238 90.9803 104.576 90.6017 104.843C90.222 105.102 89.7802 105.231 89.2729 105.231C88.7519 105.231 88.2763 105.081 87.8481 104.781C87.4263 104.48 87.0951 104.059 86.8515 103.517C86.609 102.974 86.4877 102.357 86.4877 101.665ZM91.458 101.677C91.458 101.16 91.3684 100.709 91.1902 100.326C91.0119 99.9422 90.7683 99.6499 90.4614 99.4498C90.1619 99.2414 89.8297 99.1369 89.4659 99.1369C89.101 99.1369 88.7699 99.237 88.4693 99.4373C88.1698 99.6375 87.9304 99.9297 87.7521 100.313C87.5739 100.697 87.4843 101.147 87.4843 101.665C87.4843 102.19 87.5739 102.649 87.7521 103.041C87.9304 103.425 88.1698 103.721 88.4693 103.93C88.7699 104.13 89.101 104.23 89.4659 104.23C89.8297 104.23 90.1619 104.13 90.4614 103.93C90.7683 103.721 91.0119 103.425 91.1902 103.041C91.3684 102.649 91.458 102.195 91.458 101.677ZM93.7265 101.665C93.7265 100.964 93.8478 100.351 94.0914 99.8252C94.3339 99.2914 94.6661 98.8785 95.0869 98.5863C95.5161 98.2941 95.9907 98.1482 96.5117 98.1482C97.0263 98.1482 97.4724 98.2778 97.851 98.5362C98.2286 98.7947 98.5112 99.12 98.6968 99.5123V98.2608H99.6829V105.119H98.6968V103.842C98.5049 104.243 98.2148 104.576 97.8299 104.843C97.4513 105.102 97.0084 105.231 96.5011 105.231C95.9791 105.231 95.5088 105.081 95.0869 104.781C94.6661 104.48 94.3339 104.059 94.0914 103.517C93.8478 102.974 93.7265 102.357 93.7265 101.665ZM98.6968 101.677C98.6968 101.16 98.6082 100.709 98.4289 100.326C98.2507 99.9422 98.0082 99.6499 97.7013 99.4498C97.4007 99.2414 97.0685 99.1369 96.7047 99.1369C96.3408 99.1369 96.0086 99.237 95.7081 99.4373C95.4086 99.6375 95.1692 99.9297 94.9909 100.313C94.8117 100.697 94.7231 101.147 94.7231 101.665C94.7231 102.19 94.8117 102.649 94.9909 103.041C95.1692 103.425 95.4086 103.721 95.7081 103.93C96.0086 104.13 96.3408 104.23 96.7047 104.23C97.0685 104.23 97.4007 104.13 97.7013 103.93C98.0082 103.721 98.2507 103.425 98.4289 103.041C98.6082 102.649 98.6968 102.195 98.6968 101.677ZM100.965 101.665C100.965 100.964 101.087 100.351 101.33 99.8252C101.573 99.2914 101.905 98.8785 102.326 98.5863C102.754 98.2941 103.233 98.1482 103.761 98.1482C104.219 98.1482 104.644 98.2734 105.036 98.5237C105.429 98.7658 105.729 99.0868 105.936 99.4873V95.8582H106.922V105.119H105.936V103.83C105.743 104.238 105.458 104.576 105.079 104.843C104.701 105.102 104.258 105.231 103.75 105.231C103.229 105.231 102.754 105.081 102.326 104.781C101.905 104.48 101.573 104.059 101.33 103.517C101.087 102.974 100.965 102.357 100.965 101.665ZM105.936 101.677C105.936 101.16 105.847 100.709 105.668 100.326C105.489 99.9422 105.247 99.6499 104.94 99.4498C104.639 99.2414 104.307 99.1369 103.943 99.1369C103.58 99.1369 103.247 99.237 102.947 99.4373C102.647 99.6375 102.408 99.9297 102.23 100.313C102.051 100.697 101.962 101.147 101.962 101.665C101.962 102.19 102.051 102.649 102.23 103.041C102.408 103.425 102.647 103.721 102.947 103.93C103.247 104.13 103.58 104.23 103.943 104.23C104.307 104.23 104.639 104.13 104.94 103.93C105.247 103.721 105.489 103.425 105.668 103.041C105.847 102.649 105.936 102.195 105.936 101.677ZM113.925 101.427C113.925 101.644 113.915 101.873 113.894 102.115H109.201C109.236 102.791 109.433 103.321 109.79 103.705C110.154 104.08 110.594 104.268 111.107 104.268C111.529 104.268 111.878 104.155 112.157 103.93C112.442 103.696 112.641 103.387 112.758 103.004H113.808C113.647 103.663 113.337 104.201 112.865 104.618C112.393 105.027 111.808 105.231 111.107 105.231C110.551 105.231 110.051 105.086 109.608 104.793C109.172 104.501 108.829 104.088 108.579 103.554C108.33 103.012 108.204 102.386 108.204 101.677C108.204 100.968 108.326 100.346 108.569 99.8126C108.811 99.2789 109.151 98.8697 109.587 98.5863C110.03 98.2941 110.536 98.1482 111.107 98.1482C111.664 98.1482 112.157 98.2904 112.587 98.5737C113.015 98.8572 113.342 99.2496 113.572 99.7501C113.808 100.243 113.925 100.801 113.925 101.427ZM112.919 101.189C112.919 100.756 112.833 100.384 112.672 100.075C112.507 99.7583 112.282 99.5205 111.996 99.3622C111.718 99.195 111.407 99.1118 111.064 99.1118C110.572 99.1118 110.151 99.2952 109.801 99.6625C109.458 100.03 109.261 100.538 109.211 101.189H112.919ZM33.861 123.889L32.0829 120.323H30.9049V123.889H29.9294V115.167H32.3402C32.9034 115.167 33.379 115.28 33.765 115.505C34.1573 115.73 34.4505 116.035 34.6424 116.419C34.8354 116.802 34.9325 117.241 34.9325 117.733C34.9325 118.333 34.7827 118.863 34.4821 119.322C34.189 119.78 33.746 120.086 33.1544 120.236L35.0284 123.889H33.861ZM30.9049 119.409H32.3402C32.8675 119.409 33.2641 119.259 33.5288 118.959C33.7924 118.651 33.9253 118.241 33.9253 117.733C33.9253 117.216 33.7924 116.814 33.5288 116.532C33.2715 116.248 32.876 116.106 32.3402 116.106H30.9049V119.409ZM41.8032 120.199C41.8032 120.416 41.7916 120.644 41.7705 120.886H37.0786C37.1144 121.562 37.3106 122.093 37.6681 122.476C38.0319 122.851 38.4717 123.039 38.9853 123.039C39.4061 123.039 39.7572 122.926 40.0357 122.701C40.3204 122.468 40.5208 122.158 40.6347 121.775H41.6851C41.5279 122.434 41.2137 122.972 40.7423 123.39C40.2709 123.798 39.6845 124.002 38.9853 124.002C38.4284 124.002 37.9286 123.857 37.4856 123.565C37.0501 123.272 36.7074 122.859 36.4574 122.326C36.2075 121.783 36.083 121.158 36.083 120.449C36.083 119.74 36.2033 119.118 36.4469 118.584C36.6894 118.05 37.028 117.641 37.4646 117.357C37.9064 117.066 38.4137 116.92 38.9853 116.92C39.5421 116.92 40.0357 117.061 40.4638 117.345C40.892 117.629 41.2211 118.021 41.4489 118.521C41.6851 119.014 41.8032 119.572 41.8032 120.199ZM40.796 119.96C40.796 119.527 40.7138 119.155 40.5493 118.846C40.3847 118.53 40.1601 118.291 39.8743 118.133C39.5959 117.967 39.2859 117.883 38.9431 117.883C38.4496 117.883 38.0288 118.066 37.6786 118.434C37.3359 118.801 37.1398 119.31 37.0891 119.96H40.796ZM45.1673 124.002C44.717 124.002 44.3142 123.915 43.9567 123.74C43.5992 123.556 43.3176 123.306 43.1109 122.989C42.9031 122.664 42.7892 122.293 42.7681 121.876H43.7753C43.8027 122.217 43.9387 122.496 44.1824 122.713C44.4323 122.931 44.7561 123.039 45.1568 123.039C45.528 123.039 45.8212 122.943 46.0353 122.751C46.2494 122.559 46.3559 122.318 46.3559 122.025C46.3559 121.725 46.242 121.504 46.0131 121.362C45.7853 121.212 45.431 121.066 44.9533 120.924C44.5177 120.791 44.1602 120.657 43.8818 120.523C43.6108 120.382 43.3745 120.177 43.1752 119.91C42.9822 119.634 42.8852 119.276 42.8852 118.834C42.8852 118.483 42.9749 118.162 43.1531 117.871C43.3324 117.579 43.5855 117.349 43.9145 117.182C44.2425 117.007 44.6169 116.92 45.0387 116.92C45.6883 116.92 46.2135 117.112 46.6132 117.495C47.014 117.878 47.2281 118.404 47.2565 119.071H46.281C46.2599 118.713 46.1355 118.426 45.9066 118.209C45.6852 117.992 45.3857 117.883 45.0071 117.883C44.6569 117.883 44.3785 117.971 44.1708 118.145C43.9641 118.321 43.8607 118.551 43.8607 118.834C43.8607 119.059 43.9208 119.247 44.0421 119.397C44.1708 119.54 44.3279 119.656 44.5135 119.748C44.7065 119.831 44.9712 119.927 45.3066 120.036C45.7284 120.169 46.0712 120.303 46.3348 120.436C46.5995 120.561 46.8241 120.753 47.0097 121.012C47.2027 121.27 47.3029 121.608 47.3092 122.025C47.3092 122.4 47.2207 122.738 47.0414 123.039C46.8632 123.339 46.61 123.577 46.281 123.753C45.9604 123.919 45.5892 124.002 45.1673 124.002ZM49.66 118.296C49.853 117.903 50.1388 117.579 50.5174 117.32C50.9034 117.053 51.3494 116.92 51.8567 116.92C52.3777 116.92 52.8491 117.066 53.2699 117.357C53.6991 117.65 54.0344 118.063 54.277 118.597C54.5206 119.122 54.6419 119.735 54.6419 120.436C54.6419 121.128 54.5206 121.746 54.277 122.288C54.0344 122.831 53.6991 123.252 53.2699 123.552C52.8491 123.852 52.3777 124.002 51.8567 124.002C51.3568 124.002 50.9139 123.872 50.5279 123.615C50.1503 123.348 49.8603 123.019 49.66 122.626V127.144H48.6855V117.032H49.66V118.296ZM53.6453 120.436C53.6453 119.918 53.5567 119.468 53.3774 119.085C53.1992 118.701 52.9567 118.409 52.6487 118.209C52.3492 118.009 52.017 117.908 51.6532 117.908C51.2957 117.908 50.9645 118.013 50.6566 118.221C50.3571 118.421 50.1145 118.717 49.9278 119.11C49.7496 119.493 49.66 119.94 49.66 120.449C49.66 120.966 49.7496 121.42 49.9278 121.812C50.1145 122.196 50.3571 122.493 50.6566 122.701C50.9645 122.901 51.2957 123.002 51.6532 123.002C52.017 123.002 52.3492 122.901 52.6487 122.701C52.9567 122.493 53.1992 122.196 53.3774 121.812C53.5567 121.42 53.6453 120.962 53.6453 120.436ZM58.4849 124.002C57.9344 124.002 57.4355 123.857 56.9852 123.565C56.5423 123.272 56.1922 122.859 55.9359 122.326C55.6849 121.783 55.5605 121.158 55.5605 120.449C55.5605 119.748 55.6891 119.13 55.9464 118.597C56.2101 118.054 56.5676 117.641 57.0169 117.357C57.4672 117.066 57.9702 116.92 58.5281 116.92C59.0849 116.92 59.588 117.066 60.0383 117.357C60.4876 117.641 60.8419 118.05 61.0982 118.584C61.3629 119.118 61.4947 119.74 61.4947 120.449C61.4947 121.158 61.3597 121.783 61.0876 122.326C60.824 122.859 60.4633 123.272 60.0056 123.565C59.549 123.857 59.0417 124.002 58.4849 124.002ZM58.4849 123.002C58.835 123.002 59.163 122.906 59.4699 122.713C59.7767 122.521 60.0235 122.234 60.2091 121.85C60.4021 121.466 60.4992 120.999 60.4992 120.449C60.4992 119.898 60.4063 119.431 60.2197 119.047C60.0341 118.663 59.7915 118.379 59.492 118.196C59.1914 118.004 58.8666 117.908 58.5165 117.908C58.1601 117.908 57.831 118.004 57.5315 118.196C57.2383 118.379 57.0032 118.663 56.8249 119.047C56.6456 119.431 56.5571 119.898 56.5571 120.449C56.5571 121.007 56.6425 121.479 56.8133 121.862C56.9926 122.246 57.2278 122.534 57.521 122.726C57.8141 122.909 58.1347 123.002 58.4849 123.002ZM65.6361 116.907C66.3501 116.907 66.9291 117.162 67.372 117.67C67.8149 118.171 68.0364 118.897 68.0364 119.848V123.889H67.0725V120.011C67.0725 119.327 66.9259 118.805 66.6327 118.446C66.3395 118.079 65.9398 117.895 65.4326 117.895C64.919 117.895 64.5077 118.083 64.2008 118.459C63.9013 118.834 63.7515 119.38 63.7515 120.098V123.889H62.7771V117.032H63.7515V118.009C63.9445 117.658 64.205 117.387 64.533 117.194C64.8694 117.002 65.2364 116.907 65.6361 116.907ZM71.7064 124.002C71.2561 124.002 70.8532 123.915 70.4957 123.74C70.1393 123.556 69.8566 123.306 69.6499 122.989C69.4422 122.664 69.3283 122.293 69.3072 121.876H70.3143C70.3428 122.217 70.4788 122.496 70.7214 122.713C70.9713 122.931 71.2962 123.039 71.6959 123.039C72.0671 123.039 72.3602 122.943 72.5743 122.751C72.7884 122.559 72.896 122.318 72.896 122.025C72.896 121.725 72.781 121.504 72.5532 121.362C72.3244 121.212 71.97 121.066 71.4923 120.924C71.0568 120.791 70.6993 120.657 70.4208 120.523C70.1498 120.382 69.9136 120.177 69.7142 119.91C69.5213 119.634 69.4253 119.276 69.4253 118.834C69.4253 118.483 69.5139 118.162 69.6932 117.871C69.8714 117.579 70.1245 117.349 70.4535 117.182C70.7815 117.007 71.157 116.92 71.5778 116.92C72.2274 116.92 72.7526 117.112 73.1523 117.495C73.553 117.878 73.7671 118.404 73.7956 119.071H72.8201C72.799 118.713 72.6745 118.426 72.4457 118.209C72.2242 117.992 71.9247 117.883 71.5461 117.883C71.196 117.883 70.9175 117.971 70.7098 118.145C70.5031 118.321 70.3998 118.551 70.3998 118.834C70.3998 119.059 70.4599 119.247 70.5822 119.397C70.7098 119.54 70.8669 119.656 71.0536 119.748C71.2455 119.831 71.5103 119.927 71.8456 120.036C72.2675 120.169 72.6102 120.303 72.8738 120.436C73.1385 120.561 73.3632 120.753 73.5488 121.012C73.7418 121.27 73.842 121.608 73.8494 122.025C73.8494 122.4 73.7597 122.738 73.5815 123.039C73.4033 123.339 73.1491 123.577 72.8201 123.753C72.4995 123.919 72.1282 124.002 71.7064 124.002ZM74.8607 120.436C74.8607 119.735 74.982 119.122 75.2245 118.597C75.4671 118.063 75.7993 117.65 76.2211 117.357C76.6493 117.066 77.125 116.92 77.6459 116.92C78.1595 116.92 78.6056 117.049 78.9842 117.307C79.3639 117.565 79.6454 117.891 79.831 118.283V117.032H80.816V123.889H79.831V122.614C79.6381 123.014 79.3491 123.348 78.9631 123.615C78.5845 123.872 78.1426 124.002 77.6354 124.002C77.1144 124.002 76.643 123.852 76.2211 123.552C75.7993 123.252 75.4671 122.831 75.2245 122.288C74.982 121.746 74.8607 121.128 74.8607 120.436ZM79.831 120.449C79.831 119.931 79.7414 119.481 79.5632 119.097C79.385 118.713 79.1413 118.421 78.8344 118.221C78.5349 118.013 78.2027 117.908 77.8389 117.908C77.474 117.908 77.1418 118.009 76.8423 118.209C76.5428 118.409 76.3034 118.701 76.1241 119.085C75.9459 119.468 75.8573 119.918 75.8573 120.436C75.8573 120.962 75.9459 121.42 76.1241 121.812C76.3034 122.196 76.5428 122.493 76.8423 122.701C77.1418 122.901 77.474 123.002 77.8389 123.002C78.2027 123.002 78.5349 122.901 78.8344 122.701C79.1413 122.493 79.385 122.196 79.5632 121.812C79.7414 121.42 79.831 120.966 79.831 120.449ZM83.4388 118.308C83.6381 117.9 83.9313 117.565 84.3173 117.307C84.7022 117.049 85.142 116.92 85.6345 116.92C86.1629 116.92 86.6374 117.066 87.0593 117.357C87.4801 117.65 87.8123 118.063 88.0559 118.597C88.2985 119.122 88.4197 119.735 88.4197 120.436C88.4197 121.128 88.2985 121.746 88.0559 122.288C87.8123 122.831 87.4769 123.252 87.0487 123.552C86.6269 123.852 86.1555 124.002 85.6345 124.002C85.1272 124.002 84.6812 123.872 84.2952 123.615C83.9166 123.356 83.6318 123.027 83.4388 122.626V123.889H82.4644V114.63H83.4388V118.308ZM87.4231 120.436C87.4231 119.918 87.3345 119.468 87.1553 119.085C86.977 118.701 86.7345 118.409 86.4276 118.209C86.127 118.009 85.7948 117.908 85.431 117.908C85.0735 117.908 84.7413 118.013 84.4344 118.221C84.1349 118.421 83.8923 118.717 83.7067 119.11C83.5274 119.493 83.4388 119.94 83.4388 120.449C83.4388 120.966 83.5274 121.42 83.7067 121.812C83.8923 122.196 84.1349 122.493 84.4344 122.701C84.7413 122.901 85.0735 123.002 85.431 123.002C85.7948 123.002 86.127 122.901 86.4276 122.701C86.7345 122.493 86.977 122.196 87.1553 121.812C87.3345 121.42 87.4231 120.962 87.4231 120.436ZM90.2062 115.918C90.0206 115.918 89.8635 115.843 89.7348 115.693C89.6061 115.542 89.5418 115.359 89.5418 115.142C89.5418 114.925 89.6061 114.742 89.7348 114.591C89.8635 114.442 90.0206 114.366 90.2062 114.366C90.3844 114.366 90.5353 114.442 90.6555 114.591C90.7841 114.742 90.8485 114.925 90.8485 115.142C90.8485 115.359 90.7841 115.542 90.6555 115.693C90.5353 115.843 90.3844 115.918 90.2062 115.918ZM90.6776 117.032V123.889H89.7021V117.032H90.6776ZM93.3131 114.63V123.889H92.3386V114.63H93.3131ZM95.4782 115.918C95.2926 115.918 95.1354 115.843 95.0067 115.693C94.8781 115.542 94.8138 115.359 94.8138 115.142C94.8138 114.925 94.8781 114.742 95.0067 114.591C95.1354 114.442 95.2926 114.366 95.4782 114.366C95.6564 114.366 95.8062 114.442 95.9285 114.591C96.0571 114.742 96.1215 114.925 96.1215 115.142C96.1215 115.359 96.0571 115.542 95.9285 115.693C95.8062 115.843 95.6564 115.918 95.4782 115.918ZM95.9496 117.032V123.889H94.9751V117.032H95.9496ZM97.2467 120.436C97.2467 119.735 97.368 119.122 97.6106 118.597C97.8531 118.063 98.1853 117.65 98.6072 117.357C99.0353 117.066 99.5141 116.92 100.042 116.92C100.499 116.92 100.925 117.045 101.317 117.295C101.71 117.537 102.009 117.858 102.217 118.258V114.63H103.203V123.889H102.217V122.6C102.024 123.01 101.739 123.348 101.36 123.615C100.981 123.872 100.539 124.002 100.032 124.002C99.511 124.002 99.0353 123.852 98.6072 123.552C98.1853 123.252 97.8531 122.831 97.6106 122.288C97.368 121.746 97.2467 121.128 97.2467 120.436ZM102.217 120.449C102.217 119.931 102.127 119.481 101.949 119.097C101.771 118.713 101.527 118.421 101.22 118.221C100.921 118.013 100.589 117.908 100.225 117.908C99.86 117.908 99.5289 118.009 99.2283 118.209C98.9288 118.409 98.6894 118.701 98.5112 119.085C98.333 119.468 98.2433 119.918 98.2433 120.436C98.2433 120.962 98.333 121.42 98.5112 121.812C98.6894 122.196 98.9288 122.493 99.2283 122.701C99.5289 122.901 99.86 123.002 100.225 123.002C100.589 123.002 100.921 122.901 101.22 122.701C101.527 122.493 101.771 122.196 101.949 121.812C102.127 121.42 102.217 120.966 102.217 120.449ZM104.486 120.436C104.486 119.735 104.607 119.122 104.85 118.597C105.093 118.063 105.425 117.65 105.846 117.357C106.275 117.066 106.75 116.92 107.271 116.92C107.785 116.92 108.231 117.049 108.61 117.307C108.988 117.565 109.27 117.891 109.456 118.283V117.032H110.442V123.889H109.456V122.614C109.263 123.014 108.974 123.348 108.589 123.615C108.21 123.872 107.767 124.002 107.26 124.002C106.738 124.002 106.267 123.852 105.846 123.552C105.425 123.252 105.093 122.831 104.85 122.288C104.607 121.746 104.486 121.128 104.486 120.436ZM109.456 120.449C109.456 119.931 109.366 119.481 109.188 119.097C109.01 118.713 108.767 118.421 108.46 118.221C108.16 118.013 107.828 117.908 107.464 117.908C107.1 117.908 106.768 118.009 106.467 118.209C106.168 118.409 105.928 118.701 105.75 119.085C105.571 119.468 105.482 119.918 105.482 120.436C105.482 120.962 105.571 121.42 105.75 121.812C105.928 122.196 106.168 122.493 106.467 122.701C106.768 122.901 107.1 123.002 107.464 123.002C107.828 123.002 108.16 122.901 108.46 122.701C108.767 122.493 109.01 122.196 109.188 121.812C109.366 121.42 109.456 120.966 109.456 120.449ZM111.724 120.436C111.724 119.735 111.846 119.122 112.088 118.597C112.332 118.063 112.662 117.65 113.085 117.357C113.513 117.066 113.99 116.92 114.52 116.92C114.976 116.92 115.404 117.045 115.795 117.295C116.186 117.537 116.486 117.858 116.695 118.258V114.63H117.681V123.889H116.695V122.6C116.502 123.01 116.218 123.348 115.838 123.615C115.458 123.872 115.018 124.002 114.509 124.002C113.99 124.002 113.513 123.852 113.085 123.552C112.662 123.252 112.332 122.831 112.088 122.288C111.846 121.746 111.724 121.128 111.724 120.436ZM116.695 120.449C116.695 119.931 116.604 119.481 116.427 119.097C116.251 118.713 116.004 118.421 115.698 118.221C115.399 118.013 115.066 117.908 114.702 117.908C114.338 117.908 114.006 118.009 113.706 118.209C113.406 118.409 113.165 118.701 112.989 119.085C112.812 119.468 112.721 119.918 112.721 120.436C112.721 120.962 112.812 121.42 112.989 121.812C113.165 122.196 113.406 122.493 113.706 122.701C114.006 122.901 114.338 123.002 114.702 123.002C115.066 123.002 115.399 122.901 115.698 122.701C116.004 122.493 116.251 122.196 116.427 121.812C116.604 121.42 116.695 120.966 116.695 120.449ZM124.685 120.199C124.685 120.416 124.675 120.644 124.654 120.886H119.962C119.994 121.562 120.192 122.093 120.551 122.476C120.915 122.851 121.354 123.039 121.868 123.039C122.286 123.039 122.639 122.926 122.918 122.701C123.203 122.468 123.401 122.158 123.518 121.775H124.568C124.407 122.434 124.097 122.972 123.625 123.39C123.154 123.798 122.565 124.002 121.868 124.002C121.312 124.002 120.808 123.857 120.369 123.565C119.93 123.272 119.587 122.859 119.341 122.326C119.089 121.783 118.965 121.158 118.965 120.449C118.965 119.74 119.083 119.118 119.33 118.584C119.571 118.05 119.908 117.641 120.348 117.357C120.786 117.066 121.296 116.92 121.868 116.92C122.425 116.92 122.918 117.061 123.347 117.345C123.775 117.629 124.102 118.021 124.332 118.521C124.568 119.014 124.685 119.572 124.685 120.199ZM123.679 119.96C123.679 119.527 123.593 119.155 123.433 118.846C123.267 118.53 123.041 118.291 122.758 118.133C122.479 117.967 122.168 117.883 121.825 117.883C121.333 117.883 120.91 118.066 120.562 118.434C120.219 118.801 120.021 119.31 119.972 119.96H123.679ZM48.3713 140.721H45.1146L44.5146 142.662H43.4863L46.1851 133.989H47.3103L49.9985 142.662H48.9703L48.3713 140.721ZM48.0918 139.795L46.7429 135.39L45.3931 139.795H48.0918ZM50.8116 139.22C50.8116 138.511 50.9329 137.893 51.1754 137.368C51.418 136.834 51.7544 136.421 52.1826 136.128C52.6181 135.837 53.1148 135.691 53.6717 135.691C54.392 135.691 54.9857 135.895 55.4497 136.304C55.9211 136.713 56.2312 137.281 56.382 138.005H55.3316C55.2314 137.588 55.0353 137.259 54.7431 137.017C54.4563 136.775 54.0998 136.654 53.6717 136.654C53.1148 136.654 52.6645 136.879 52.3218 137.33C51.979 137.772 51.8071 138.402 51.8071 139.22C51.8071 140.045 51.979 140.684 52.3218 141.134C52.6645 141.585 53.1148 141.81 53.6717 141.81C54.0998 141.81 54.4563 141.693 54.7431 141.46C55.0279 141.227 55.2251 140.892 55.3316 140.459H56.382C56.2238 141.159 55.9106 141.722 55.4392 142.148C54.9678 142.565 54.3783 142.774 53.6717 142.774C53.1148 142.774 52.6181 142.628 52.1826 142.336C51.7544 142.043 51.418 141.63 51.1754 141.097C50.9329 140.563 50.8116 139.938 50.8116 139.22ZM60.2418 142.774C59.6924 142.774 59.1925 142.628 58.7422 142.336C58.3003 142.043 57.9502 141.63 57.6929 141.097C57.4429 140.554 57.3174 139.929 57.3174 139.22C57.3174 138.519 57.4461 137.901 57.7034 137.368C57.9681 136.825 58.3246 136.412 58.7749 136.128C59.2241 135.837 59.7282 135.691 60.2851 135.691C60.8419 135.691 61.345 135.837 61.7953 136.128C62.2456 136.412 62.5989 136.821 62.8562 137.355C63.1209 137.889 63.2517 138.511 63.2517 139.22C63.2517 139.929 63.1167 140.554 62.8456 141.097C62.5809 141.63 62.2203 142.043 61.7636 142.336C61.3059 142.628 60.7987 142.774 60.2418 142.774ZM60.2418 141.773C60.5919 141.773 60.921 141.677 61.2279 141.485C61.5348 141.292 61.7816 141.005 61.9672 140.622C62.1591 140.237 62.2561 139.77 62.2561 139.22C62.2561 138.669 62.1633 138.202 61.9777 137.818C61.7921 137.434 61.5485 137.15 61.249 136.967C60.9495 136.775 60.6246 136.679 60.2745 136.679C59.9181 136.679 59.589 136.775 59.2885 136.967C58.9963 137.15 58.7612 137.434 58.5819 137.818C58.4036 138.202 58.314 138.669 58.314 139.22C58.314 139.778 58.3995 140.25 58.5714 140.634C58.7496 141.018 58.9858 141.305 59.2779 141.497C59.5711 141.68 59.8927 141.773 60.2418 141.773ZM65.5085 133.401V142.662H64.5341V133.401H65.5085ZM70.0834 135.678C70.5263 135.678 70.926 135.791 71.2835 136.016C71.641 136.233 71.9194 136.563 72.1187 137.005C72.3265 137.447 72.4299 137.985 72.4299 138.619V142.662H71.4659V138.782C71.4659 138.098 71.3194 137.576 71.0262 137.217C70.733 136.85 70.3333 136.667 69.826 136.667C69.3125 136.667 68.9012 136.854 68.5943 137.23C68.2948 137.605 68.145 138.151 68.145 138.869V142.662H67.1706V133.401H68.145V136.78C68.338 136.429 68.6016 136.158 68.937 135.965C69.2797 135.774 69.6626 135.678 70.0834 135.678ZM74.5253 134.69C74.3397 134.69 74.1826 134.614 74.0539 134.464C73.9253 134.315 73.8609 134.13 73.8609 133.913C73.8609 133.696 73.9253 133.513 74.0539 133.363C74.1826 133.213 74.3397 133.138 74.5253 133.138C74.7036 133.138 74.8533 133.213 74.9757 133.363C75.1033 133.513 75.1676 133.696 75.1676 133.913C75.1676 134.13 75.1033 134.315 74.9757 134.464C74.8533 134.614 74.7036 134.69 74.5253 134.69ZM74.9967 135.804V142.662H74.0223V135.804H74.9967ZM83.7173 135.678C84.1739 135.678 84.581 135.791 84.9385 136.016C85.296 136.233 85.5776 136.563 85.7843 137.005C85.992 137.447 86.0954 137.985 86.0954 138.619V142.662H85.1315V138.782C85.1315 138.098 84.9849 137.576 84.6917 137.217C84.407 136.85 84.0167 136.667 83.5242 136.667C83.017 136.667 82.6141 136.859 82.3136 137.242C82.0141 137.617 81.8643 138.164 81.8643 138.882V142.662H80.9004V138.782C80.9004 138.098 80.7538 137.576 80.4606 137.217C80.1748 136.85 79.7857 136.667 79.2932 136.667C78.7859 136.667 78.3831 136.859 78.0825 137.242C77.783 137.617 77.6332 138.164 77.6332 138.882V142.662H76.6578V135.804H77.6332V136.792C77.8252 136.434 78.0825 136.158 78.4042 135.965C78.7322 135.774 79.0939 135.678 79.4862 135.678C79.9787 135.678 80.4142 135.807 80.7928 136.066C81.1714 136.325 81.453 136.704 81.6386 137.205C81.8031 136.721 82.0742 136.345 82.4528 136.079C82.8314 135.812 83.2532 135.678 83.7173 135.678ZM93.0494 138.97C93.0494 139.187 93.0389 139.415 93.0178 139.657H88.3259C88.3617 140.333 88.5589 140.864 88.9154 141.247C89.2792 141.622 89.719 141.81 90.2326 141.81C90.6544 141.81 91.0035 141.697 91.2819 141.472C91.5688 141.239 91.7681 140.929 91.882 140.546H92.9324C92.7752 141.205 92.4609 141.743 91.9895 142.161C91.5181 142.569 90.9328 142.774 90.2326 142.774C89.6758 142.774 89.1759 142.628 88.7329 142.336C88.2974 142.043 87.9546 141.63 87.7047 141.097C87.4548 140.554 87.3292 139.929 87.3292 139.22C87.3292 138.511 87.4516 137.889 87.6941 137.355C87.9367 136.821 88.2763 136.412 88.7118 136.128C89.1548 135.837 89.662 135.691 90.2326 135.691C90.7894 135.691 91.2819 135.833 91.7111 136.116C92.1393 136.4 92.4683 136.792 92.6961 137.293C92.9324 137.785 93.0494 138.343 93.0494 138.97ZM92.0433 138.731C92.0433 138.298 91.9611 137.926 91.7966 137.617C91.6331 137.301 91.4074 137.063 91.1216 136.905C90.8432 136.738 90.5321 136.654 90.1893 136.654C89.6968 136.654 89.276 136.837 88.9259 137.205C88.5832 137.572 88.387 138.081 88.3364 138.731H92.0433ZM97.1972 135.678C97.9111 135.678 98.4891 135.933 98.932 136.442C99.3749 136.942 99.5964 137.668 99.5964 138.619V142.662H98.6325V138.782C98.6325 138.098 98.4859 137.576 98.1927 137.217C97.9006 136.85 97.4998 136.667 96.9936 136.667C96.479 136.667 96.0687 136.854 95.7618 137.23C95.4613 137.605 95.3115 138.151 95.3115 138.869V142.662H94.3371V135.804H95.3115V136.78C95.5045 136.429 95.765 136.158 96.094 135.965C96.4294 135.774 96.7964 135.678 97.1972 135.678ZM102.377 136.742V140.783C102.377 141.117 102.439 141.356 102.56 141.497C102.681 141.63 102.892 141.697 103.192 141.697H103.91V142.662H103.031C102.488 142.662 102.081 142.516 101.81 142.223C101.539 141.931 101.403 141.452 101.403 140.783V136.742H100.643V135.804H101.403V134.076H102.377V135.804H103.91V136.742H102.377ZM107.65 142.774C107.101 142.774 106.601 142.628 106.151 142.336C105.708 142.043 105.359 141.63 105.101 141.097C104.851 140.554 104.726 139.929 104.726 139.22C104.726 138.519 104.855 137.901 105.112 137.368C105.376 136.825 105.733 136.412 106.183 136.128C106.633 135.837 107.137 135.691 107.694 135.691C108.25 135.691 108.753 135.837 109.204 136.128C109.654 136.412 110.007 136.821 110.265 137.355C110.528 137.889 110.661 138.511 110.661 139.22C110.661 139.929 110.525 140.554 110.254 141.097C109.989 141.63 109.629 142.043 109.172 142.336C108.714 142.628 108.207 142.774 107.65 142.774ZM107.65 141.773C108 141.773 108.328 141.677 108.636 141.485C108.943 141.292 109.189 141.005 109.376 140.622C109.568 140.237 109.665 139.77 109.665 139.22C109.665 138.669 109.572 138.202 109.386 137.818C109.201 137.434 108.958 137.15 108.657 136.967C108.358 136.775 108.032 136.679 107.683 136.679C107.326 136.679 106.998 136.775 106.697 136.967C106.405 137.15 106.169 137.434 105.99 137.818C105.811 138.202 105.723 138.669 105.723 139.22C105.723 139.778 105.808 140.25 105.98 140.634C106.158 141.018 106.393 141.305 106.686 141.497C106.979 141.68 107.3 141.773 107.65 141.773Z" fill="white"/>
</svg>
