<svg width="156" height="202" viewBox="0 0 156 202" fill="none" xmlns="http://www.w3.org/2000/svg">
<path d="M121.044 0H34.8135C15.5866 0 0 18.209 0 40.671V160.806C0 183.268 15.5866 201.477 34.8135 201.477H121.044C140.271 201.477 155.857 183.268 155.857 160.806V40.671C155.857 18.209 140.271 0 121.044 0Z" fill="#8DCB6B"/>
<path d="M56.3444 20.223L53.7307 37.5426H51.7812L53.7307 24.6279L46.8537 37.5426H45.4826L42.4833 24.678L40.5336 37.5426H38.5841L41.2192 20.223H43.3187L46.6395 34.5391L54.2663 20.223H56.3444ZM60.4432 21.5995C60.1289 21.5995 59.8648 21.4827 59.6506 21.2491C59.4509 20.9988 59.3507 20.6902 59.3507 20.323C59.3507 19.8225 59.5076 19.397 59.822 19.0466C60.1364 18.6795 60.5006 18.496 60.9147 18.496C61.2429 18.496 61.5076 18.6128 61.7073 18.8464C61.907 19.0799 62.0072 19.3887 62.0072 19.7724C62.0072 20.273 61.8503 20.7068 61.5359 21.074C61.2215 21.4243 60.8573 21.5995 60.4432 21.5995ZM61.0646 23.827L58.9865 37.5426H57.0369L59.115 23.827H61.0646ZM66.444 37.7678C65.2159 37.7678 64.209 37.4257 63.4233 36.7417C62.6377 36.0576 62.245 35.1398 62.245 33.9885C62.245 33.7716 62.252 33.6131 62.2664 33.513H64.1732C64.1159 34.2304 64.2948 34.8145 64.7088 35.2649C65.1373 35.7154 65.7516 35.9407 66.5512 35.9407C67.3509 35.9407 67.9936 35.7655 68.4793 35.4151C68.9791 35.048 69.2291 34.5391 69.2291 33.8884C69.2291 33.3377 69.0294 32.904 68.6293 32.5869C68.2292 32.2699 67.6154 31.9279 66.7869 31.5607C66.0585 31.2438 65.4586 30.9433 64.9872 30.6597C64.5159 30.3762 64.1159 29.984 63.7875 29.4835C63.4592 28.9662 63.2948 28.3154 63.2948 27.5312C63.2948 26.7636 63.4806 26.0795 63.8518 25.4789C64.2374 24.8782 64.7661 24.4194 65.4372 24.1024C66.1227 23.7687 66.9009 23.6018 67.7723 23.6018C68.9721 23.6018 69.9575 23.9522 70.7288 24.6529C71.5001 25.3537 71.8857 26.2714 71.8857 27.4061C71.8857 27.623 71.8787 27.7898 71.8643 27.9067H70.0005L70.0219 27.6062C70.0219 26.9389 69.8006 26.4132 69.3577 26.0295C68.9292 25.6291 68.3577 25.4288 67.6437 25.4288C66.9438 25.4288 66.3654 25.6123 65.9085 25.9795C65.4656 26.3465 65.2443 26.8387 65.2443 27.4561C65.2443 28.0401 65.4517 28.4989 65.8656 28.8327C66.2796 29.1664 66.9224 29.5334 67.7938 29.9339C68.5221 30.2676 69.1075 30.5763 69.5505 30.86C69.9934 31.127 70.3716 31.5024 70.686 31.9862C71.0003 32.4701 71.1573 33.0791 71.1573 33.8133C71.1573 34.6142 70.95 35.315 70.536 35.9157C70.1359 36.5163 69.5789 36.9752 68.865 37.2922C68.151 37.6093 67.3438 37.7678 66.444 37.7678ZM77.6369 37.7678C76.4087 37.7678 75.4018 37.4257 74.6161 36.7417C73.831 36.0576 73.4378 35.1398 73.4378 33.9885C73.4378 33.7716 73.4453 33.6131 73.4592 33.513H75.366C75.3092 34.2304 75.4876 34.8145 75.9016 35.2649C76.3301 35.7154 76.9444 35.9407 77.744 35.9407C78.5442 35.9407 79.1869 35.7655 79.6721 35.4151C80.1724 35.048 80.4219 34.5391 80.4219 33.8884C80.4219 33.3377 80.2222 32.904 79.8221 32.5869C79.4226 32.2699 78.8083 31.9279 77.9797 31.5607C77.2513 31.2438 76.6514 30.9433 76.1801 30.6597C75.7088 30.3762 75.3092 29.984 74.9804 29.4835C74.652 28.9662 74.4876 28.3154 74.4876 27.5312C74.4876 26.7636 74.6735 26.0795 75.0446 25.4789C75.4303 24.8782 75.9589 24.4194 76.63 24.1024C77.3155 23.7687 78.0943 23.6018 78.9652 23.6018C80.1649 23.6018 81.1503 23.9522 81.9217 24.6529C82.6929 25.3537 83.0786 26.2714 83.0786 27.4061C83.0786 27.623 83.0715 27.7898 83.0571 27.9067H81.1933L81.2147 27.6062C81.2147 26.9389 80.9934 26.4132 80.5505 26.0295C80.122 25.6291 79.5511 25.4288 78.8366 25.4288C78.1371 25.4288 77.5587 25.6123 77.1013 25.9795C76.6589 26.3465 76.4371 26.8387 76.4371 27.4561C76.4371 28.0401 76.6445 28.4989 77.0585 28.8327C77.4731 29.1664 78.1157 29.5334 78.9866 29.9339C79.715 30.2676 80.301 30.5763 80.7434 30.86C81.1863 31.127 81.5649 31.5024 81.8788 31.9862C82.1932 32.4701 82.3502 33.0791 82.3502 33.8133C82.3502 34.6142 82.1433 35.315 81.7288 35.9157C81.3293 36.5163 80.7723 36.9752 80.0578 37.2922C79.3438 37.6093 78.5367 37.7678 77.6369 37.7678ZM84.9954 30.6348C85.2096 29.2331 85.6381 28.0067 86.2809 26.9555C86.9375 25.8877 87.7301 25.0618 88.6589 24.4778C89.6015 23.8937 90.6009 23.6018 91.6582 23.6018C92.6865 23.6018 93.536 23.8604 94.2076 24.3777C94.8787 24.8949 95.3431 25.5456 95.6002 26.3299L95.9857 23.827H97.9568L95.8787 37.5426H93.9076L94.3147 34.9896C93.8006 35.7905 93.122 36.458 92.2794 36.9919C91.4365 37.5092 90.5082 37.7678 89.4943 37.7678C88.5801 37.7678 87.773 37.5425 87.0735 37.092C86.3735 36.6247 85.831 35.9658 85.4453 35.1148C85.0596 34.2638 84.8669 33.2794 84.8669 32.1615C84.8669 31.6609 84.9097 31.1519 84.9954 30.6348ZM94.9574 30.6597C95.0142 30.3093 95.0431 29.9339 95.0431 29.5334C95.0431 28.3154 94.7287 27.356 94.1005 26.6552C93.4861 25.9378 92.7004 25.579 91.7439 25.579C91.0155 25.579 90.3155 25.7792 89.6443 26.1797C88.9872 26.5801 88.4232 27.1641 87.9519 27.9317C87.4806 28.6992 87.1662 29.6003 87.0093 30.6348C86.9519 30.9851 86.9235 31.3688 86.9235 31.7861C86.9235 33.0207 87.2304 33.9968 87.8447 34.7143C88.4585 35.4151 89.2443 35.7655 90.2013 35.7655C90.9298 35.7655 91.6223 35.5653 92.2794 35.1649C92.9506 34.7476 93.5221 34.1554 93.9934 33.3878C94.4786 32.6037 94.7999 31.6942 94.9574 30.6597ZM89.4729 22.3503C89.6872 21.4993 90.0155 20.8486 90.4585 20.3981C90.9153 19.9476 91.4294 19.7224 92.0009 19.7224C92.272 19.7224 92.4937 19.7724 92.6651 19.8726C92.8365 19.9726 93.0432 20.1312 93.2864 20.348C93.4577 20.5149 93.6147 20.6485 93.7577 20.7485C93.9146 20.832 94.0861 20.8737 94.2719 20.8737C94.5145 20.8737 94.7287 20.7819 94.9146 20.5984C95.1143 20.4149 95.2643 20.1479 95.3645 19.7975H96.5C96.2857 20.6317 95.9499 21.2741 95.493 21.7247C95.0356 22.1752 94.5214 22.4004 93.9506 22.4004C93.679 22.4004 93.4433 22.3503 93.2436 22.2502C93.0576 22.1334 92.8504 21.9666 92.6223 21.7497C92.4219 21.5828 92.258 21.4576 92.1295 21.3743C92.0148 21.2908 91.8649 21.2491 91.6796 21.2491C91.4364 21.2491 91.2222 21.3409 91.0369 21.5244C90.8511 21.708 90.7081 21.9833 90.6084 22.3503H89.4729ZM104.336 37.7678C103.351 37.7678 102.479 37.5342 101.723 37.067C100.98 36.5831 100.401 35.9157 99.9872 35.0647C99.5732 34.1971 99.3659 33.196 99.3659 32.0613C99.3659 30.5096 99.6728 29.0913 100.287 27.8065C100.901 26.505 101.744 25.4789 102.815 24.728C103.901 23.9772 105.108 23.6018 106.436 23.6018C107.422 23.6018 108.293 23.8438 109.049 24.3276C109.821 24.7948 110.414 25.4622 110.828 26.3299C111.256 27.1809 111.47 28.1819 111.47 29.3332C111.47 30.885 111.156 32.3032 110.528 33.5881C109.899 34.8728 109.043 35.8907 107.956 36.6415C106.871 37.3924 105.665 37.7678 104.336 37.7678ZM104.572 35.8406C105.5 35.8406 106.335 35.5485 107.078 34.9646C107.821 34.3639 108.399 33.5797 108.814 32.6119C109.242 31.6275 109.456 30.5763 109.456 29.4584C109.456 28.1903 109.142 27.2226 108.514 26.5551C107.886 25.871 107.1 25.529 106.157 25.529C105.229 25.529 104.4 25.8293 103.672 26.43C102.944 27.014 102.38 27.7982 101.98 28.7826C101.58 29.767 101.38 30.8266 101.38 31.9612C101.38 33.196 101.68 34.1554 102.279 34.8395C102.879 35.5069 103.644 35.8406 104.572 35.8406Z" fill="white"/>
<path d="M25.3658 66.6504H27.9795V67.5763H24.391V58.8541H25.3658V66.6504ZM34.3706 63.8848C34.3706 64.1019 34.3599 64.3308 34.3385 64.573H29.6467C29.6825 65.2488 29.8787 65.7787 30.2358 66.1623C30.6001 66.5378 31.0392 66.7255 31.5534 66.7255C31.9748 66.7255 32.3247 66.6129 32.6032 66.3875C32.8888 66.1541 33.0888 65.8451 33.203 65.4616H34.2528C34.0958 66.1204 33.7815 66.6585 33.3102 67.0758C32.8388 67.4844 32.2533 67.6891 31.5534 67.6891C30.9964 67.6891 30.4965 67.5432 30.0538 67.251C29.6181 66.9589 29.2754 66.5458 29.0255 66.0121C28.7754 65.4696 28.6505 64.844 28.6505 64.135C28.6505 63.426 28.7719 62.8041 29.0147 62.2704C29.2575 61.7365 29.5967 61.3277 30.0323 61.0441C30.4751 60.752 30.9821 60.606 31.5534 60.606C32.1105 60.606 32.6032 60.7478 33.0317 61.0315C33.4602 61.3151 33.7886 61.7072 34.0171 62.2078C34.2528 62.7002 34.3706 63.259 34.3706 63.8848ZM33.3638 63.647C33.3638 63.2134 33.2816 62.8417 33.1173 62.5332C32.9531 62.2162 32.7282 61.9784 32.4425 61.8199C32.1639 61.6531 31.8534 61.5696 31.5106 61.5696C31.0178 61.5696 30.5965 61.7531 30.2466 62.1203C29.9038 62.4873 29.7074 62.9963 29.6574 63.647H33.3638ZM37.8426 66.5252L39.6635 60.7186H40.7026L38.3996 67.5763H37.2641L34.9611 60.7186H36.0108L37.8426 66.5252ZM41.2976 64.1225C41.2976 63.4217 41.419 62.8086 41.6618 62.2829C41.9046 61.749 42.2367 61.336 42.6581 61.0441C43.0865 60.752 43.5614 60.606 44.0827 60.606C44.5969 60.606 45.0432 60.7354 45.4217 60.994C45.8002 61.2526 46.0823 61.5779 46.268 61.97V60.7186H47.2534V67.5763H46.268V66.3C46.0751 66.7004 45.7859 67.0339 45.4002 67.3011C45.0218 67.5595 44.579 67.6891 44.072 67.6891C43.5507 67.6891 43.0794 67.5388 42.6581 67.2385C42.2367 66.9382 41.9046 66.5171 41.6618 65.9746C41.419 65.4321 41.2976 64.8151 41.2976 64.1225ZM46.268 64.135C46.268 63.6176 46.1786 63.167 46.0001 62.7835C45.8217 62.3997 45.5788 62.1077 45.2717 61.9075C44.9718 61.699 44.6397 61.5946 44.2755 61.5946C43.9114 61.5946 43.5793 61.6948 43.2793 61.8949C42.9794 62.0952 42.7401 62.3872 42.5616 62.771C42.3831 63.1546 42.2938 63.605 42.2938 64.1225C42.2938 64.6481 42.3831 65.1067 42.5616 65.4991C42.7401 65.8826 42.9794 66.1792 43.2793 66.3875C43.5793 66.5878 43.9114 66.6879 44.2755 66.6879C44.6397 66.6879 44.9718 66.5878 45.2717 66.3875C45.5788 66.1792 45.8217 65.8826 46.0001 65.4991C46.1786 65.1067 46.268 64.6524 46.268 64.135ZM49.8754 61.8324C50.0468 61.4403 50.2897 61.1358 50.6039 60.9189C50.9252 60.7019 51.3145 60.5935 51.7714 60.5935V61.7699H51.5144C50.4217 61.7699 49.8754 62.4623 49.8754 63.8472V67.5763H48.9007V60.7186H49.8754V61.8324ZM59.6802 64.1225C59.6802 63.4217 59.8012 62.8086 60.0444 62.2829C60.287 61.749 60.6191 61.336 61.0406 61.0441C61.4691 60.752 61.9436 60.606 62.4653 60.606C62.9794 60.606 63.4256 60.7354 63.8043 60.994C64.1824 61.2526 64.4647 61.5779 64.6505 61.97V60.7186H65.6359V67.5763H64.6505V66.3C64.4576 66.7004 64.1685 67.0339 63.7828 67.3011C63.4042 67.5595 62.9613 67.6891 62.4545 67.6891C61.9329 67.6891 61.4616 67.5388 61.0406 67.2385C60.6191 66.9382 60.287 66.5171 60.0444 65.9746C59.8012 65.4321 59.6802 64.8151 59.6802 64.1225ZM64.6505 64.135C64.6505 63.6176 64.5611 63.167 64.3826 62.7835C64.2038 62.3997 63.9612 62.1077 63.6543 61.9075C63.3543 61.699 63.0223 61.5946 62.6581 61.5946C62.2939 61.5946 61.9618 61.6948 61.6619 61.8949C61.362 62.0952 61.1226 62.3872 60.9442 62.771C60.7653 63.1546 60.6764 63.605 60.6764 64.1225C60.6764 64.6481 60.7653 65.1067 60.9442 65.4991C61.1226 65.8826 61.362 66.1792 61.6619 66.3875C61.9618 66.5878 62.2939 66.6879 62.6581 66.6879C63.0223 66.6879 63.3543 66.5878 63.6543 66.3875C63.9612 66.1792 64.2038 65.8826 64.3826 65.4991C64.5611 65.1067 64.6505 64.6524 64.6505 64.135ZM74.0662 64.135C74.0662 63.426 74.1878 62.8086 74.4305 62.2829C74.6735 61.749 75.0088 61.336 75.4373 61.0441C75.8733 60.752 76.3692 60.606 76.9263 60.606C77.6477 60.606 78.2406 60.8105 78.7044 61.2192C79.1758 61.628 79.4864 62.1954 79.6364 62.9212H78.5866C78.487 62.5039 78.2904 62.1744 77.9974 61.9325C77.712 61.6906 77.3548 61.5696 76.9263 61.5696C76.3692 61.5696 75.9193 61.7949 75.5766 62.2453C75.2338 62.6878 75.0624 63.3173 75.0624 64.135C75.0624 64.961 75.2338 65.5992 75.5766 66.0496C75.9193 66.5001 76.3692 66.7255 76.9263 66.7255C77.3548 66.7255 77.712 66.6084 77.9974 66.3751C78.2835 66.1417 78.4795 65.8076 78.5866 65.3739H79.6364C79.4795 66.0748 79.1651 66.6378 78.6937 67.0633C78.2224 67.4807 77.6333 67.6891 76.9263 67.6891C76.3692 67.6891 75.8733 67.5432 75.4373 67.251C75.0088 66.9589 74.6735 66.5458 74.4305 66.0121C74.1878 65.4784 74.0662 64.8527 74.0662 64.135ZM86.1433 60.7186V67.5763H85.1685V66.5628C84.9827 66.9132 84.7218 67.1885 84.3865 67.3886C84.0577 67.5808 83.6934 67.6765 83.294 67.6765C82.8366 67.6765 82.4262 67.5683 82.0621 67.3511C81.6978 67.1259 81.4087 66.7924 81.1945 66.35C80.9871 65.9076 80.8838 65.3695 80.8838 64.7356V60.7186H81.8479V64.5855C81.8479 65.2613 81.9941 65.7825 82.287 66.1498C82.5795 66.5083 82.9796 66.6879 83.4867 66.6879C84.0079 66.6879 84.4187 66.5001 84.7186 66.1247C85.0186 65.7493 85.1685 65.2031 85.1685 64.4854V60.7186H86.1433ZM88.764 58.316V67.5763H87.7892V58.316H88.764ZM91.6144 61.6573V65.6992C91.6144 66.0328 91.6749 66.2706 91.7965 66.4126C91.9175 66.5458 92.1286 66.6129 92.4285 66.6129H93.1462V67.5763H92.2678C91.7248 67.5763 91.3177 67.4306 91.0467 67.1384C90.7751 66.8462 90.6396 66.3669 90.6396 65.6992V61.6573H89.8791V60.7186H90.6396V58.9917H91.6144V60.7186H93.1462V61.6573H91.6144ZM99.5331 60.7186V67.5763H98.5584V66.5628C98.3724 66.9132 98.1116 67.1885 97.7764 67.3886C97.4476 67.5808 97.0833 67.6765 96.6838 67.6765C96.2263 67.6765 95.8161 67.5683 95.4519 67.3511C95.0877 67.1259 94.7985 66.7924 94.5842 66.35C94.377 65.9076 94.2736 65.3695 94.2736 64.7356V60.7186H95.2376V64.5855C95.2376 65.2613 95.3839 65.7825 95.6769 66.1498C95.9693 66.5083 96.3693 66.6879 96.8766 66.6879C97.3977 66.6879 97.8085 66.5001 98.1085 66.1247C98.4084 65.7493 98.5584 65.2031 98.5584 64.4854V60.7186H99.5331ZM102.154 61.8324C102.325 61.4403 102.568 61.1358 102.882 60.9189C103.204 60.7019 103.592 60.5935 104.05 60.5935V61.7699H103.793C102.7 61.7699 102.154 62.4623 102.154 63.8472V67.5763H101.179V60.7186H102.154V61.8324ZM104.811 64.1225C104.811 63.4217 104.932 62.8086 105.175 62.2829C105.418 61.749 105.75 61.336 106.171 61.0441C106.6 60.752 107.075 60.606 107.596 60.606C108.11 60.606 108.557 60.7354 108.935 60.994C109.313 61.2526 109.595 61.5779 109.781 61.97V60.7186H110.767V67.5763H109.781V66.3C109.588 66.7004 109.299 67.0339 108.913 67.3011C108.534 67.5595 108.091 67.6891 107.585 67.6891C107.063 67.6891 106.592 67.5388 106.171 67.2385C105.75 66.9382 105.418 66.5171 105.175 65.9746C104.932 65.4321 104.811 64.8151 104.811 64.1225ZM109.781 64.135C109.781 63.6176 109.691 63.167 109.513 62.7835C109.335 62.3997 109.092 62.1077 108.785 61.9075C108.485 61.699 108.153 61.5946 107.789 61.5946C107.425 61.5946 107.093 61.6948 106.792 61.8949C106.493 62.0952 106.253 62.3872 106.075 62.771C105.896 63.1546 105.807 63.605 105.807 64.1225C105.807 64.6481 105.896 65.1067 106.075 65.4991C106.253 65.8826 106.493 66.1792 106.792 66.3875C107.093 66.5878 107.425 66.6879 107.789 66.6879C108.153 66.6879 108.485 66.5878 108.785 66.3875C109.092 66.1792 109.335 65.8826 109.513 65.4991C109.691 65.1067 109.781 64.6524 109.781 64.135ZM119.196 64.1225C119.196 63.4217 119.319 62.8086 119.561 62.2829C119.804 61.749 120.136 61.336 120.557 61.0441C120.986 60.752 121.465 60.606 121.993 60.606C122.45 60.606 122.875 60.7312 123.267 60.9814C123.661 61.2234 123.96 61.5446 124.167 61.945V58.316H125.153V67.5763H124.167V66.2874C123.975 66.6961 123.689 67.0339 123.31 67.3011C122.932 67.5595 122.489 67.6891 121.982 67.6891C121.461 67.6891 120.986 67.5388 120.557 67.2385C120.136 66.9382 119.804 66.5171 119.561 65.9746C119.319 65.4321 119.196 64.8151 119.196 64.1225ZM124.167 64.135C124.167 63.6176 124.078 63.167 123.9 62.7835C123.721 62.3997 123.478 62.1077 123.171 61.9075C122.871 61.699 122.539 61.5946 122.175 61.5946C121.811 61.5946 121.479 61.6948 121.179 61.8949C120.878 62.0952 120.64 62.3872 120.461 62.771C120.283 63.1546 120.193 63.605 120.193 64.1225C120.193 64.6481 120.283 65.1067 120.461 65.4991C120.64 65.8826 120.878 66.1792 121.179 66.3875C121.479 66.5878 121.811 66.6879 122.175 66.6879C122.539 66.6879 122.871 66.5878 123.171 66.3875C123.478 66.1792 123.721 65.8826 123.9 65.4991C124.078 65.1067 124.167 64.6524 124.167 64.135ZM129.361 67.6891C128.81 67.6891 128.31 67.5432 127.861 67.251C127.418 66.9589 127.068 66.5458 126.811 66.0121C126.561 65.4696 126.436 64.844 126.436 64.135C126.436 63.4342 126.565 62.8167 126.821 62.2829C127.086 61.7406 127.443 61.3277 127.893 61.0441C128.343 60.752 128.846 60.606 129.403 60.606C129.96 60.606 130.464 60.752 130.913 61.0441C131.363 61.3277 131.717 61.7365 131.974 62.2704C132.238 62.8041 132.37 63.426 132.37 64.135C132.37 64.844 132.234 65.4696 131.963 66.0121C131.7 66.5458 131.338 66.9589 130.881 67.251C130.425 67.5432 129.917 67.6891 129.361 67.6891ZM129.361 66.6879C129.71 66.6879 130.039 66.5922 130.346 66.4001C130.653 66.208 130.899 65.9202 131.085 65.5366C131.278 65.153 131.374 64.6857 131.374 64.135C131.374 63.5843 131.281 63.117 131.095 62.7335C130.91 62.3497 130.667 62.066 130.367 61.8825C130.067 61.6906 129.742 61.5946 129.392 61.5946C129.035 61.5946 128.707 61.6906 128.407 61.8825C128.114 62.066 127.878 62.3497 127.7 62.7335C127.521 63.117 127.432 63.5843 127.432 64.135C127.432 64.6938 127.518 65.1655 127.689 65.5491C127.867 65.9326 128.104 66.2205 128.397 66.4126C128.689 66.5959 129.011 66.6879 129.361 66.6879ZM31.4502 79.3648C31.9072 79.3648 32.3142 79.4774 32.6713 79.7026C33.0284 79.9197 33.3104 80.2489 33.5175 80.6912C33.7247 81.1336 33.8282 81.6717 33.8282 82.3055V86.3476H32.8641V82.4683C32.8641 81.7843 32.7177 81.2625 32.425 80.9039C32.1393 80.5366 31.7501 80.3534 31.2573 80.3534C30.7503 80.3534 30.3469 80.5455 30.0469 80.929C29.747 81.3044 29.597 81.8507 29.597 82.5683V86.3476H28.6329V82.4683C28.6329 81.7843 28.4866 81.2625 28.1938 80.9039C27.9081 80.5366 27.5189 80.3534 27.0261 80.3534C26.5191 80.3534 26.1156 80.5455 25.8157 80.929C25.5157 81.3044 25.3658 81.8507 25.3658 82.5683V86.3476H24.391V79.4898H25.3658V80.4784C25.5587 80.12 25.8157 79.8447 26.1371 79.6525C26.4655 79.4604 26.8262 79.3648 27.2189 79.3648C27.7117 79.3648 28.1473 79.4942 28.5258 79.7526C28.9043 80.0111 29.1864 80.3909 29.3721 80.8915C29.5363 80.4078 29.8077 80.0324 30.1861 79.7652C30.5646 79.498 30.986 79.3648 31.4502 79.3648ZM40.6331 79.4898V86.3476H39.6584V85.334C39.4727 85.6844 39.2121 85.9597 38.8764 86.16C38.5479 86.3519 38.1837 86.4477 37.7838 86.4477C37.3267 86.4477 36.9162 86.3395 36.5519 86.1224C36.1878 85.8971 35.8985 85.5636 35.6843 85.1213C35.4772 84.6788 35.3736 84.1407 35.3736 83.5069V79.4898H36.3377V83.3568C36.3377 84.0325 36.4841 84.5538 36.7769 84.921C37.0696 85.2796 37.4695 85.4591 37.9766 85.4591C38.4979 85.4591 38.9085 85.2714 39.2085 84.8959C39.5084 84.5205 39.6584 83.9743 39.6584 83.2566V79.4898H40.6331ZM45.139 79.3648C45.8532 79.3648 46.4316 79.6194 46.8744 80.1281C47.3172 80.6287 47.5386 81.3545 47.5386 82.3055V86.3476H46.5744V82.4683C46.5744 81.7843 46.4281 81.2625 46.1353 80.9039C45.8425 80.5366 45.4425 80.3534 44.9355 80.3534C44.4214 80.3534 44.0108 80.5411 43.7037 80.9165C43.4038 81.2919 43.2538 81.8381 43.2538 82.5558V86.3476H42.2789V79.4898H43.2538V80.466C43.4466 80.1156 43.7073 79.8447 44.0357 79.6525C44.3714 79.4604 44.7392 79.3648 45.139 79.3648ZM48.7666 82.8938C48.7666 82.1929 48.888 81.5797 49.1308 81.0541C49.3736 80.5204 49.7057 80.1074 50.1271 79.8153C50.5555 79.5231 51.0339 79.3772 51.5624 79.3772C52.0195 79.3772 52.4443 79.5024 52.8371 79.7526C53.2299 79.9948 53.5299 80.3158 53.7368 80.7162V77.0872H54.7222V86.3476H53.7368V85.0586C53.5441 85.4673 53.2585 85.8051 52.88 86.0723C52.5015 86.3307 52.0588 86.4603 51.5517 86.4603C51.0304 86.4603 50.5555 86.3101 50.1271 86.0098C49.7057 85.7094 49.3736 85.2883 49.1308 84.7458C48.888 84.2034 48.7666 83.5863 48.7666 82.8938ZM53.7368 82.9062C53.7368 82.3888 53.6478 81.9383 53.4691 81.5546C53.2907 81.1711 53.0478 80.8789 52.7407 80.6787C52.4408 80.4704 52.1087 80.3658 51.7445 80.3658C51.3804 80.3658 51.0483 80.466 50.7483 80.6662C50.4484 80.8664 50.2091 81.1587 50.0306 81.5422C49.8521 81.9257 49.7628 82.3762 49.7628 82.8938C49.7628 83.4193 49.8521 83.8779 50.0306 84.2703C50.2091 84.6538 50.4484 84.9504 50.7483 85.1588C51.0483 85.3589 51.3804 85.4591 51.7445 85.4591C52.1087 85.4591 52.4408 85.3589 52.7407 85.1588C53.0478 84.9504 53.2907 84.6538 53.4691 84.2703C53.6478 83.8779 53.7368 83.4237 53.7368 82.9062ZM58.9298 86.4603C58.3798 86.4603 57.8801 86.3144 57.4302 86.0222C56.9873 85.73 56.6374 85.3171 56.3804 84.7833C56.1303 84.2409 56.0055 83.6152 56.0055 82.9062C56.0055 82.2055 56.134 81.5879 56.3911 81.0541C56.6552 80.5117 57.0124 80.0987 57.4622 79.8153C57.9122 79.5231 58.4156 79.3772 58.9726 79.3772C59.5297 79.3772 60.0332 79.5231 60.4831 79.8153C60.9329 80.0987 61.2864 80.5079 61.5436 81.0416C61.8075 81.5753 61.9399 82.1973 61.9399 82.9062C61.9399 83.6152 61.8044 84.2409 61.5328 84.7833C61.2687 85.3171 60.9077 85.73 60.4509 86.0222C59.994 86.3144 59.4869 86.4603 58.9298 86.4603ZM58.9298 85.4591C59.2795 85.4591 59.6085 85.3634 59.9154 85.1712C60.2222 84.9791 60.4686 84.6914 60.6544 84.3078C60.8472 83.9243 60.9437 83.4569 60.9437 82.9062C60.9437 82.3556 60.851 81.8882 60.6652 81.5047C60.4793 81.1211 60.2367 80.837 59.9368 80.6537C59.6368 80.4616 59.3117 80.3658 58.962 80.3658C58.6047 80.3658 58.2764 80.4616 57.9765 80.6537C57.6835 80.837 57.4478 81.1211 57.2695 81.5047C57.0911 81.8882 57.0017 82.3556 57.0017 82.9062C57.0017 83.465 57.0873 83.9367 57.2588 84.3203C57.4372 84.7039 57.6727 84.9917 57.9657 85.1838C58.2587 85.3671 58.5801 85.4591 58.9298 85.4591ZM75.8551 79.3648C76.3125 79.3648 76.7196 79.4774 77.0763 79.7026C77.4334 79.9197 77.7158 80.2489 77.9225 80.6912C78.1298 81.1336 78.2331 81.6717 78.2331 82.3055V86.3476H77.269V82.4683C77.269 81.7843 77.1229 81.2625 76.8299 80.9039C76.5444 80.5366 76.1551 80.3534 75.6622 80.3534C75.1556 80.3534 74.7518 80.5455 74.4519 80.929C74.1519 81.3044 74.002 81.8507 74.002 82.5683V86.3476H73.0379V82.4683C73.0379 81.7843 72.8917 81.2625 72.5987 80.9039C72.3132 80.5366 71.9239 80.3534 71.4311 80.3534C70.9244 80.3534 70.5206 80.5455 70.2207 80.929C69.9207 81.3044 69.7707 81.8507 69.7707 82.5683V86.3476H68.7959V79.4898H69.7707V80.4784C69.9636 80.12 70.2206 79.8447 70.542 79.6525C70.8709 79.4604 71.2313 79.3648 71.624 79.3648C72.1167 79.3648 72.5526 79.4942 72.9307 79.7526C73.3094 80.0111 73.5916 80.3909 73.777 80.8915C73.9414 80.4078 74.213 80.0324 74.5911 79.7652C74.9698 79.498 75.3913 79.3648 75.8551 79.3648ZM79.4682 82.8938C79.4682 82.1929 79.5893 81.5797 79.8324 81.0541C80.075 80.5204 80.4071 80.1074 80.8286 79.8153C81.2571 79.5231 81.7316 79.3772 82.2533 79.3772C82.7675 79.3772 83.2136 79.5068 83.5923 79.7652C83.9704 80.0236 84.2527 80.349 84.4385 80.7413V79.4898H85.424V86.3476H84.4385V85.0712C84.2457 85.4717 83.9565 85.8051 83.5708 86.0723C83.1922 86.3307 82.7493 86.4603 82.2425 86.4603C81.7209 86.4603 81.2496 86.3101 80.8286 86.0098C80.4071 85.7094 80.075 85.2883 79.8324 84.7458C79.5893 84.2034 79.4682 83.5863 79.4682 82.8938ZM84.4385 82.9062C84.4385 82.3888 84.3491 81.9383 84.1708 81.5546C83.9918 81.1711 83.7492 80.8789 83.4424 80.6787C83.1424 80.4704 82.8103 80.3658 82.4461 80.3658C82.0819 80.3658 81.7498 80.466 81.4499 80.6662C81.15 80.8664 80.9106 81.1587 80.7322 81.5422C80.5533 81.9257 80.4644 82.3762 80.4644 82.8938C80.4644 83.4193 80.5533 83.8779 80.7322 84.2703C80.9106 84.6538 81.15 84.9504 81.4499 85.1588C81.7498 85.3589 82.0819 85.4591 82.4461 85.4591C82.8103 85.4591 83.1424 85.3589 83.4424 85.1588C83.7492 84.9504 83.9918 84.6538 84.1708 84.2703C84.3491 83.8779 84.4385 83.4237 84.4385 82.9062ZM87.5744 78.3761C87.3891 78.3761 87.2316 78.301 87.1031 78.1508C86.9745 78.0007 86.9103 77.8174 86.9103 77.6002C86.9103 77.3831 86.9745 77.1998 87.1031 77.0496C87.2316 76.8995 87.3891 76.8244 87.5744 76.8244C87.7532 76.8244 87.9032 76.8995 88.0243 77.0496C88.1528 77.1998 88.2172 77.3831 88.2172 77.6002C88.2172 77.8174 88.1528 78.0007 88.0243 78.1508C87.9032 78.301 87.7532 78.3761 87.5744 78.3761ZM88.0457 79.4898V86.3476H87.0709V79.4898H88.0457ZM91.7852 86.4603C91.3353 86.4603 90.932 86.3726 90.5748 86.1975C90.2181 86.0141 89.9358 85.7639 89.7285 85.4466C89.5218 85.1213 89.4072 84.7502 89.3858 84.3328H90.3927C90.4216 84.6751 90.5571 84.9541 90.7998 85.1712C91.0498 85.3883 91.375 85.4967 91.7745 85.4967C92.1462 85.4967 92.4386 85.4009 92.6529 85.2088C92.8671 85.0167 92.9743 84.7753 92.9743 84.483C92.9743 84.1827 92.8602 83.9618 92.6315 83.8198C92.4033 83.6695 92.0498 83.5238 91.571 83.3818C91.1356 83.2485 90.7784 83.1146 90.4998 82.9813C90.2288 82.8393 89.9931 82.6353 89.7928 82.3681C89.6001 82.0928 89.5036 81.7343 89.5036 81.2919C89.5036 80.9414 89.5931 80.6206 89.7714 80.3283C89.9503 80.0361 90.2036 79.8071 90.5319 79.64C90.8608 79.4648 91.2357 79.3772 91.6567 79.3772C92.3069 79.3772 92.8318 79.5693 93.2314 79.9529C93.6314 80.3364 93.8457 80.8621 93.874 81.5297H92.8993C92.8779 81.1711 92.7531 80.8833 92.5244 80.6662C92.3031 80.449 92.0032 80.3408 91.6246 80.3408C91.2748 80.3408 90.9964 80.4284 90.789 80.6036C90.5823 80.7789 90.4784 81.0085 90.4784 81.2919C90.4784 81.5171 90.5394 81.7049 90.6605 81.8551C90.789 81.9971 90.9465 82.1134 91.1318 82.2055C91.3246 82.2887 91.5892 82.385 91.9245 82.4932C92.346 82.6266 92.6888 82.7604 92.9528 82.8938C93.2174 83.0188 93.4424 83.2109 93.6277 83.4694C93.8205 83.7278 93.9207 84.0656 93.9276 84.483C93.9276 84.8585 93.8387 85.1964 93.6599 85.4967C93.4814 85.797 93.2281 86.0348 92.8993 86.2099C92.5779 86.377 92.2067 86.4603 91.7852 86.4603ZM103.064 85.2964L104.885 79.4898H105.924L103.621 86.3476H102.485L100.182 79.4898H101.232L103.064 85.2964ZM112.239 82.656C112.239 82.8731 112.229 83.102 112.206 83.3442H107.515C107.55 84.0199 107.747 84.5499 108.104 84.9336C108.468 85.309 108.908 85.4967 109.421 85.4967C109.843 85.4967 110.193 85.384 110.472 85.1588C110.757 84.9254 110.957 84.6163 111.072 84.2327H112.121C111.964 84.8916 111.65 85.4297 111.178 85.8471C110.707 86.2556 110.122 86.4603 109.421 86.4603C108.864 86.4603 108.365 86.3144 107.922 86.0222C107.486 85.73 107.143 85.3171 106.893 84.7833C106.643 84.2409 106.519 83.6152 106.519 82.9062C106.519 82.1973 106.64 81.5753 106.883 81.0416C107.125 80.5079 107.465 80.0987 107.901 79.8153C108.343 79.5231 108.851 79.3772 109.421 79.3772C109.979 79.3772 110.472 79.5192 110.9 79.8027C111.328 80.0862 111.657 80.4785 111.886 80.979C112.121 81.4715 112.239 82.0302 112.239 82.656ZM111.232 82.4182C111.232 81.9845 111.15 81.6129 110.985 81.3044C110.822 80.9871 110.596 80.7495 110.311 80.5912C110.032 80.424 109.722 80.3408 109.379 80.3408C108.887 80.3408 108.465 80.5241 108.115 80.8915C107.772 81.2587 107.576 81.7674 107.526 82.4182H111.232ZM114.5 80.6036C114.672 80.2113 114.915 79.9072 115.229 79.6901C115.55 79.473 115.94 79.3648 116.396 79.3648V80.5411H116.139C115.047 80.5411 114.5 81.2337 114.5 82.6184V86.3476H113.526V79.4898H114.5V80.6036ZM117.158 82.8938C117.158 82.1929 117.278 81.5797 117.522 81.0541C117.764 80.5204 118.096 80.1074 118.518 79.8153C118.946 79.5231 119.424 79.3772 119.954 79.3772C120.41 79.3772 120.835 79.5024 121.228 79.7526C121.621 79.9948 121.92 80.3158 122.127 80.7162V77.0872H123.113V86.3476H122.127V85.0586C121.935 85.4673 121.648 85.8051 121.271 86.0723C120.892 86.3307 120.449 86.4603 119.942 86.4603C119.421 86.4603 118.946 86.3101 118.518 86.0098C118.096 85.7094 117.764 85.2883 117.522 84.7458C117.278 84.2034 117.158 83.5863 117.158 82.8938ZM122.127 82.9062C122.127 82.3888 122.039 81.9383 121.86 81.5546C121.681 81.1711 121.438 80.8789 121.132 80.6787C120.831 80.4704 120.5 80.3658 120.135 80.3658C119.771 80.3658 119.439 80.466 119.139 80.6662C118.839 80.8664 118.599 81.1587 118.421 81.5422C118.242 81.9257 118.153 82.3762 118.153 82.8938C118.153 83.4193 118.242 83.8779 118.421 84.2703C118.599 84.6538 118.839 84.9504 119.139 85.1588C119.439 85.3589 119.771 85.4591 120.135 85.4591C120.5 85.4591 120.831 85.3589 121.132 85.1588C121.438 84.9504 121.681 84.6538 121.86 84.2703C122.039 83.8779 122.127 83.4237 122.127 82.9062ZM130.116 82.656C130.116 82.8731 130.105 83.102 130.084 83.3442H125.392C125.428 84.0199 125.624 84.5499 125.982 84.9336C126.346 85.309 126.784 85.4967 127.299 85.4967C127.721 85.4967 128.07 85.384 128.348 85.1588C128.635 84.9254 128.834 84.6163 128.948 84.2327H129.999C129.842 84.8916 129.527 85.4297 129.056 85.8471C128.584 86.2556 127.999 86.4603 127.299 86.4603C126.742 86.4603 126.242 86.3144 125.799 86.0222C125.364 85.73 125.021 85.3171 124.771 84.7833C124.521 84.2409 124.396 83.6152 124.396 82.9062C124.396 82.1973 124.518 81.5753 124.76 81.0416C125.003 80.5079 125.343 80.0987 125.778 79.8153C126.221 79.5231 126.728 79.3772 127.299 79.3772C127.856 79.3772 128.348 79.5192 128.777 79.8027C129.206 80.0862 129.535 80.4785 129.762 80.979C129.999 81.4715 130.116 82.0302 130.116 82.656ZM129.109 82.4182C129.109 81.9845 129.027 81.6129 128.863 81.3044C128.698 80.9871 128.474 80.7495 128.188 80.5912C127.91 80.424 127.598 80.3408 127.256 80.3408C126.763 80.3408 126.342 80.5241 125.992 80.8915C125.649 81.2587 125.453 81.7674 125.403 82.4182H129.109ZM131.713 86.4227C131.528 86.4227 131.371 86.3476 131.242 86.1975C131.113 86.0472 131.049 85.8639 131.049 85.6468C131.049 85.4297 131.113 85.2463 131.242 85.0962C131.371 84.946 131.528 84.8709 131.713 84.8709C131.892 84.8709 132.042 84.946 132.164 85.0962C132.292 85.2463 132.357 85.4297 132.357 85.6468C132.357 85.8639 132.292 86.0472 132.164 86.1975C132.042 86.3476 131.892 86.4227 131.713 86.4227ZM27.776 105.206C27.0833 105.206 26.4513 105.019 25.88 104.643C25.3086 104.26 24.8552 103.73 24.5196 103.054C24.1911 102.37 24.0269 101.602 24.0269 100.751C24.0269 99.9004 24.1911 99.1371 24.5196 98.4613C24.8552 97.7774 25.3086 97.2474 25.88 96.872C26.4513 96.4885 27.0833 96.2964 27.776 96.2964C28.4758 96.2964 29.1114 96.4885 29.6827 96.872C30.2541 97.2474 30.704 97.773 31.0324 98.4488C31.3609 99.1246 31.5252 99.8923 31.5252 100.751C31.5252 101.61 31.3609 102.378 31.0324 103.054C30.704 103.73 30.2541 104.26 29.6827 104.643C29.1114 105.019 28.4758 105.206 27.776 105.206ZM27.776 104.218C28.2973 104.218 28.7651 104.076 29.1792 103.792C29.6006 103.509 29.929 103.104 30.1647 102.578C30.4075 102.053 30.5289 101.444 30.5289 100.751C30.5289 100.051 30.4075 99.4418 30.1647 98.9243C29.929 98.3987 29.6041 97.9939 29.19 97.7105C28.7757 97.427 28.3044 97.285 27.776 97.285C27.2475 97.285 26.7762 97.427 26.3621 97.7105C25.9478 97.9939 25.6193 98.3987 25.3765 98.9243C25.1408 99.4418 25.023 100.051 25.023 100.751C25.023 101.444 25.1408 102.053 25.3765 102.578C25.6193 103.104 25.9478 103.509 26.3621 103.792C26.7834 104.076 27.2547 104.218 27.776 104.218ZM35.6721 98.136C36.3861 98.136 36.9646 98.3906 37.4074 98.8993C37.8501 99.3999 38.0715 100.126 38.0715 101.077V105.119H37.1075V101.239C37.1075 100.556 36.961 100.034 36.6683 99.6752C36.3755 99.3078 35.9756 99.1246 35.4685 99.1246C34.9544 99.1246 34.5438 99.3123 34.2367 99.6877C33.9367 100.063 33.7868 100.609 33.7868 101.327V105.119H32.812V98.261H33.7868V99.2372C33.9795 98.8868 34.2402 98.6158 34.5688 98.4237C34.9043 98.2316 35.2722 98.136 35.6721 98.136ZM39.2996 101.665C39.2996 100.964 39.421 100.351 39.6637 99.8254C39.9066 99.2916 40.2387 98.8786 40.66 98.5864C41.0885 98.2943 41.567 98.1484 42.0953 98.1484C42.5525 98.1484 42.9773 98.2736 43.3701 98.5239C43.7629 98.766 44.0628 99.087 44.2699 99.4875V95.8584H45.2553V105.119H44.2699V103.83C44.077 104.238 43.7915 104.576 43.413 104.844C43.0345 105.102 42.5917 105.231 42.0847 105.231C41.5634 105.231 41.0885 105.081 40.66 104.781C40.2387 104.481 39.9066 104.059 39.6637 103.517C39.421 102.975 39.2996 102.358 39.2996 101.665ZM44.2699 101.677C44.2699 101.16 44.1807 100.709 44.0021 100.326C43.8236 99.9424 43.5809 99.6501 43.2736 99.45C42.9737 99.2416 42.6417 99.1371 42.2775 99.1371C41.9133 99.1371 41.5812 99.2372 41.2813 99.4374C40.9814 99.6377 40.7422 99.9299 40.5636 100.313C40.3851 100.697 40.2958 101.147 40.2958 101.665C40.2958 102.19 40.3851 102.649 40.5636 103.041C40.7422 103.425 40.9814 103.722 41.2813 103.93C41.5812 104.13 41.9133 104.23 42.2775 104.23C42.6417 104.23 42.9737 104.13 43.2736 103.93C43.5809 103.722 43.8236 103.425 44.0021 103.041C44.1807 102.649 44.2699 102.195 44.2699 101.677ZM52.2586 101.427C52.2586 101.644 52.2479 101.873 52.2265 102.115H47.5347C47.5704 102.791 47.7668 103.321 48.1239 103.705C48.488 104.08 48.9273 104.268 49.4414 104.268C49.8627 104.268 50.2127 104.155 50.4912 103.93C50.7768 103.697 50.9768 103.387 51.0911 103.004H52.1408C51.9837 103.663 51.6695 104.201 51.1981 104.618C50.7268 105.027 50.1412 105.231 49.4414 105.231C48.8844 105.231 48.3845 105.086 47.9417 104.793C47.5061 104.501 47.1633 104.088 46.9134 103.555C46.6635 103.012 46.5385 102.386 46.5385 101.677C46.5385 100.969 46.6599 100.347 46.9027 99.8128C47.1455 99.2791 47.4847 98.8699 47.9203 98.5864C48.363 98.2943 48.8701 98.1484 49.4414 98.1484C49.9984 98.1484 50.4912 98.2905 50.9196 98.5739C51.3481 98.8574 51.6766 99.2497 51.9051 99.7503C52.1408 100.243 52.2586 100.801 52.2586 101.427ZM51.2517 101.189C51.2517 100.756 51.1695 100.384 51.0053 100.076C50.841 99.7584 50.6161 99.5206 50.3305 99.3623C50.052 99.1952 49.7413 99.112 49.3986 99.112C48.9058 99.112 48.4844 99.2954 48.1346 99.6627C47.7918 100.03 47.5954 100.539 47.5454 101.189H51.2517ZM90.8549 98.136C91.3118 98.136 91.7189 98.2486 92.0761 98.4738C92.4334 98.6909 92.715 99.0201 92.9223 99.4624C93.1296 99.9049 93.233 100.443 93.233 101.077V105.119H92.2688V101.239C92.2688 100.556 92.1227 100.034 91.8297 99.6752C91.5442 99.3078 91.1549 99.1246 90.6622 99.1246C90.1549 99.1246 89.7516 99.3167 89.4517 99.7002C89.1517 100.076 89.0018 100.622 89.0018 101.34V105.119H88.0377V101.239C88.0377 100.556 87.8915 100.034 87.5985 99.6752C87.3131 99.3078 86.9237 99.1246 86.4309 99.1246C85.9237 99.1246 85.5204 99.3167 85.2205 99.7002C84.9206 100.076 84.7706 100.622 84.7706 101.34V105.119H83.7957V98.261H84.7706V99.2497C84.9634 98.8912 85.2205 98.6158 85.5418 98.4237C85.8701 98.2316 86.2311 98.136 86.6238 98.136C87.1165 98.136 87.5519 98.2654 87.9305 98.5239C88.3092 98.7823 88.5909 99.1621 88.7768 99.6627C88.9412 99.1789 89.2123 98.8035 89.5909 98.5363C89.9696 98.2692 90.3906 98.136 90.8549 98.136ZM97.3924 105.231C96.8423 105.231 96.3426 105.086 95.8927 104.793C95.4497 104.501 95.1 104.088 94.8429 103.555C94.5929 103.012 94.468 102.386 94.468 101.677C94.468 100.977 94.5965 100.359 94.8537 99.8254C95.1177 99.2829 95.4749 98.8699 95.9248 98.5864C96.3747 98.2943 96.8782 98.1484 97.4352 98.1484C97.9923 98.1484 98.4957 98.2943 98.9456 98.5864C99.3955 98.8699 99.749 99.2791 100.006 99.8128C100.27 100.347 100.402 100.969 100.402 101.677C100.402 102.386 100.266 103.012 99.9954 103.555C99.7308 104.088 99.3703 104.501 98.9135 104.793C98.4561 105.086 97.9493 105.231 97.3924 105.231ZM97.3924 104.23C97.7421 104.23 98.0704 104.135 98.3778 103.943C98.6847 103.75 98.9311 103.463 99.117 103.079C99.3098 102.695 99.4062 102.228 99.4062 101.677C99.4062 101.127 99.313 100.659 99.1276 100.276C98.9418 99.8923 98.6992 99.6083 98.3992 99.4249C98.0993 99.2328 97.7743 99.1371 97.4245 99.1371C97.0673 99.1371 96.739 99.2328 96.439 99.4249C96.1461 99.6083 95.9104 99.8923 95.732 100.276C95.5532 100.659 95.4643 101.127 95.4643 101.677C95.4643 102.236 95.5499 102.708 95.7213 103.092C95.8996 103.475 96.1353 103.763 96.4283 103.955C96.7207 104.138 97.0421 104.23 97.3924 104.23ZM103.762 105.231C103.312 105.231 102.908 105.144 102.552 104.969C102.195 104.785 101.912 104.535 101.706 104.218C101.498 103.892 101.384 103.521 101.363 103.104H102.37C102.398 103.446 102.533 103.725 102.777 103.943C103.026 104.16 103.351 104.268 103.751 104.268C104.123 104.268 104.416 104.172 104.63 103.98C104.844 103.788 104.951 103.546 104.951 103.254C104.951 102.954 104.837 102.733 104.608 102.591C104.38 102.441 104.026 102.295 103.548 102.153C103.112 102.02 102.755 101.886 102.477 101.753C102.205 101.61 101.97 101.406 101.77 101.139C101.577 100.864 101.481 100.506 101.481 100.063C101.481 99.7128 101.569 99.3917 101.748 99.0996C101.927 98.8073 102.18 98.5783 102.509 98.4113C102.837 98.236 103.212 98.1484 103.634 98.1484C104.283 98.1484 104.808 98.3405 105.208 98.724C105.608 99.1077 105.822 99.6333 105.851 100.301H104.876C104.855 99.9424 104.729 99.6545 104.501 99.4374C104.28 99.2203 103.98 99.112 103.601 99.112C103.251 99.112 102.973 99.1996 102.766 99.3749C102.559 99.55 102.455 99.7797 102.455 100.063C102.455 100.288 102.516 100.476 102.637 100.626C102.766 100.768 102.923 100.885 103.109 100.977C103.302 101.06 103.566 101.156 103.901 101.264C104.322 101.398 104.665 101.532 104.93 101.665C105.194 101.79 105.419 101.982 105.605 102.241C105.798 102.499 105.897 102.837 105.904 103.254C105.904 103.63 105.816 103.968 105.636 104.268C105.458 104.568 105.205 104.806 104.876 104.981C104.555 105.148 104.183 105.231 103.762 105.231ZM108.469 99.1996V103.242C108.469 103.575 108.53 103.813 108.651 103.955C108.773 104.088 108.984 104.155 109.283 104.155H110.001V105.119H109.123C108.58 105.119 108.173 104.973 107.902 104.681C107.631 104.389 107.495 103.909 107.495 103.242V99.1996H106.734V98.261H107.495V96.5341H108.469V98.261H110.001V99.1996H108.469ZM112.157 99.3749C112.329 98.9825 112.571 98.6784 112.886 98.4613C113.207 98.2442 113.596 98.136 114.053 98.136V99.3123H113.796C112.703 99.3123 112.157 100.005 112.157 101.39V105.119H111.182V98.261H112.157V99.3749ZM114.815 101.665C114.815 100.964 114.935 100.351 115.178 99.8254C115.421 99.2916 115.753 98.8786 116.175 98.5864C116.603 98.2943 117.078 98.1484 117.6 98.1484C118.113 98.1484 118.559 98.278 118.938 98.5363C119.317 98.7948 119.598 99.1201 119.785 99.5125V98.261H120.77V105.119H119.785V103.842C119.592 104.243 119.303 104.576 118.917 104.844C118.538 105.102 118.095 105.231 117.588 105.231C117.067 105.231 116.596 105.081 116.175 104.781C115.753 104.481 115.421 104.059 115.178 103.517C114.935 102.975 114.815 102.358 114.815 101.665ZM119.785 101.677C119.785 101.16 119.695 100.709 119.517 100.326C119.338 99.9424 119.095 99.6501 118.788 99.45C118.489 99.2416 118.157 99.1371 117.792 99.1371C117.428 99.1371 117.096 99.2372 116.796 99.4374C116.496 99.6377 116.256 99.9299 116.078 100.313C115.9 100.697 115.81 101.147 115.81 101.665C115.81 102.19 115.9 102.649 116.078 103.041C116.256 103.425 116.496 103.722 116.796 103.93C117.096 104.13 117.428 104.23 117.792 104.23C118.157 104.23 118.489 104.13 118.788 103.93C119.095 103.722 119.338 103.425 119.517 103.041C119.695 102.649 119.785 102.195 119.785 101.677ZM123.392 99.3749C123.563 98.9825 123.806 98.6784 124.12 98.4613C124.441 98.2442 124.831 98.136 125.288 98.136V99.3123H125.03C123.938 99.3123 123.392 100.005 123.392 101.39V105.119H122.417V98.261H123.392V99.3749ZM126.049 101.665C126.049 100.964 126.17 100.351 126.413 99.8254C126.656 99.2916 126.988 98.8786 127.41 98.5864C127.838 98.2943 128.312 98.1484 128.833 98.1484C129.348 98.1484 129.795 98.278 130.173 98.5363C130.551 98.7948 130.834 99.1201 131.02 99.5125V98.261H132.005V105.119H131.02V103.842C130.827 104.243 130.537 104.576 130.152 104.844C129.773 105.102 129.33 105.231 128.823 105.231C128.302 105.231 127.83 105.081 127.41 104.781C126.988 104.481 126.656 104.059 126.413 103.517C126.17 102.975 126.049 102.358 126.049 101.665ZM131.02 101.677C131.02 101.16 130.93 100.709 130.752 100.326C130.572 99.9424 130.33 99.6501 130.023 99.45C129.723 99.2416 129.391 99.1371 129.026 99.1371C128.662 99.1371 128.33 99.2372 128.031 99.4374C127.73 99.6377 127.492 99.9299 127.313 100.313C127.134 100.697 127.045 101.147 127.045 101.665C127.045 102.19 127.134 102.649 127.313 103.041C127.492 103.425 127.73 103.722 128.031 103.93C128.33 104.13 128.662 104.23 129.026 104.23C129.391 104.23 129.723 104.13 130.023 103.93C130.33 103.722 130.572 103.425 130.752 103.041C130.93 102.649 131.02 102.195 131.02 101.677ZM130.258 96.3214L127.977 97.748V96.897L130.258 95.3328V96.3214ZM25.3658 118.308C25.5657 117.9 25.8586 117.565 26.2442 117.308C26.6298 117.049 27.069 116.92 27.5618 116.92C28.0902 116.92 28.5651 117.066 28.9864 117.357C29.4077 117.65 29.7398 118.063 29.9826 118.597C30.2254 119.122 30.3469 119.735 30.3469 120.436C30.3469 121.128 30.2254 121.746 29.9826 122.288C29.7398 122.831 29.4042 123.252 28.9757 123.553C28.5544 123.852 28.0831 124.003 27.5618 124.003C27.0547 124.003 26.6084 123.873 26.2227 123.615C25.8443 123.356 25.5587 123.027 25.3658 122.627V123.89H24.391V114.63H25.3658V118.308ZM29.3506 120.436C29.3506 119.918 29.2614 119.468 29.0828 119.085C28.9043 118.701 28.6615 118.409 28.3544 118.209C28.0545 118.009 27.7224 117.908 27.3582 117.908C27.0011 117.908 26.6691 118.013 26.3621 118.221C26.0621 118.421 25.8193 118.718 25.6336 119.11C25.4551 119.493 25.3658 119.94 25.3658 120.449C25.3658 120.967 25.4551 121.42 25.6336 121.812C25.8193 122.196 26.0621 122.493 26.3621 122.701C26.6691 122.901 27.0011 123.002 27.3582 123.002C27.7224 123.002 28.0545 122.901 28.3544 122.701C28.6615 122.493 28.9043 122.196 29.0828 121.812C29.2614 121.42 29.3506 120.962 29.3506 120.436ZM36.9858 120.199C36.9858 120.416 36.9751 120.644 36.9537 120.886H32.2619C32.2977 121.563 32.494 122.093 32.851 122.476C33.2153 122.852 33.6544 123.039 34.1686 123.039C34.59 123.039 34.9399 122.926 35.2184 122.701C35.5041 122.468 35.704 122.158 35.8182 121.775H36.868C36.7109 122.434 36.3967 122.973 35.9254 123.39C35.454 123.798 34.8685 124.003 34.1686 124.003C33.6116 124.003 33.1117 123.857 32.669 123.565C32.2333 123.272 31.8906 122.859 31.6407 122.326C31.3907 121.783 31.2657 121.158 31.2657 120.449C31.2657 119.74 31.3871 119.118 31.6299 118.584C31.8728 118.051 32.2119 117.641 32.6475 117.357C33.0903 117.066 33.5974 116.92 34.1686 116.92C34.7257 116.92 35.2184 117.061 35.6469 117.345C36.0754 117.629 36.4039 118.021 36.6323 118.521C36.868 119.014 36.9858 119.572 36.9858 120.199ZM35.9789 119.96C35.9789 119.527 35.8968 119.155 35.7325 118.847C35.5683 118.53 35.3434 118.291 35.0577 118.133C34.7791 117.967 34.4686 117.883 34.1257 117.883C33.633 117.883 33.2117 118.066 32.8618 118.434C32.519 118.801 32.3227 119.31 32.2726 119.96H35.9789ZM39.2473 114.63V123.89H38.2725V114.63H39.2473ZM46.2646 120.199C46.2646 120.416 46.2538 120.644 46.2324 120.886H41.5406C41.5764 121.563 41.7727 122.093 42.1297 122.476C42.494 122.852 42.9331 123.039 43.4473 123.039C43.8687 123.039 44.2186 122.926 44.4971 122.701C44.7828 122.468 44.9827 122.158 45.0969 121.775H46.1467C45.9897 122.434 45.6754 122.973 45.2041 123.39C44.7328 123.798 44.1472 124.003 43.4473 124.003C42.8903 124.003 42.3904 123.857 41.9477 123.565C41.512 123.272 41.1693 122.859 40.9194 122.326C40.6694 121.783 40.5444 121.158 40.5444 120.449C40.5444 119.74 40.6658 119.118 40.9086 118.584C41.1515 118.051 41.4906 117.641 41.9263 117.357C42.369 117.066 42.8761 116.92 43.4473 116.92C44.0044 116.92 44.4971 117.061 44.9256 117.345C45.3541 117.629 45.6826 118.021 45.9111 118.521C46.1467 119.014 46.2646 119.572 46.2646 120.199ZM45.2577 119.96C45.2577 119.527 45.1755 119.155 45.0113 118.847C44.847 118.53 44.6221 118.291 44.3364 118.133C44.0579 117.967 43.7473 117.883 43.4045 117.883C42.9117 117.883 42.4904 118.066 42.1405 118.434C41.7977 118.801 41.6014 119.31 41.5514 119.96H45.2577ZM48.2796 122.951H51.1611V123.89H47.1656V122.951L50.015 117.958H47.1871V117.032H51.1397V117.958L48.2796 122.951ZM52.0618 120.436C52.0618 119.735 52.1831 119.122 52.426 118.597C52.6688 118.063 53.0009 117.65 53.4222 117.357C53.8508 117.066 54.3253 116.92 54.8471 116.92C55.3612 116.92 55.8073 117.049 56.186 117.308C56.5642 117.565 56.8464 117.891 57.0322 118.283V117.032H58.0177V123.89H57.0322V122.614C56.8394 123.014 56.5502 123.348 56.1646 123.615C55.7859 123.873 55.3429 124.003 54.8363 124.003C54.3146 124.003 53.8433 123.852 53.4222 123.553C53.0009 123.252 52.6688 122.831 52.426 122.288C52.1831 121.746 52.0618 121.128 52.0618 120.436ZM57.0322 120.449C57.0322 119.931 56.9428 119.481 56.7644 119.098C56.5856 118.713 56.3429 118.421 56.036 118.221C55.7361 118.013 55.404 117.908 55.0398 117.908C54.6756 117.908 54.3436 118.009 54.0437 118.209C53.7437 118.409 53.5043 118.701 53.3258 119.085C53.1472 119.468 53.058 119.918 53.058 120.436C53.058 120.962 53.1472 121.42 53.3258 121.812C53.5043 122.196 53.7437 122.493 54.0437 122.701C54.3436 122.901 54.6756 123.002 55.0398 123.002C55.404 123.002 55.7361 122.901 56.036 122.701C56.3429 122.493 56.5856 122.196 56.7644 121.812C56.9428 121.42 57.0322 120.967 57.0322 120.449ZM65.9054 120.436C65.9054 119.735 66.027 119.122 66.2695 118.597C66.5127 118.063 66.8448 117.65 67.2658 117.357C67.6943 117.066 68.1731 116.92 68.7011 116.92C69.1586 116.92 69.5833 117.045 69.9759 117.295C70.369 117.537 70.6689 117.858 70.8757 118.259V114.63H71.8611V123.89H70.8757V122.601C70.6828 123.01 70.3974 123.348 70.0188 123.615C69.6406 123.873 69.1976 124.003 68.6905 124.003C68.1693 124.003 67.6943 123.852 67.2658 123.553C66.8448 123.252 66.5127 122.831 66.2695 122.288C66.027 121.746 65.9054 121.128 65.9054 120.436ZM70.8757 120.449C70.8757 119.931 70.7868 119.481 70.6079 119.098C70.4295 118.713 70.187 118.421 69.8794 118.221C69.5795 118.013 69.2475 117.908 68.8833 117.908C68.5191 117.908 68.187 118.009 67.8871 118.209C67.5872 118.409 67.3483 118.701 67.1694 119.085C66.991 119.468 66.9016 119.918 66.9016 120.436C66.9016 120.962 66.991 121.42 67.1694 121.812C67.3483 122.196 67.5872 122.493 67.8871 122.701C68.187 122.901 68.5191 123.002 68.8833 123.002C69.2475 123.002 69.5795 122.901 69.8794 122.701C70.187 122.493 70.4295 122.196 70.6079 121.812C70.7868 121.42 70.8757 120.967 70.8757 120.449ZM73.1445 120.436C73.1445 119.735 73.2661 119.122 73.5086 118.597C73.7513 118.063 74.0834 117.65 74.5048 117.357C74.9333 117.066 75.4084 116.92 75.9296 116.92C76.4437 116.92 76.8899 117.049 77.2685 117.308C77.6472 117.565 77.9289 117.891 78.1147 118.283V117.032H79.1002V123.89H78.1147V122.614C77.9219 123.014 77.6328 123.348 77.2471 123.615C76.8684 123.873 76.426 124.003 75.9188 124.003C75.3977 124.003 74.9263 123.852 74.5048 123.553C74.0834 123.252 73.7513 122.831 73.5086 122.288C73.2661 121.746 73.1445 121.128 73.1445 120.436ZM78.1147 120.449C78.1147 119.931 78.0253 119.481 77.847 119.098C77.6686 118.713 77.4254 118.421 77.1185 118.221C76.8186 118.013 76.4865 117.908 76.1224 117.908C75.7581 117.908 75.4261 118.009 75.1262 118.209C74.8263 118.409 74.5869 118.701 74.4084 119.085C74.2301 119.468 74.1407 119.918 74.1407 120.436C74.1407 120.962 74.2301 121.42 74.4084 121.812C74.5869 122.196 74.8263 122.493 75.1262 122.701C75.4261 122.901 75.7581 123.002 76.1224 123.002C76.4865 123.002 76.8186 122.901 77.1185 122.701C77.4254 122.493 77.6686 122.196 77.847 121.812C78.0253 121.42 78.1147 120.967 78.1147 120.449ZM82.8258 124.003C82.3759 124.003 81.9721 123.916 81.6154 123.74C81.2582 123.556 80.9759 123.306 80.7691 122.99C80.5619 122.664 80.4478 122.293 80.4264 121.876H81.4333C81.4617 122.217 81.5972 122.497 81.8403 122.714C82.0899 122.931 82.4151 123.039 82.8152 123.039C83.1863 123.039 83.4793 122.943 83.6934 122.751C83.9077 122.559 84.0149 122.318 84.0149 122.025C84.0149 121.725 83.9003 121.504 83.672 121.362C83.4434 121.212 83.0899 121.066 82.6116 120.924C82.1757 120.791 81.8189 120.657 81.5404 120.523C81.2688 120.382 81.0332 120.177 80.8335 119.911C80.6406 119.635 80.5442 119.276 80.5442 118.834C80.5442 118.484 80.6331 118.162 80.812 117.871C80.9904 117.579 81.2437 117.349 81.5725 117.182C81.9008 117.007 82.2758 116.92 82.6973 116.92C83.347 116.92 83.8719 117.112 84.2719 117.495C84.6715 117.879 84.8857 118.404 84.9147 119.072H83.9399C83.9185 118.713 83.7931 118.426 83.565 118.209C83.3432 117.992 83.0433 117.883 82.6651 117.883C82.3149 117.883 82.0364 117.971 81.8297 118.146C81.6223 118.321 81.519 118.551 81.519 118.834C81.519 119.059 81.5795 119.247 81.7011 119.397C81.8297 119.54 81.9866 119.656 82.1724 119.748C82.3652 119.831 82.6293 119.928 82.9651 120.036C83.386 120.17 83.7289 120.303 83.9934 120.436C84.2575 120.561 84.4824 120.753 84.6683 121.012C84.8611 121.27 84.9608 121.608 84.9683 122.025C84.9683 122.4 84.8787 122.739 84.7004 123.039C84.5215 123.339 84.2682 123.577 83.9399 123.753C83.6185 123.919 83.2468 124.003 82.8258 124.003ZM93.9238 118.296C94.1167 117.904 94.4022 117.579 94.7808 117.32C95.1665 117.053 95.6126 116.92 96.1198 116.92C96.6409 116.92 97.1122 117.066 97.5337 117.357C97.9622 117.65 98.2981 118.063 98.5407 118.597C98.7833 119.122 98.9049 119.735 98.9049 120.436C98.9049 121.128 98.7833 121.746 98.5407 122.288C98.2981 122.831 97.9622 123.252 97.5337 123.553C97.1122 123.852 96.6409 124.003 96.1198 124.003C95.62 124.003 95.1771 123.873 94.7915 123.615C94.4128 123.348 94.1237 123.019 93.9238 122.627V127.144H92.949V117.032H93.9238V118.296ZM97.9086 120.436C97.9086 119.918 97.8192 119.468 97.6409 119.085C97.4625 118.701 97.2193 118.409 96.9125 118.209C96.6125 118.009 96.2804 117.908 95.9163 117.908C95.559 117.908 95.227 118.013 94.9201 118.221C94.6202 118.421 94.3775 118.718 94.1917 119.11C94.0133 119.493 93.9238 119.94 93.9238 120.449C93.9238 120.967 94.0133 121.42 94.1917 121.812C94.3775 122.196 94.6202 122.493 94.9201 122.701C95.227 122.901 95.559 123.002 95.9163 123.002C96.2804 123.002 96.6125 122.901 96.9125 122.701C97.2193 122.493 97.4625 122.196 97.6409 121.812C97.8192 121.42 97.9086 120.962 97.9086 120.436ZM101.163 114.63V123.89H100.188V114.63H101.163ZM102.46 120.436C102.46 119.735 102.581 119.122 102.824 118.597C103.067 118.063 103.399 117.65 103.82 117.357C104.248 117.066 104.724 116.92 105.245 116.92C105.759 116.92 106.206 117.049 106.583 117.308C106.962 117.565 107.245 117.891 107.43 118.283V117.032H108.415V123.89H107.43V122.614C107.237 123.014 106.948 123.348 106.562 123.615C106.184 123.873 105.741 124.003 105.234 124.003C104.713 124.003 104.242 123.852 103.82 123.553C103.399 123.252 103.067 122.831 102.824 122.288C102.581 121.746 102.46 121.128 102.46 120.436ZM107.43 120.449C107.43 119.931 107.341 119.481 107.162 119.098C106.984 118.713 106.742 118.421 106.434 118.221C106.134 118.013 105.802 117.908 105.438 117.908C105.073 117.908 104.741 118.009 104.441 118.209C104.141 118.409 103.902 118.701 103.724 119.085C103.545 119.468 103.456 119.918 103.456 120.436C103.456 120.962 103.545 121.42 103.724 121.812C103.902 122.196 104.141 122.493 104.441 122.701C104.741 122.901 105.073 123.002 105.438 123.002C105.802 123.002 106.134 122.901 106.434 122.701C106.742 122.493 106.984 122.196 107.162 121.812C107.341 121.42 107.43 120.967 107.43 120.449ZM112.923 116.907C113.637 116.907 114.216 117.162 114.658 117.671C115.101 118.172 115.323 118.897 115.323 119.848V123.89H114.358V120.011C114.358 119.327 114.212 118.805 113.919 118.446C113.626 118.079 113.226 117.896 112.719 117.896C112.205 117.896 111.794 118.083 111.487 118.459C111.188 118.834 111.038 119.38 111.038 120.098V123.89H110.062V117.032H111.038V118.009C111.231 117.658 111.491 117.387 111.819 117.195C112.156 117.002 112.523 116.907 112.923 116.907ZM118.104 117.971V122.013C118.104 122.346 118.164 122.585 118.286 122.726C118.408 122.859 118.617 122.926 118.918 122.926H119.635V123.89H118.758C118.215 123.89 117.807 123.744 117.536 123.452C117.264 123.16 117.129 122.681 117.129 122.013V117.971H116.368V117.032H117.129V115.305H118.104V117.032H119.635V117.971H118.104ZM120.452 120.436C120.452 119.735 120.574 119.122 120.816 118.597C121.059 118.063 121.391 117.65 121.813 117.357C122.241 117.066 122.717 116.92 123.238 116.92C123.751 116.92 124.197 117.049 124.576 117.308C124.956 117.565 125.237 117.891 125.423 118.283V117.032H126.408V123.89H125.423V122.614C125.23 123.014 124.941 123.348 124.555 123.615C124.176 123.873 123.734 124.003 123.227 124.003C122.705 124.003 122.235 123.852 121.813 123.553C121.391 123.252 121.059 122.831 120.816 122.288C120.574 121.746 120.452 121.128 120.452 120.436ZM125.423 120.449C125.423 119.931 125.333 119.481 125.155 119.098C124.977 118.713 124.733 118.421 124.426 118.221C124.127 118.013 123.794 117.908 123.431 117.908C123.066 117.908 122.734 118.009 122.434 118.209C122.135 118.409 121.895 118.701 121.716 119.085C121.538 119.468 121.449 119.918 121.449 120.436C121.449 120.962 121.538 121.42 121.716 121.812C121.895 122.196 122.135 122.493 122.434 122.701C122.734 122.901 123.066 123.002 123.431 123.002C123.794 123.002 124.127 122.901 124.426 122.701C124.733 122.493 124.977 122.196 125.155 121.812C125.333 121.42 125.423 120.967 125.423 120.449ZM130.134 124.003C129.683 124.003 129.279 123.916 128.923 123.74C128.567 123.556 128.284 123.306 128.077 122.99C127.869 122.664 127.756 122.293 127.734 121.876H128.742C128.77 122.217 128.905 122.497 129.149 122.714C129.398 122.931 129.723 123.039 130.123 123.039C130.494 123.039 130.788 122.943 131.002 122.751C131.216 122.559 131.322 122.318 131.322 122.025C131.322 121.725 131.208 121.504 130.979 121.362C130.752 121.212 130.397 121.066 129.92 120.924C129.483 120.791 129.127 120.657 128.848 120.523C128.577 120.382 128.341 120.177 128.142 119.911C127.949 119.635 127.853 119.276 127.853 118.834C127.853 118.484 127.941 118.162 128.119 117.871C128.299 117.579 128.552 117.349 128.881 117.182C129.209 117.007 129.583 116.92 130.005 116.92C130.655 116.92 131.18 117.112 131.58 117.495C131.979 117.879 132.193 118.404 132.223 119.072H131.247C131.226 118.713 131.101 118.426 130.873 118.209C130.651 117.992 130.351 117.883 129.973 117.883C129.623 117.883 129.344 117.971 129.137 118.146C128.93 118.321 128.827 118.551 128.827 118.834C128.827 119.059 128.887 119.247 129.009 119.397C129.137 119.54 129.294 119.656 129.48 119.748C129.673 119.831 129.938 119.928 130.273 120.036C130.694 120.17 131.036 120.303 131.301 120.436C131.566 120.561 131.79 120.753 131.976 121.012C132.169 121.27 132.268 121.608 132.276 122.025C132.276 122.4 132.187 122.739 132.009 123.039C131.829 123.339 131.576 123.577 131.247 123.753C130.927 123.919 130.554 124.003 130.134 124.003ZM25.5801 136.742V140.784C25.5801 141.117 25.6407 141.356 25.7622 141.497C25.8836 141.631 26.0942 141.697 26.3941 141.697H27.1119V142.662H26.2335C25.6908 142.662 25.2837 142.516 25.0123 142.223C24.7409 141.931 24.6053 141.452 24.6053 140.784V136.742H23.8447V135.804H24.6053V134.076H25.5801V135.804H27.1119V136.742H25.5801ZM29.2677 136.918C29.4391 136.525 29.6819 136.221 29.9961 136.004C30.3174 135.787 30.7066 135.678 31.1638 135.678V136.854H30.9067C29.814 136.854 29.2677 137.548 29.2677 138.932V142.662H28.2929V135.804H29.2677V136.918ZM34.8491 142.774C34.2992 142.774 33.7993 142.628 33.3494 142.336C32.9066 142.043 32.5568 141.631 32.2997 141.097C32.0497 140.554 31.9248 139.929 31.9248 139.22C31.9248 138.519 32.0533 137.901 32.3103 137.368C32.5746 136.825 32.9317 136.412 33.3816 136.128C33.8315 135.837 34.335 135.691 34.8919 135.691C35.4489 135.691 35.9524 135.837 36.4023 136.128C36.8522 136.412 37.2057 136.822 37.4628 137.355C37.727 137.889 37.8591 138.511 37.8591 139.22C37.8591 139.929 37.7235 140.554 37.452 141.097C37.1879 141.631 36.8272 142.043 36.3701 142.336C35.9132 142.628 35.4061 142.774 34.8491 142.774ZM34.8491 141.773C35.199 141.773 35.5275 141.677 35.8346 141.485C36.1416 141.292 36.388 141.005 36.5737 140.622C36.7665 140.238 36.8629 139.771 36.8629 139.22C36.8629 138.669 36.7701 138.202 36.5844 137.818C36.3987 137.434 36.1559 137.151 35.856 136.967C35.5561 136.775 35.2311 136.679 34.8812 136.679C34.5241 136.679 34.1956 136.775 33.8957 136.967C33.603 137.151 33.3672 137.434 33.1887 137.818C33.0103 138.202 32.9209 138.669 32.9209 139.22C32.9209 139.778 33.0067 140.25 33.1781 140.634C33.3565 141.018 33.5922 141.305 33.8851 141.497C34.1778 141.68 34.4992 141.773 34.8491 141.773ZM40.1155 137.067C40.3084 136.675 40.594 136.35 40.9725 136.091C41.3582 135.824 41.8045 135.691 42.3115 135.691C42.8328 135.691 43.3041 135.837 43.7254 136.128C44.1539 136.421 44.4895 136.834 44.7324 137.368C44.9751 137.894 45.0966 138.506 45.0966 139.207C45.0966 139.901 44.9751 140.517 44.7324 141.06C44.4895 141.602 44.1539 142.023 43.7254 142.324C43.3041 142.623 42.8328 142.774 42.3115 142.774C41.8115 142.774 41.3688 142.645 40.9833 142.386C40.6048 142.119 40.3155 141.79 40.1155 141.398V145.915H39.1408V135.804H40.1155V137.067ZM44.1003 139.207C44.1003 138.69 44.0111 138.24 43.8326 137.856C43.654 137.472 43.4113 137.18 43.1042 136.98C42.8042 136.78 42.4721 136.679 42.108 136.679C41.7509 136.679 41.4188 136.784 41.1118 136.992C40.8119 137.192 40.569 137.489 40.3834 137.881C40.2048 138.264 40.1155 138.711 40.1155 139.22C40.1155 139.738 40.2048 140.191 40.3834 140.584C40.569 140.968 40.8119 141.264 41.1118 141.472C41.4188 141.672 41.7509 141.773 42.108 141.773C42.4721 141.773 42.8042 141.672 43.1042 141.472C43.4113 141.264 43.654 140.968 43.8326 140.584C44.0111 140.191 44.1003 139.733 44.1003 139.207ZM46.8831 134.69C46.6974 134.69 46.5404 134.614 46.4118 134.464C46.2833 134.315 46.2189 134.131 46.2189 133.913C46.2189 133.696 46.2833 133.513 46.4118 133.363C46.5404 133.213 46.6974 133.138 46.8831 133.138C47.0617 133.138 47.2116 133.213 47.333 133.363C47.4616 133.513 47.5258 133.696 47.5258 133.913C47.5258 134.131 47.4616 134.315 47.333 134.464C47.2116 134.614 47.0617 134.69 46.8831 134.69ZM47.3544 135.804V142.662H46.3797V135.804H47.3544ZM48.6516 139.22C48.6516 138.511 48.773 137.894 49.0157 137.368C49.2586 136.834 49.5942 136.421 50.0227 136.128C50.4583 135.837 50.9546 135.691 51.5117 135.691C52.2329 135.691 52.8256 135.896 53.2898 136.304C53.7613 136.713 54.072 137.281 54.222 138.005H53.172C53.0719 137.588 52.8756 137.259 52.5828 137.017C52.2971 136.775 51.9401 136.654 51.5117 136.654C50.9546 136.654 50.5047 136.879 50.162 137.33C49.8191 137.773 49.6478 138.402 49.6478 139.22C49.6478 140.045 49.8191 140.684 50.162 141.134C50.5047 141.585 50.9546 141.81 51.5117 141.81C51.9401 141.81 52.2971 141.693 52.5828 141.46C52.8685 141.227 53.0649 140.892 53.172 140.459H54.222C54.0645 141.159 53.7507 141.722 53.2791 142.148C52.8078 142.566 52.2187 142.774 51.5117 142.774C50.9546 142.774 50.4583 142.628 50.0227 142.336C49.5942 142.043 49.2586 141.631 49.0157 141.097C48.773 140.563 48.6516 139.938 48.6516 139.22ZM55.1582 139.207C55.1582 138.506 55.2798 137.894 55.5224 137.368C55.765 136.834 56.0971 136.421 56.5186 136.128C56.9471 135.837 57.4222 135.691 57.9433 135.691C58.4575 135.691 58.9036 135.821 59.2823 136.079C59.6609 136.338 59.9427 136.662 60.1285 137.055V135.804H61.114V142.662H60.1285V141.385C59.9357 141.785 59.6464 142.119 59.2609 142.386C58.8822 142.645 58.4398 142.774 57.9326 142.774C57.4114 142.774 56.9401 142.623 56.5186 142.324C56.0971 142.023 55.765 141.602 55.5224 141.06C55.2798 140.517 55.1582 139.901 55.1582 139.207ZM60.1285 139.22C60.1285 138.702 60.0391 138.252 59.8607 137.869C59.6823 137.485 59.4392 137.192 59.1323 136.992C58.8324 136.784 58.5003 136.679 58.136 136.679C57.7719 136.679 57.4398 136.78 57.1399 136.98C56.8399 137.18 56.6005 137.472 56.4222 137.856C56.2439 138.24 56.1543 138.69 56.1543 139.207C56.1543 139.733 56.2439 140.191 56.4222 140.584C56.6005 140.968 56.8399 141.264 57.1399 141.472C57.4398 141.672 57.7719 141.773 58.136 141.773C58.5003 141.773 58.8324 141.672 59.1323 141.472C59.4392 141.264 59.6823 140.968 59.8607 140.584C60.0391 140.191 60.1285 139.738 60.1285 139.22ZM63.2649 134.69C63.0791 134.69 62.9221 134.614 62.7936 134.464C62.665 134.315 62.6008 134.131 62.6008 133.913C62.6008 133.696 62.665 133.513 62.7936 133.363C62.9221 133.213 63.0791 133.138 63.2649 133.138C63.4433 133.138 63.5933 133.213 63.7148 133.363C63.8433 133.513 63.9077 133.696 63.9077 133.913C63.9077 134.131 63.8433 134.315 63.7148 134.464C63.5933 134.614 63.4433 134.69 63.2649 134.69ZM63.7363 135.804V142.662H62.7614V135.804H63.7363ZM67.4758 142.774C67.0258 142.774 66.622 142.687 66.2653 142.511C65.908 142.328 65.6258 142.077 65.4191 141.761C65.2118 141.435 65.0977 141.064 65.0763 140.647H66.0832C66.1116 140.988 66.2471 141.268 66.4903 141.485C66.7399 141.702 67.0649 141.81 67.465 141.81C67.8362 141.81 68.1291 141.714 68.3434 141.522C68.5576 141.331 68.6647 141.089 68.6647 140.796C68.6647 140.496 68.5501 140.276 68.322 140.133C68.0933 139.983 67.7398 139.837 67.2615 139.696C66.8255 139.562 66.4689 139.428 66.1903 139.295C65.9188 139.153 65.6831 138.948 65.4833 138.682C65.2906 138.407 65.1942 138.048 65.1942 137.605C65.1942 137.255 65.2831 136.935 65.4619 136.642C65.6403 136.35 65.8936 136.121 66.2225 135.953C66.5508 135.778 66.9257 135.691 67.3472 135.691C67.9969 135.691 68.5217 135.883 68.9219 136.266C69.3213 136.65 69.5356 137.176 69.5645 137.844H68.5898C68.5684 137.485 68.4431 137.197 68.2149 136.98C67.9932 136.763 67.6931 136.654 67.3151 136.654C66.9648 136.654 66.6863 136.742 66.4795 136.918C66.2723 137.093 66.1689 137.323 66.1689 137.605C66.1689 137.831 66.2295 138.019 66.351 138.168C66.4795 138.311 66.6364 138.427 66.8224 138.519C67.0151 138.602 67.2792 138.699 67.615 138.807C68.036 138.941 68.3787 139.074 68.6433 139.207C68.9074 139.333 69.1324 139.524 69.3182 139.783C69.511 140.042 69.6106 140.379 69.6181 140.796C69.6181 141.173 69.5287 141.51 69.3503 141.81C69.1714 142.111 68.9181 142.349 68.5898 142.524C68.2684 142.691 67.8967 142.774 67.4758 142.774ZM71.3047 142.736C71.1188 142.736 70.9619 142.662 70.8333 142.511C70.7049 142.361 70.6405 142.178 70.6405 141.961C70.6405 141.744 70.7049 141.56 70.8333 141.41C70.9619 141.26 71.1188 141.185 71.3047 141.185C71.4831 141.185 71.633 141.26 71.7546 141.41C71.8832 141.56 71.9474 141.744 71.9474 141.961C71.9474 142.178 71.8832 142.361 71.7546 142.511C71.633 142.662 71.4831 142.736 71.3047 142.736Z" fill="white"/>
</svg>
