<svg width="32" height="32" viewBox="0 0 32 32" fill="none" xmlns="http://www.w3.org/2000/svg">
<path d="M13.6663 11H16.333V6.99998H20.333V4.33331H16.333V0.333313H13.6663V4.33331H9.66634V6.99998H13.6663V11ZM8.33301 23C6.86634 23 5.67967 24.2 5.67967 25.6666C5.67967 27.1333 6.86634 28.3333 8.33301 28.3333C9.79967 28.3333 10.9997 27.1333 10.9997 25.6666C10.9997 24.2 9.79967 23 8.33301 23ZM21.6663 23C20.1997 23 19.013 24.2 19.013 25.6666C19.013 27.1333 20.1997 28.3333 21.6663 28.3333C23.133 28.3333 24.333 27.1333 24.333 25.6666C24.333 24.2 23.133 23 21.6663 23ZM8.55967 18.6666L8.59967 18.5066L9.79967 16.3333H19.733C20.733 16.3333 21.613 15.7866 22.0663 14.96L27.213 5.61331L24.893 4.33331H24.8797L23.413 6.99998L19.733 13.6666H10.373L10.1997 13.3066L7.21301 6.99998L5.94634 4.33331L4.69301 1.66665H0.333008V4.33331H2.99967L7.79967 14.4533L5.99967 17.72C5.78634 18.0933 5.66634 18.5333 5.66634 19C5.66634 20.4666 6.86634 21.6666 8.33301 21.6666H24.333V19H8.89301C8.71967 19 8.55967 18.8533 8.55967 18.6666Z" fill="#245F43"/>
</svg>
