<svg width="24" height="24" viewBox="0 0 24 24" fill="none" xmlns="http://www.w3.org/2000/svg">
<path d="M19.0611 7.85399C18.9218 7.7146 18.7564 7.60402 18.5744 7.52858C18.3923 7.45314 18.1972 7.41431 18.0001 7.41431C17.8031 7.41431 17.6079 7.45314 17.4259 7.52858C17.2438 7.60402 17.0784 7.7146 16.9391 7.85399L12.3531 12.439C12.2594 12.5327 12.1322 12.5854 11.9996 12.5854C11.867 12.5854 11.7399 12.5327 11.6461 12.439L7.06113 7.85399C6.77986 7.57259 6.39834 7.41445 6.00048 7.41436C5.60262 7.41427 5.22102 7.57222 4.93963 7.85349C4.65823 8.13475 4.50009 8.51627 4.5 8.91413C4.49991 9.31199 4.65786 9.69359 4.93913 9.97499L9.52513 14.561C9.85014 14.886 10.236 15.1439 10.6607 15.3198C11.0853 15.4957 11.5405 15.5862 12.0001 15.5862C12.4598 15.5862 12.9149 15.4957 13.3396 15.3198C13.7643 15.1439 14.1501 14.886 14.4751 14.561L19.0611 9.97499C19.3423 9.6937 19.5003 9.31223 19.5003 8.91449C19.5003 8.51674 19.3423 8.13528 19.0611 7.85399Z" fill="white"/>
</svg>
