<svg width="56" height="44" viewBox="0 0 56 44" fill="none" xmlns="http://www.w3.org/2000/svg">
<path d="M38.5 20.5H17.5C16.6716 20.5 16 21.1716 16 22C16 22.8284 16.6716 23.5 17.5 23.5H38.5C39.3284 23.5 40 22.8284 40 22C40 21.1716 39.3284 20.5 38.5 20.5Z" fill="white"/>
<path d="M17.5 16.5H38.5C39.3284 16.5 40 15.8284 40 15C40 14.1716 39.3284 13.5 38.5 13.5H17.5C16.6716 13.5 16 14.1716 16 15C16 15.8284 16.6716 16.5 17.5 16.5Z" fill="white"/>
<path d="M38.5 27.5H17.5C16.6716 27.5 16 28.1716 16 29C16 29.8284 16.6716 30.5 17.5 30.5H38.5C39.3284 30.5 40 29.8284 40 29C40 28.1716 39.3284 27.5 38.5 27.5Z" fill="white"/>
</svg>
